<?xml version="1.0" encoding="UTF-8" standalone="no"?>
<!DOCTYPE svg PUBLIC "-//W3C//DTD SVG 1.1//EN" "http://www.w3.org/Graphics/SVG/1.1/DTD/svg11.dtd">
<svg width="100%" height="100%" viewBox="0 0 1828 1565" version="1.1" xmlns="http://www.w3.org/2000/svg" xmlns:xlink="http://www.w3.org/1999/xlink" xml:space="preserve" xmlns:serif="http://www.serif.com/" style="fill-rule:evenodd;clip-rule:evenodd;stroke-linejoin:round;stroke-miterlimit:1.41421;">
    <g transform="matrix(4.16667,0,0,4.16667,-131.568,-296.017)">
        <path d="M425.571,424.007C403.343,407.119 365.326,365.212 415.39,299.428C477.298,218.077 403.156,184.701 332.09,188.185C274.916,190.987 210.571,119.109 146.384,131.956C61.188,149.007 116.507,222.373 58.741,261.9C9.477,295.61 30.627,398.323 94.744,424.007L425.571,424.007Z" style="fill:rgb(240,204,204);fill-rule:nonzero;"/>
    </g>
    <g transform="matrix(4.16667,0,0,4.16667,-131.568,-296.017)">
        <path d="M463.989,274.431C463.646,262.367 452.409,257.688 444.908,266.422C440.604,271.432 436.503,278.618 435.735,288.229C434.018,309.736 452.834,303.505 459.866,291.989C462.865,287.077 464.163,280.528 463.989,274.431Z" style="fill:rgb(240,204,204);fill-rule:nonzero;"/>
    </g>
    <g transform="matrix(4.16667,0,0,4.16667,-131.568,-296.017)">
        <path d="M235.832,114.981C223.767,115.303 219.067,126.531 227.787,134.048C232.789,138.361 239.968,142.476 249.578,143.261C271.082,145.018 264.884,126.19 253.382,119.138C248.475,116.129 241.929,114.819 235.832,114.981Z" style="fill:rgb(240,204,204);fill-rule:nonzero;"/>
    </g>
    <g transform="matrix(4.16667,0,0,4.16667,-131.568,-296.017)">
        <path d="M70.631,232.174C75.376,221.077 67.134,212.119 56.664,216.904C50.657,219.649 43.92,224.455 39.195,232.859C28.622,251.667 48.318,253.895 59.528,246.387C64.31,243.184 68.233,237.783 70.631,232.174Z" style="fill:rgb(240,204,204);fill-rule:nonzero;"/>
    </g>
    <g transform="matrix(4.16667,0,0,4.16667,-131.568,-296.017)">
        <path d="M454.851,430.274C454.851,439.31 363.854,446.634 251.604,446.634C139.355,446.634 48.358,439.31 48.358,430.274C48.358,421.239 139.355,413.915 251.604,413.915C363.854,413.915 454.851,421.239 454.851,430.274Z" style="fill:rgb(203,226,242);fill-rule:nonzero;"/>
    </g>
    <g transform="matrix(4.16667,0,0,4.16667,-131.568,-296.017)">
        <path d="M390.911,427.433C391.213,429.012 391.693,430.478 392.319,431.829L425.329,431.829C426.629,428.732 426.625,425.507 424.702,422.769C412.675,405.64 427.513,405.982 429.862,394.275C432.439,381.431 420.205,388.071 423.916,370.871C428.945,347.562 418.042,336.368 412.525,349.822C407.32,362.515 409.996,367.71 397.263,377.227C386.703,385.118 405.134,397.749 394.669,410.227C390.208,415.544 389.853,421.895 390.911,427.433Z" style="fill:rgb(185,35,35);fill-rule:nonzero;"/>
    </g>
    <g transform="matrix(4.16667,0,0,4.16667,-131.568,-296.017)">
        <path d="M405.118,431.829C408.867,401.63 415.455,368.627 415.543,368.186C415.633,367.735 415.342,367.296 414.891,367.206C414.44,367.115 414.001,367.407 413.911,367.857C413.82,368.302 407.198,401.492 403.44,431.829L405.118,431.829Z" style="fill:rgb(165,50,50);fill-rule:nonzero;"/>
    </g>
    <g transform="matrix(4.16667,0,0,4.16667,-131.568,-296.017)">
        <path d="M445.207,431.829C445.142,431.582 445.069,431.334 444.984,431.085C436.294,405.616 454.488,411.374 461.598,397.766C469.396,382.837 451.906,386.636 462.669,366.737C477.257,339.77 467.821,322.032 456.174,336.658C445.187,350.455 446.622,357.831 427.482,365.002C411.61,370.947 429.821,393.166 412.418,404.807C405,409.769 402.277,417.48 401.595,424.697C401.358,427.193 401.501,429.582 401.963,431.829L445.207,431.829Z" style="fill:rgb(212,0,0);fill-rule:nonzero;"/>
    </g>
    <g transform="matrix(4.16667,0,0,4.16667,-131.568,-296.017)">
        <path d="M419.028,431.829C434.275,396.918 453.039,360.909 453.298,360.412C453.572,359.889 453.369,359.242 452.846,358.968C452.322,358.694 451.675,358.896 451.401,359.42C451.138,359.923 432.049,396.561 416.692,431.829L419.028,431.829Z" style="fill:rgb(185,35,35);fill-rule:nonzero;"/>
    </g>
    <g transform="matrix(4.16667,0,0,4.16667,-131.568,-296.017)">
        <path d="M111.834,427.433C111.533,429.012 111.052,430.478 110.427,431.829L77.417,431.829C76.116,428.732 76.121,425.507 78.044,422.769C90.071,405.64 75.233,405.982 72.883,394.275C70.306,381.431 82.541,388.071 78.83,370.871C73.8,347.562 84.703,336.368 90.22,349.822C95.425,362.515 92.749,367.71 105.483,377.227C116.042,385.118 97.612,397.749 108.077,410.227C112.538,415.544 112.894,421.895 111.834,427.433Z" style="fill:rgb(185,35,35);fill-rule:nonzero;"/>
    </g>
    <g transform="matrix(4.16667,0,0,4.16667,-131.568,-296.017)">
        <path d="M97.627,431.829C93.878,401.63 87.291,368.627 87.203,368.186C87.112,367.735 87.404,367.296 87.855,367.206C88.305,367.115 88.744,367.407 88.835,367.857C88.925,368.302 95.547,401.492 99.305,431.829L97.627,431.829Z" style="fill:rgb(165,50,50);fill-rule:nonzero;"/>
    </g>
    <g transform="matrix(4.16667,0,0,4.16667,-131.568,-296.017)">
        <path d="M57.538,431.829C57.604,431.582 57.676,431.334 57.761,431.085C66.451,405.616 48.257,411.374 41.148,397.766C33.349,382.837 50.84,386.636 40.076,366.737C25.489,339.77 34.925,322.032 46.571,336.658C57.559,350.455 56.123,357.831 75.263,365.002C91.135,370.947 72.924,393.166 90.328,404.807C97.746,409.769 100.468,417.48 101.151,424.697C101.388,427.193 101.245,429.582 100.784,431.829L57.538,431.829Z" style="fill:rgb(212,0,0);fill-rule:nonzero;"/>
    </g>
    <g transform="matrix(4.16667,0,0,4.16667,-131.568,-296.017)">
        <path d="M83.718,431.829C68.47,396.918 49.706,360.909 49.447,360.412C49.174,359.889 49.376,359.242 49.9,358.968C50.423,358.694 51.07,358.896 51.344,359.42C51.608,359.923 70.696,396.561 86.053,431.829L83.718,431.829Z" style="fill:rgb(185,35,35);fill-rule:nonzero;"/>
    </g>
    <g transform="matrix(4.16667,0,0,4.16667,-131.568,-296.017)">
        <path d="M153.439,431.82L155.948,431.82L152.092,421.018C152.59,417.174 154.148,409.873 159.02,401.744C166.188,389.782 168.025,381.309 162.024,381.355C154.239,381.417 148.658,400.354 150.286,415.957L141.106,390.242C141.479,386.916 142.842,380.56 147.68,372.568C154.083,361.993 159.025,349.591 151.146,350.265C143.239,350.941 137.563,369.982 139.511,385.772L131.856,364.328C132.083,362.245 132.932,358.22 136.003,353.146C140.039,346.482 143.153,338.666 138.188,339.091C133.19,339.518 129.606,351.585 130.865,361.553L129.244,357.013C127.757,343.309 118.306,328.142 112.531,329.404C106.761,330.666 112.417,339.373 119.898,347.113C123.127,350.454 125.176,354.116 126.616,356.68L129.766,365.503C124.143,358.644 115.906,353.722 112.337,356.166C108.225,358.982 115.585,363.059 122.928,365.662C126.86,367.056 129.61,368.744 131.419,370.135L141.137,397.357C132.296,385.133 117.545,375.691 111.43,379.879C104.905,384.347 116.583,390.816 128.235,394.946C135.729,397.602 140.523,400.935 143.262,403.311L150.829,424.509C142.299,411.15 125.987,400.148 119.474,404.608C112.948,409.077 124.627,415.546 136.279,419.676C144.977,422.759 150.04,426.755 152.47,429.105L153.439,431.82Z" style="fill:rgb(212,0,0);fill-rule:nonzero;"/>
    </g>
    <g transform="matrix(4.16667,0,0,4.16667,-131.568,-296.017)">
        <path d="M342.703,380.557L340.235,380.101L345.99,370.179C346.199,366.309 345.994,358.847 342.681,349.968C337.806,336.902 337.539,328.235 343.433,329.372C351.076,330.848 353.123,350.484 348.687,365.531L362.387,341.912C362.625,338.574 362.44,332.076 359.135,323.339C354.76,311.775 352.154,298.682 359.78,300.776C367.433,302.879 369.553,322.635 364.768,337.808L376.193,318.111C376.348,316.021 376.245,311.91 374.146,306.362C371.39,299.075 369.748,290.823 374.554,292.144C379.391,293.472 380.721,305.989 377.672,315.563L380.091,311.393C384.044,298.188 396.094,284.99 401.544,287.281C406.988,289.571 399.844,297.104 391.08,303.356C387.298,306.055 384.617,309.284 382.735,311.543L378.035,319.646C384.811,313.924 393.805,310.581 396.87,313.633C400.402,317.149 392.424,319.821 384.729,321.046C380.61,321.701 377.598,322.862 375.567,323.901L361.063,348.904C371.979,338.49 388.2,331.887 393.452,337.116C399.057,342.695 386.396,346.935 374.188,348.878C366.337,350.128 361.017,352.533 357.892,354.371L346.599,373.842C357.414,362.256 375.454,354.402 381.048,359.972C386.652,365.552 373.993,369.791 361.784,371.734C352.67,373.185 346.966,376.193 344.149,378.063L342.703,380.557Z" style="fill:rgb(212,0,0);fill-rule:nonzero;"/>
    </g>
    <g transform="matrix(4.16667,0,0,4.16667,-131.568,-296.017)">
        <path d="M346.153,358.602L346.039,437.989L231.114,437.823L231.228,358.436L346.153,358.602Z" style="fill:rgb(249,46,46);fill-rule:nonzero;"/>
    </g>
    <g transform="matrix(4.16667,0,0,4.16667,-131.568,-296.017)">
        <path d="M346.15,358.605L346.143,363.694L288.61,414.54L231.221,363.529L231.228,358.439L288.613,409.625L346.15,358.605Z" style="fill:rgb(176,110,110);fill-rule:nonzero;"/>
    </g>
    <g transform="matrix(4.16667,0,0,4.16667,-131.568,-296.017)">
        <path d="M277.56,399.588L234.442,437.828L231.114,437.823L231.117,435.8L275.089,396.803L277.56,399.588Z" style="fill:rgb(176,110,110);fill-rule:nonzero;"/>
    </g>
    <g transform="matrix(4.16667,0,0,4.16667,-131.568,-296.017)">
        <path d="M346.042,436.233L346.039,437.989L342.409,437.983L299.402,399.619L301.882,396.841L346.042,436.233Z" style="fill:rgb(176,110,110);fill-rule:nonzero;"/>
    </g>
    <g transform="matrix(4.16667,0,0,4.16667,-131.568,-296.017)">
        <path d="M231.225,358.436L288.614,409.625L346.15,358.602L231.225,358.436Z" style="fill:rgb(242,83,83);fill-rule:nonzero;"/>
    </g>
    <g transform="matrix(4.16667,0,0,4.16667,-131.568,-296.017)">
        <path d="M276.433,86.743C276.321,86.754 276.207,86.739 276.097,86.692C274.933,86.201 274.25,85.972 274.243,85.97C273.887,85.851 273.694,85.465 273.813,85.108C273.933,84.751 274.317,84.559 274.675,84.678C274.704,84.687 275.407,84.923 276.626,85.437C276.973,85.583 277.136,85.983 276.989,86.33C276.889,86.566 276.671,86.717 276.433,86.743Z" style="fill:rgb(203,226,242);fill-rule:nonzero;"/>
    </g>
    <g transform="matrix(4.16667,0,0,4.16667,-131.568,-296.017)">
        <path d="M311.142,123.272C311.604,124.507 312.038,125.782 312.432,127.06C312.528,127.376 312.836,127.571 313.153,127.537C313.196,127.533 313.239,127.524 313.282,127.511C313.642,127.4 313.844,127.019 313.733,126.66C313.333,125.355 312.89,124.055 312.417,122.794C312.285,122.442 311.895,122.264 311.541,122.396C311.188,122.527 311.01,122.92 311.142,123.272Z" style="fill:rgb(240,204,204);fill-rule:nonzero;"/>
    </g>
    <g transform="matrix(4.16667,0,0,4.16667,-131.568,-296.017)">
        <path d="M313.492,130.918C313.805,132.198 314.087,133.515 314.331,134.834C314.396,135.186 314.721,135.424 315.071,135.387C315.089,135.385 315.106,135.383 315.125,135.379C315.494,135.311 315.739,134.956 315.67,134.585C315.422,133.242 315.134,131.9 314.816,130.596C314.727,130.23 314.357,130.006 313.993,130.096C313.627,130.185 313.403,130.553 313.492,130.918Z" style="fill:rgb(240,204,204);fill-rule:nonzero;"/>
    </g>
    <g transform="matrix(4.16667,0,0,4.16667,-131.568,-296.017)">
        <path d="M316.365,151.485C316.703,151.45 316.968,151.167 316.974,150.819C316.994,149.453 316.984,148.081 316.944,146.744C316.933,146.368 316.619,146.072 316.243,146.083C315.861,146.097 315.571,146.409 315.583,146.785C315.623,148.102 315.632,149.452 315.611,150.798C315.606,151.174 315.906,151.483 316.282,151.489C316.311,151.49 316.338,151.488 316.365,151.485Z" style="fill:rgb(203,226,242);fill-rule:nonzero;"/>
    </g>
    <g transform="matrix(4.16667,0,0,4.16667,-131.568,-296.017)">
        <path d="M315.54,138.027C315.167,138.076 314.904,138.417 314.953,138.791C315.032,139.406 315.105,140.028 315.17,140.639C315.244,141.345 315.311,142.064 315.366,142.778C315.396,143.153 315.724,143.434 316.099,143.404C316.105,143.404 316.111,143.403 316.117,143.402C316.483,143.364 316.753,143.041 316.725,142.672C316.667,141.946 316.601,141.213 316.524,140.497C316.459,139.875 316.385,139.241 316.303,138.615C316.256,138.247 315.923,137.986 315.557,138.025C315.551,138.026 315.545,138.026 315.54,138.027Z" style="fill:rgb(203,226,242);fill-rule:nonzero;"/>
    </g>
    <g transform="matrix(4.16667,0,0,4.16667,-131.568,-296.017)">
        <path d="M309.622,119.572C309.745,119.847 310.03,120.001 310.315,119.971C310.385,119.963 310.454,119.945 310.521,119.915C310.865,119.761 311.02,119.358 310.865,119.015C310.311,117.775 309.71,116.538 309.08,115.34C308.904,115.007 308.493,114.879 308.16,115.054C307.827,115.229 307.699,115.641 307.874,115.974C308.491,117.147 309.079,118.357 309.622,119.572Z" style="fill:rgb(240,204,204);fill-rule:nonzero;"/>
    </g>
    <g transform="matrix(4.16667,0,0,4.16667,-131.568,-296.017)">
        <path d="M279.715,88.385C280.884,88.982 282.064,89.633 283.223,90.319C283.354,90.396 283.5,90.425 283.641,90.41C283.848,90.389 284.041,90.272 284.155,90.08C284.347,89.756 284.24,89.338 283.916,89.147C282.734,88.447 281.528,87.782 280.334,87.172C279.999,87.001 279.589,87.134 279.418,87.469C279.247,87.803 279.379,88.213 279.715,88.385Z" style="fill:rgb(240,204,204);fill-rule:nonzero;"/>
    </g>
    <g transform="matrix(4.16667,0,0,4.16667,-131.568,-296.017)">
        <path d="M289.864,94.798C290.008,94.908 290.182,94.952 290.349,94.934C290.528,94.915 290.7,94.825 290.818,94.67C291.047,94.371 290.989,93.943 290.69,93.715C289.611,92.892 288.495,92.09 287.371,91.332C287.059,91.122 286.637,91.204 286.426,91.516C286.215,91.827 286.298,92.25 286.609,92.461C287.712,93.205 288.807,93.991 289.864,94.798Z" style="fill:rgb(240,204,204);fill-rule:nonzero;"/>
    </g>
    <g transform="matrix(4.16667,0,0,4.16667,-131.568,-296.017)">
        <path d="M295.928,100.026C296.078,100.173 296.28,100.236 296.475,100.215C296.627,100.199 296.775,100.132 296.891,100.013C297.153,99.744 297.147,99.313 296.878,99.051C295.909,98.108 294.896,97.18 293.863,96.29C293.578,96.044 293.148,96.077 292.903,96.362C292.657,96.646 292.689,97.077 292.975,97.322C293.985,98.193 294.979,99.103 295.928,100.026Z" style="fill:rgb(240,204,204);fill-rule:nonzero;"/>
    </g>
    <g transform="matrix(4.16667,0,0,4.16667,-131.568,-296.017)">
        <path d="M301.308,105.948C301.458,106.136 301.688,106.224 301.911,106.2C302.036,106.187 302.159,106.139 302.265,106.054C302.559,105.819 302.606,105.391 302.371,105.097C301.524,104.04 300.632,102.994 299.718,101.988C299.465,101.71 299.034,101.689 298.756,101.942C298.478,102.195 298.457,102.626 298.71,102.904C299.604,103.889 300.479,104.914 301.308,105.948Z" style="fill:rgb(240,204,204);fill-rule:nonzero;"/>
    </g>
    <g transform="matrix(4.16667,0,0,4.16667,-131.568,-296.017)">
        <path d="M305.901,112.495C306.043,112.727 306.301,112.844 306.554,112.817C306.651,112.808 306.748,112.776 306.837,112.722C307.158,112.525 307.26,112.106 307.063,111.785C306.356,110.627 305.603,109.478 304.824,108.367C304.608,108.059 304.184,107.984 303.875,108.2C303.567,108.416 303.493,108.841 303.709,109.149C304.472,110.236 305.209,111.362 305.901,112.495Z" style="fill:rgb(240,204,204);fill-rule:nonzero;"/>
    </g>
    <g transform="matrix(4.16667,0,0,4.16667,-131.568,-296.017)">
        <path d="M276.419,82.083L279.399,71.044L242.879,71.358L276.419,82.083Z" style="fill:rgb(242,83,83);fill-rule:nonzero;"/>
    </g>
    <g transform="matrix(4.16667,0,0,4.16667,-131.568,-296.017)">
        <path d="M242.879,71.356L274.646,84.748L274.73,84.784L276.097,87.048L276.419,82.083L242.879,71.356Z" style="fill:rgb(249,46,46);fill-rule:nonzero;"/>
    </g>
    <g transform="matrix(4.16667,0,0,4.16667,-131.568,-296.017)">
        <path d="M276.097,87.048L273.136,86.581L274.73,84.784L276.097,87.048Z" style="fill:rgb(243,43,43);fill-rule:nonzero;"/>
    </g>
    <g transform="matrix(4.16667,0,0,4.16667,-131.568,-296.017)">
        <path d="M270.733,83.099L274.731,84.784L266.498,94.06L242.879,71.358L270.733,83.099Z" style="fill:rgb(242,83,83);fill-rule:nonzero;"/>
    </g>
    <g transform="matrix(4.16667,0,0,4.16667,-131.568,-296.017)">
        <path d="M456.91,158.851C458.917,158.851 460.551,157.218 460.551,155.21C460.551,153.203 458.917,151.57 456.91,151.57C454.902,151.57 453.27,153.203 453.27,155.21C453.27,157.218 454.902,158.851 456.91,158.851ZM456.91,149.906C459.835,149.906 462.215,152.286 462.215,155.21C462.215,158.136 459.835,160.516 456.91,160.516C453.985,160.516 451.605,158.136 451.605,155.21C451.605,152.286 453.985,149.906 456.91,149.906Z" style="fill:rgb(212,0,0);fill-rule:nonzero;"/>
    </g>
    <g transform="matrix(4.16667,0,0,4.16667,-131.568,-296.017)">
        <path d="M437.813,140.241C439.821,140.241 441.454,138.608 441.454,136.6C441.454,134.593 439.821,132.96 437.813,132.96C435.806,132.96 434.173,134.593 434.173,136.6C434.173,138.608 435.806,140.241 437.813,140.241ZM437.813,131.295C440.738,131.295 443.118,133.675 443.118,136.6C443.118,139.525 440.738,141.905 437.813,141.905C434.889,141.905 432.509,139.525 432.509,136.6C432.509,133.675 434.889,131.295 437.813,131.295Z" style="fill:white;fill-rule:nonzero;"/>
    </g>
    <g transform="matrix(4.16667,0,0,4.16667,-131.568,-296.017)">
        <path d="M431.26,114.058C431.719,114.058 432.092,114.43 432.092,114.89L432.092,118.559C432.092,119.019 431.719,119.392 431.26,119.392C430.8,119.392 430.428,119.019 430.428,118.559L430.428,114.89C430.428,114.43 430.8,114.058 431.26,114.058Z" style="fill:rgb(212,0,0);fill-rule:nonzero;"/>
    </g>
    <g transform="matrix(4.16667,0,0,4.16667,-131.568,-296.017)">
        <path d="M431.26,107.636C431.719,107.636 432.092,108.008 432.092,108.468L432.092,112.138C432.092,112.597 431.719,112.97 431.26,112.97C430.8,112.97 430.428,112.597 430.428,112.138L430.428,108.468C430.428,108.008 430.8,107.636 431.26,107.636Z" style="fill:rgb(212,0,0);fill-rule:nonzero;"/>
    </g>
    <g transform="matrix(4.16667,0,0,4.16667,-131.568,-296.017)">
        <path d="M426.108,112.682L429.405,112.682C429.864,112.682 430.237,113.054 430.237,113.514C430.237,113.973 429.864,114.346 429.405,114.346L426.108,114.346C425.649,114.346 425.276,113.973 425.276,113.514C425.276,113.054 425.649,112.682 426.108,112.682Z" style="fill:rgb(212,0,0);fill-rule:nonzero;"/>
    </g>
    <g transform="matrix(4.16667,0,0,4.16667,-131.568,-296.017)">
        <path d="M433.114,112.682L436.41,112.682C436.869,112.682 437.242,113.054 437.242,113.514C437.242,113.973 436.869,114.346 436.41,114.346L433.114,114.346C432.654,114.346 432.281,113.973 432.281,113.514C432.281,113.054 432.654,112.682 433.114,112.682Z" style="fill:rgb(212,0,0);fill-rule:nonzero;"/>
    </g>
    <g transform="matrix(4.16667,0,0,4.16667,-131.568,-296.017)">
        <path d="M460.551,134.62C461.01,134.62 461.383,134.992 461.383,135.452L461.383,139.122C461.383,139.581 461.01,139.954 460.551,139.954C460.091,139.954 459.719,139.581 459.719,139.122L459.719,135.452C459.719,134.992 460.091,134.62 460.551,134.62Z" style="fill:white;fill-rule:nonzero;"/>
    </g>
    <g transform="matrix(4.16667,0,0,4.16667,-131.568,-296.017)">
        <path d="M460.551,128.198C461.01,128.198 461.383,128.57 461.383,129.03L461.383,132.7C461.383,133.159 461.01,133.532 460.551,133.532C460.091,133.532 459.719,133.159 459.719,132.7L459.719,129.03C459.719,128.57 460.091,128.198 460.551,128.198Z" style="fill:white;fill-rule:nonzero;"/>
    </g>
    <g transform="matrix(4.16667,0,0,4.16667,-131.568,-296.017)">
        <path d="M455.399,133.244L458.696,133.244C459.155,133.244 459.528,133.616 459.528,134.076C459.528,134.535 459.155,134.908 458.696,134.908L455.399,134.908C454.94,134.908 454.567,134.535 454.567,134.076C454.567,133.616 454.94,133.244 455.399,133.244Z" style="fill:white;fill-rule:nonzero;"/>
    </g>
    <g transform="matrix(4.16667,0,0,4.16667,-131.568,-296.017)">
        <path d="M462.405,133.244L465.701,133.244C466.161,133.244 466.533,133.616 466.533,134.076C466.533,134.535 466.161,134.908 465.701,134.908L462.405,134.908C461.945,134.908 461.573,134.535 461.573,134.076C461.573,133.616 461.945,133.244 462.405,133.244Z" style="fill:white;fill-rule:nonzero;"/>
    </g>
    <g transform="matrix(4.16667,0,0,4.16667,-131.568,-296.017)">
        <path d="M99.861,124.645C97.854,124.645 96.22,126.278 96.22,128.286C96.22,130.293 97.854,131.926 99.861,131.926C101.869,131.926 103.502,130.293 103.502,128.286C103.502,126.278 101.869,124.645 99.861,124.645ZM99.861,122.981C102.786,122.981 105.166,125.36 105.166,128.286C105.166,131.21 102.786,133.59 99.861,133.59C96.936,133.59 94.556,131.21 94.556,128.286C94.556,125.36 96.936,122.981 99.861,122.981Z" style="fill:rgb(212,0,0);fill-rule:nonzero;"/>
    </g>
    <g transform="matrix(4.16667,0,0,4.16667,-131.568,-296.017)">
        <path d="M80.541,107.123C78.533,107.123 76.9,108.755 76.9,110.763C76.9,112.771 78.533,114.403 80.541,114.403C82.548,114.403 84.182,112.771 84.182,110.763C84.182,108.755 82.548,107.123 80.541,107.123ZM80.541,105.458C83.466,105.458 85.846,107.838 85.846,110.763C85.846,113.688 83.466,116.068 80.541,116.068C77.616,116.068 75.236,113.688 75.236,110.763C75.236,107.838 77.616,105.458 80.541,105.458Z" style="fill:white;fill-rule:nonzero;"/>
    </g>
    <g transform="matrix(4.16667,0,0,4.16667,-131.568,-296.017)">
        <path d="M73.543,135.78C73.543,136.24 73.916,136.613 74.375,136.613L78.044,136.613C78.504,136.613 78.877,136.24 78.877,135.78C78.877,135.321 78.504,134.948 78.044,134.948L74.375,134.948C73.916,134.948 73.543,135.321 73.543,135.78Z" style="fill:rgb(212,0,0);fill-rule:nonzero;"/>
    </g>
    <g transform="matrix(4.16667,0,0,4.16667,-131.568,-296.017)">
        <path d="M67.121,135.78C67.121,136.24 67.494,136.613 67.953,136.613L71.623,136.613C72.083,136.613 72.455,136.24 72.455,135.78C72.455,135.321 72.083,134.948 71.623,134.948L67.953,134.948C67.494,134.948 67.121,135.321 67.121,135.78Z" style="fill:rgb(212,0,0);fill-rule:nonzero;"/>
    </g>
    <g transform="matrix(4.16667,0,0,4.16667,-131.568,-296.017)">
        <path d="M72.167,130.63L72.167,133.926C72.167,134.386 72.539,134.758 72.999,134.758C73.459,134.758 73.831,134.386 73.831,133.926L73.831,130.63C73.831,130.17 73.459,129.797 72.999,129.797C72.539,129.797 72.167,130.17 72.167,130.63Z" style="fill:rgb(212,0,0);fill-rule:nonzero;"/>
    </g>
    <g transform="matrix(4.16667,0,0,4.16667,-131.568,-296.017)">
        <path d="M72.167,137.635L72.167,140.931C72.167,141.391 72.539,141.763 72.999,141.763C73.459,141.763 73.831,141.391 73.831,140.931L73.831,137.635C73.831,137.175 73.459,136.803 72.999,136.803C72.539,136.803 72.167,137.175 72.167,137.635Z" style="fill:rgb(212,0,0);fill-rule:nonzero;"/>
    </g>
    <g transform="matrix(4.16667,0,0,4.16667,-131.568,-296.017)">
        <path d="M112.401,107.123C112.401,107.582 112.774,107.955 113.234,107.955L116.903,107.955C117.363,107.955 117.735,107.582 117.735,107.123C117.735,106.663 117.363,106.291 116.903,106.291L113.234,106.291C112.774,106.291 112.401,106.663 112.401,107.123Z" style="fill:white;fill-rule:nonzero;"/>
    </g>
    <g transform="matrix(4.16667,0,0,4.16667,-131.568,-296.017)">
        <path d="M105.98,107.123C105.98,107.582 106.353,107.955 106.812,107.955L110.481,107.955C110.941,107.955 111.313,107.582 111.313,107.123C111.313,106.663 110.941,106.291 110.481,106.291L106.812,106.291C106.353,106.291 105.98,106.663 105.98,107.123Z" style="fill:white;fill-rule:nonzero;"/>
    </g>
    <g transform="matrix(4.16667,0,0,4.16667,-131.568,-296.017)">
        <path d="M111.025,101.972L111.025,105.268C111.025,105.728 111.398,106.1 111.857,106.1C112.317,106.1 112.69,105.728 112.69,105.268L112.69,101.972C112.69,101.512 112.317,101.14 111.857,101.14C111.398,101.14 111.025,101.512 111.025,101.972Z" style="fill:white;fill-rule:nonzero;"/>
    </g>
    <g transform="matrix(4.16667,0,0,4.16667,-131.568,-296.017)">
        <path d="M111.025,108.977L111.025,112.273C111.025,112.733 111.398,113.105 111.857,113.105C112.317,113.105 112.69,112.733 112.69,112.273L112.69,108.977C112.69,108.518 112.317,108.145 111.857,108.145C111.398,108.145 111.025,108.518 111.025,108.977Z" style="fill:white;fill-rule:nonzero;"/>
    </g>
    <g transform="matrix(4.16667,0,0,4.16667,-131.568,-296.017)">
        <path d="M75.13,194.558L60.248,194.558C57.894,194.558 55.984,192.648 55.984,190.294L55.984,175.412C55.984,173.057 57.894,171.148 60.248,171.148L75.13,171.148C77.485,171.148 79.394,173.057 79.394,175.412L79.394,190.294C79.394,192.648 77.485,194.558 75.13,194.558Z" style="fill:rgb(249,46,46);fill-rule:nonzero;"/>
    </g>
    <g transform="matrix(4.16667,0,0,4.16667,-131.568,-296.017)">
        <path d="M74.312,178.034C74.272,177.872 74.235,177.71 74.195,177.549C74.053,176.98 73.783,176.479 73.399,176.036C73.125,175.719 72.807,175.449 72.448,175.243C71.953,174.958 71.393,175.079 71.027,175.52C70.374,176.308 69.725,177.098 69.081,177.892C68.685,178.38 68.75,179.047 69.24,179.481C69.591,179.792 69.961,180.082 70.324,180.379C70.371,180.417 70.426,180.446 70.466,180.472C69.601,182.799 68.133,184.597 66.025,185.892C65.77,185.68 65.503,185.457 65.235,185.234C65.098,185.121 64.961,185.006 64.82,184.897C64.397,184.573 63.907,184.541 63.466,184.829C63.327,184.919 63.212,185.054 63.105,185.184C62.515,185.896 61.933,186.615 61.343,187.326C61.155,187.551 61.037,187.8 60.995,188.088C61.005,188.194 61.016,188.3 61.026,188.405C61.129,188.584 61.2,188.794 61.341,188.935C61.687,189.278 62.066,189.586 62.519,189.79C63.049,190.029 63.603,190.175 64.183,190.124C64.565,190.09 64.948,190.01 65.319,189.907C66.272,189.641 67.141,189.186 67.958,188.634C68.768,188.088 69.505,187.453 70.182,186.751C71.096,185.803 71.906,184.77 72.642,183.678C73.222,182.817 73.723,181.916 74.047,180.925C74.211,180.426 74.321,179.917 74.356,179.392C74.369,179.181 74.374,178.969 74.383,178.758C74.359,178.517 74.335,178.275 74.312,178.034Z" style="fill:white;fill-rule:nonzero;"/>
    </g>
    <g transform="matrix(4.16667,0,0,4.16667,-131.568,-296.017)">
        <path d="M436.016,330.384L419.052,330.384C417.174,330.384 415.652,328.861 415.652,326.984L415.652,310.02C415.652,308.143 417.174,306.62 419.052,306.62L436.016,306.62C437.894,306.62 439.416,308.143 439.416,310.02L439.416,326.984C439.416,328.861 437.894,330.384 436.016,330.384Z" style="fill:rgb(249,46,46);fill-rule:nonzero;"/>
    </g>
    <g transform="matrix(4.16667,0,0,4.16667,-131.568,-296.017)">
        <path d="M428.644,318.688C428.644,317.758 428.162,317.276 427.526,317.276C426.891,317.276 426.426,317.758 426.426,318.688C426.426,319.635 426.891,320.115 427.526,320.115C428.162,320.115 428.644,319.635 428.644,318.688ZM435.127,318.052C435.127,321.016 433.468,322.552 431.481,322.552C430.318,322.552 429.466,322.101 429.031,321.201C428.597,322.055 427.853,322.552 426.673,322.552C424.998,322.552 423.385,321.077 423.385,318.688C423.385,316.299 424.951,314.842 426.673,314.842C427.495,314.842 428.132,315.105 428.582,315.602L428.582,314.98L431.56,314.98L431.56,319.418C431.56,320.069 431.824,320.271 432.165,320.271C432.6,320.271 432.956,319.836 432.956,318.099C432.956,315.291 430.861,313.306 427.666,313.306C424.486,313.306 422.346,315.539 422.346,318.486C422.346,321.527 424.439,323.698 427.604,323.698C428.628,323.698 429.683,323.498 430.737,323.017L431.39,324.925C430.459,325.375 428.984,325.669 427.604,325.669C422.935,325.669 419.94,322.552 419.94,318.486C419.94,314.484 422.935,311.335 427.666,311.335C432.134,311.335 435.127,314.328 435.127,318.052Z" style="fill:white;fill-rule:nonzero;"/>
    </g>
    <g transform="matrix(4.16667,0,0,4.16667,-131.568,-296.017)">
        <path d="M431.103,177.858L431.103,253.671C431.103,260.751 425.363,266.493 418.28,266.493L236.653,266.493L236.653,136.871L390.115,136.871C401.436,136.871 411.681,141.458 419.1,148.876C426.516,156.292 431.103,166.541 431.103,177.858Z" style="fill:rgb(212,0,0);fill-rule:nonzero;"/>
    </g>
    <g transform="matrix(4.16667,0,0,4.16667,-131.568,-296.017)">
        <path d="M431.103,237.617L431.103,253.671C431.103,260.751 425.363,266.493 418.28,266.493L266.452,266.493L266.452,237.617L431.103,237.617Z" style="fill:rgb(227,0,1);fill-rule:nonzero;"/>
    </g>
    <g transform="matrix(4.16667,0,0,4.16667,-131.568,-296.017)">
        <path d="M279.476,173.39L279.476,266.493L197.355,266.493L197.355,173.39C197.355,153.166 213.75,136.773 233.972,136.773L243.084,136.773C263.206,136.896 279.476,153.241 279.476,173.39Z" style="fill:rgb(185,36,35);fill-rule:nonzero;"/>
    </g>
    <g transform="matrix(4.16667,0,0,4.16667,-131.568,-296.017)">
        <path d="M279.476,173.39L279.476,266.493L206.467,266.493L206.467,173.39C206.467,153.241 222.739,136.896 242.858,136.773L243.084,136.773C263.206,136.896 279.476,153.241 279.476,173.39Z" style="fill:rgb(165,51,50);fill-rule:nonzero;"/>
    </g>
    <g transform="matrix(4.16667,0,0,4.16667,-131.568,-296.017)">
        <path d="M197.354,266.492L166.082,321.552C154.595,341.776 161.68,358.169 181.902,358.169L191.014,358.169C211.205,358.047 236.758,341.701 248.202,321.552L279.474,266.492L197.354,266.492Z" style="fill:rgb(185,36,35);fill-rule:nonzero;"/>
    </g>
    <g transform="matrix(4.16667,0,0,4.16667,-131.568,-296.017)">
        <rect x="197.355" y="261.173" width="82.121" height="5.319" style="fill:rgb(185,35,35);fill-rule:nonzero;"/>
    </g>
    <g transform="matrix(4.16667,0,0,4.16667,-131.568,-296.017)">
        <path d="M378.45,169.881C378.45,177.153 372.556,183.048 365.283,183.048C358.012,183.048 352.117,177.153 352.117,169.881C352.117,162.609 358.012,156.715 365.283,156.715C372.556,156.715 378.45,162.609 378.45,169.881Z" style="fill:rgb(185,35,35);fill-rule:nonzero;"/>
    </g>
    <g transform="matrix(4.16667,0,0,4.16667,-131.568,-296.017)">
        <path d="M378.45,167.373C378.45,172.608 375.396,177.129 370.972,179.251C369.25,180.077 367.321,180.54 365.283,180.54C358.012,180.54 352.117,174.645 352.117,167.373C352.117,160.102 358.012,154.207 365.283,154.207C372.556,154.207 378.45,160.102 378.45,167.373Z" style="fill:rgb(85,51,51);fill-rule:nonzero;"/>
    </g>
    <g transform="matrix(4.16667,0,0,4.16667,-131.568,-296.017)">
        <path d="M365.283,175.022C361.066,175.022 357.635,171.591 357.635,167.373C357.635,163.156 361.066,159.725 365.283,159.725C369.501,159.725 372.933,163.156 372.933,167.373C372.933,171.591 369.501,175.022 365.283,175.022Z" style="fill:rgb(131,79,79);fill-rule:nonzero;"/>
    </g>
    <g transform="matrix(4.16667,0,0,4.16667,-131.568,-296.017)">
        <path d="M367.487,79.29L367.487,167.1C367.487,168.316 366.499,169.302 365.282,169.302C364.066,169.302 363.081,168.316 363.081,167.1L363.081,79.29L367.487,79.29Z" style="fill:rgb(147,147,147);fill-rule:nonzero;"/>
    </g>
    <g transform="matrix(4.16667,0,0,4.16667,-131.568,-296.017)">
        <path d="M398.75,95.655L363.081,95.655L363.081,75.793L398.75,75.793L390.641,85.724L398.75,95.655Z" style="fill:rgb(85,51,51);fill-rule:nonzero;"/>
    </g>
    <g transform="matrix(4.16667,0,0,4.16667,-131.568,-296.017)">
        <path d="M367.487,95.654L367.487,96.851L363.081,98.391L363.081,95.654L367.487,95.654Z" style="fill:rgb(243,43,43);fill-rule:nonzero;"/>
    </g>
    <g transform="matrix(4.16667,0,0,4.16667,-131.568,-296.017)">
        <rect x="316.176" y="266.517" width="17.556" height="168.062" style="fill:rgb(185,36,35);fill-rule:nonzero;"/>
    </g>
    <g transform="matrix(4.16667,0,0,4.16667,-131.568,-296.017)">
        <path d="M363.872,438.061L286.036,438.061L286.036,434.253C286.036,428.342 290.828,423.549 296.74,423.549L353.168,423.549C359.08,423.549 363.872,428.342 363.872,434.253L363.872,438.061Z" style="fill:rgb(212,0,0);fill-rule:nonzero;"/>
    </g>
    <g transform="matrix(4.16667,0,0,4.16667,-131.568,-296.017)">
        <path d="M333.732,266.517L333.732,271.049L316.176,277.193L316.176,266.517L333.732,266.517Z" style="fill:rgb(165,51,50);fill-rule:nonzero;"/>
    </g>
    <g transform="matrix(4.16667,0,0,4.16667,-131.568,-296.017)">
        <path d="M173.185,205.281C179.698,228.975 201.157,235.589 201.157,235.589C209.665,233.784 215.057,231.228 220.41,228.28C218.825,224.482 218.137,220.624 217.257,215.612C209.354,217.811 202.529,218.986 202.529,218.986C185.846,211.253 175.728,174.241 175.728,174.241C165.812,183.654 173.185,205.281 173.185,205.281Z" style="fill:rgb(29,113,185);fill-rule:nonzero;"/>
    </g>
    <g transform="matrix(4.16667,0,0,4.16667,-131.568,-296.017)">
        <path d="M117.069,395.663L110.011,405.104C110.011,405.104 111.3,409.325 116.527,412.577L124.969,401.715L117.069,395.663Z" style="fill:rgb(247,155,138);fill-rule:nonzero;"/>
    </g>
    <g transform="matrix(4.16667,0,0,4.16667,-131.568,-296.017)">
        <path d="M115.355,409.653C115.355,409.653 118.657,408.941 119.787,410.083C120.917,411.225 123.752,426.757 126.405,430.154C129.058,433.553 126.387,435.357 124.754,436.046C123.122,436.734 99.724,413.36 99.724,413.36C99.724,413.36 105.509,405.37 108.298,403.818C111.086,402.267 112.395,408.009 115.355,409.653Z" style="fill:rgb(255,18,18);fill-rule:nonzero;"/>
    </g>
    <g transform="matrix(4.16667,0,0,4.16667,-131.568,-296.017)">
        <path d="M115.791,418.718C115.643,418.661 115.518,418.546 115.452,418.386C115.325,418.073 115.468,417.712 115.773,417.577C115.875,417.532 118.292,416.476 120.224,416.833C122.795,417.305 123.433,419.514 123.459,419.608C123.549,419.934 123.364,420.275 123.046,420.371C122.729,420.468 122.397,420.282 122.308,419.956C122.29,419.896 121.828,418.382 119.998,418.043C118.424,417.752 116.257,418.696 116.235,418.706C116.087,418.77 115.929,418.77 115.791,418.718Z" style="fill:white;fill-rule:nonzero;"/>
    </g>
    <g transform="matrix(4.16667,0,0,4.16667,-131.568,-296.017)">
        <path d="M115.405,416.233C115.258,416.177 115.133,416.061 115.067,415.901C114.939,415.59 115.083,415.228 115.387,415.093C115.489,415.047 117.906,413.991 119.838,414.348C122.412,414.821 123.048,417.028 123.074,417.123C123.164,417.448 122.979,417.79 122.661,417.887C122.343,417.983 122.012,417.798 121.922,417.471C121.904,417.411 121.442,415.896 119.613,415.558C118.032,415.267 115.872,416.211 115.85,416.221C115.703,416.286 115.544,416.286 115.405,416.233Z" style="fill:white;fill-rule:nonzero;"/>
    </g>
    <g transform="matrix(4.16667,0,0,4.16667,-131.568,-296.017)">
        <path d="M116.872,421.333C116.725,421.276 116.6,421.161 116.534,421.001C116.406,420.688 116.55,420.327 116.854,420.192C116.957,420.146 119.374,419.091 121.306,419.447C123.879,419.92 124.516,422.128 124.542,422.223C124.631,422.548 124.446,422.89 124.128,422.986C123.811,423.082 123.479,422.896 123.39,422.57C123.372,422.511 122.909,420.996 121.08,420.657C119.499,420.366 117.339,421.311 117.318,421.32C117.17,421.386 117.011,421.386 116.872,421.333Z" style="fill:white;fill-rule:nonzero;"/>
    </g>
    <g transform="matrix(4.16667,0,0,4.16667,-131.568,-296.017)">
        <path d="M160.364,411.874L161.434,423.614C161.434,423.614 165.216,425.889 171.276,424.809L170.283,411.087L160.364,411.874Z" style="fill:rgb(247,155,138);fill-rule:nonzero;"/>
    </g>
    <g transform="matrix(4.16667,0,0,4.16667,-131.568,-296.017)">
        <path d="M169.138,423.159C169.138,423.159 171.203,420.301 172.876,420.397C174.55,420.495 187.597,430.564 192.028,431.349C196.459,432.132 195.648,435.397 194.862,437.072C194.076,438.747 159.771,437.786 159.771,437.786C159.771,437.786 158.507,426.713 159.587,423.561C160.667,420.409 165.692,423.951 169.138,423.159Z" style="fill:rgb(238,34,36);fill-rule:nonzero;"/>
    </g>
    <g transform="matrix(4.16667,0,0,4.16667,-131.568,-296.017)">
        <path d="M177.628,430.638C177.479,430.688 177.308,430.679 177.155,430.598C176.858,430.438 176.738,430.069 176.886,429.77C176.936,429.671 178.123,427.315 179.839,426.358C182.12,425.081 184.021,426.375 184.101,426.431C184.378,426.623 184.454,427.005 184.27,427.282C184.087,427.559 183.713,427.627 183.436,427.434C183.384,427.398 182.063,426.527 180.437,427.434C179.04,428.214 177.973,430.323 177.962,430.345C177.89,430.489 177.768,430.59 177.628,430.638Z" style="fill:white;fill-rule:nonzero;"/>
    </g>
    <g transform="matrix(4.16667,0,0,4.16667,-131.568,-296.017)">
        <path d="M175.746,428.971C175.597,429.021 175.426,429.012 175.273,428.931C174.976,428.771 174.855,428.401 175.004,428.103C175.054,428.003 176.241,425.648 177.957,424.69C180.24,423.412 182.139,424.707 182.219,424.763C182.496,424.956 182.571,425.337 182.388,425.614C182.205,425.892 181.831,425.96 181.554,425.766C181.502,425.73 180.18,424.859 178.555,425.766C177.152,426.55 176.091,428.655 176.081,428.677C176.008,428.821 175.886,428.923 175.746,428.971Z" style="fill:white;fill-rule:nonzero;"/>
    </g>
    <g transform="matrix(4.16667,0,0,4.16667,-131.568,-296.017)">
        <path d="M180.129,431.961C179.98,432.012 179.81,432.003 179.657,431.921C179.359,431.763 179.239,431.393 179.388,431.094C179.438,430.994 180.625,428.639 182.34,427.681C184.623,426.402 186.522,427.697 186.602,427.753C186.879,427.946 186.955,428.328 186.771,428.604C186.588,428.882 186.214,428.95 185.938,428.756C185.886,428.722 184.563,427.85 182.938,428.756C181.535,429.54 180.475,431.645 180.464,431.667C180.392,431.811 180.27,431.913 180.129,431.961Z" style="fill:white;fill-rule:nonzero;"/>
    </g>
    <g transform="matrix(4.16667,0,0,4.16667,-131.568,-296.017)">
        <path d="M153.786,284.45L146.656,343.452C146.656,343.452 140.26,352.131 134.164,363.236C129.046,372.557 115.41,396.741 115.41,396.741L123.657,403.029L168.827,356.221L180.853,283.875L153.786,284.45Z" style="fill:rgb(55,24,24);fill-rule:nonzero;"/>
    </g>
    <g transform="matrix(4.16667,0,0,4.16667,-131.568,-296.017)">
        <path d="M125.691,402.878C124.949,404.739 123.565,406.005 121.948,407.067L112.371,398.98C113.174,397.282 114.273,395.814 115.634,394.551L125.691,402.878Z" style="fill:rgb(85,51,51);fill-rule:nonzero;"/>
    </g>
    <g transform="matrix(4.16667,0,0,4.16667,-131.568,-296.017)">
        <path d="M117.306,286.889C117.306,286.889 130.026,318.163 146.558,342.55C146.558,342.55 149.026,366.284 153.249,378.919C155.098,384.451 158.678,410.662 158.678,410.662L171.219,410.092L167.983,337.215L154.717,284.431L117.306,286.889Z" style="fill:rgb(85,51,51);fill-rule:nonzero;"/>
    </g>
    <g transform="matrix(4.16667,0,0,4.16667,-131.568,-296.017)">
        <path d="M172.386,409.661C173.181,411.842 172.962,414.003 172.386,416.17L157.872,416.575C157.255,414.488 157.072,412.373 157.271,410.23L172.386,409.661Z" style="fill:rgb(131,79,79);fill-rule:nonzero;"/>
    </g>
    <g transform="matrix(4.16667,0,0,4.16667,-131.568,-296.017)">
        <path d="M175.728,174.241C177.619,176.6 181.411,200.638 182.006,225.04C182.021,225.604 182.033,226.164 182.049,226.725C182.11,229.307 182.165,231.902 182.217,234.497C182.269,237.058 182.315,239.613 182.358,242.15C182.425,246.301 182.487,250.388 182.536,254.325C182.542,254.772 182.545,255.216 182.551,255.66C182.597,259.499 182.634,263.179 182.661,266.616C182.664,267.066 182.667,267.511 182.67,267.951C182.71,273.11 182.735,277.679 182.738,281.346L182.738,281.349C182.741,281.863 182.741,282.351 182.741,282.829C182.741,285.393 182.735,287.427 182.716,288.8C176.641,290.436 170.569,291.621 164.497,292.348C164.338,292.365 164.175,292.387 164.013,292.405C163.74,292.439 163.474,292.47 163.204,292.5C163.137,292.507 163.072,292.513 163.002,292.519C161.948,292.635 160.9,292.736 159.844,292.822C154.623,293.251 149.403,293.346 144.182,293.104C143.723,293.083 143.27,293.059 142.81,293.03C142.402,293.009 141.989,292.984 141.575,292.954C141.391,292.944 141.205,292.933 141.018,292.917C140.668,292.893 140.325,292.865 139.976,292.841C132.305,292.219 124.633,290.877 116.965,288.8C116.925,285.779 116.889,279.624 116.876,271.687C116.876,271.251 116.873,270.81 116.876,270.362C116.867,261.606 116.901,250.86 117.005,239.794C117.014,238.918 117.023,238.045 117.036,237.166C117.045,236.151 117.054,235.131 117.066,234.108C117.069,233.936 117.069,233.762 117.072,233.59C117.079,233.351 117.082,233.112 117.084,232.87C117.087,232.389 117.094,231.905 117.103,231.427C117.112,230.726 117.121,230.027 117.134,229.332C117.14,228.802 117.149,228.271 117.155,227.742C117.17,226.688 117.189,225.634 117.204,224.586C117.575,202.617 118.316,182.428 119.729,177.29C119.86,176.815 119.998,176.469 120.136,176.264C120.286,176.034 120.473,175.804 120.681,175.565C120.945,175.265 121.251,174.956 121.594,174.643C123.947,172.477 128.028,169.962 132.167,167.575C132.647,167.296 133.135,167.021 133.613,166.745C133.686,166.706 144.859,162.937 144.93,162.894L156.618,163.712C156.618,163.712 172.949,170.775 175.728,174.241Z" style="fill:rgb(212,0,0);fill-rule:nonzero;"/>
    </g>
    <g transform="matrix(4.16667,0,0,4.16667,-131.568,-296.017)">
        <path d="M128.573,205.893C128.573,205.312 127.833,205.058 127.482,205.521C122.786,211.708 119.952,218.452 118.276,223.784C117.847,225.153 117.477,226.479 117.155,227.742C117.149,228.271 117.14,228.802 117.134,229.332C117.121,230.027 117.112,230.726 117.103,231.427C117.094,231.905 117.087,232.389 117.084,232.87C117.082,233.112 117.079,233.351 117.072,233.59C117.069,233.762 117.069,233.936 117.066,234.108C117.507,231.437 118.24,227.95 119.443,224.114C121.085,218.897 123.863,212.3 128.45,206.257C128.529,206.152 128.573,206.024 128.573,205.893Z" style="fill:rgb(185,35,35);fill-rule:nonzero;"/>
    </g>
    <g transform="matrix(4.16667,0,0,4.16667,-131.568,-296.017)">
        <path d="M130.951,269.656L130.953,269.656C143.575,269.601 154.347,263.857 161.162,259.05C168.531,253.85 172.998,248.581 173.042,248.528C173.258,248.271 173.225,247.888 172.968,247.672C172.711,247.457 172.329,247.49 172.113,247.746C172.07,247.798 167.684,252.967 160.434,258.076C153.768,262.775 143.241,268.388 130.948,268.441C130.613,268.442 130.341,268.716 130.343,269.051C130.345,269.386 130.617,269.656 130.951,269.656Z" style="fill:rgb(185,35,35);fill-rule:nonzero;"/>
    </g>
    <g transform="matrix(4.16667,0,0,4.16667,-131.568,-296.017)">
        <path d="M144.104,273.944C155.056,273.944 165.977,267.703 166.473,267.416C166.764,267.248 166.863,266.877 166.695,266.586C166.527,266.296 166.155,266.197 165.865,266.364C165.736,266.438 152.886,273.777 141.493,272.599C141.154,272.561 140.86,272.807 140.826,273.14C140.791,273.474 141.034,273.772 141.367,273.807C142.276,273.9 143.19,273.944 144.104,273.944Z" style="fill:rgb(185,35,35);fill-rule:nonzero;"/>
    </g>
    <g transform="matrix(4.16667,0,0,4.16667,-131.568,-296.017)">
        <path d="M140.967,182.912C151.521,179.986 160.377,171.055 160.779,170.646C161.014,170.406 161.01,170.021 160.771,169.787C160.532,169.552 160.147,169.556 159.912,169.794C159.808,169.9 149.385,180.405 138.09,182.313C137.754,182.366 137.537,182.682 137.593,183.012C137.648,183.343 137.962,183.566 138.292,183.51C139.193,183.358 140.086,183.156 140.967,182.912Z" style="fill:rgb(185,35,35);fill-rule:nonzero;"/>
    </g>
    <g transform="matrix(4.16667,0,0,4.16667,-131.568,-296.017)">
        <path d="M132.134,133.649C132.134,144.32 138.704,151.674 149.375,151.674C160.045,151.674 167.481,143.767 167.481,133.097C167.481,122.426 161.163,114.342 150.492,114.342C137.695,114.342 132.134,122.979 132.134,133.649Z" style="fill:rgb(56,51,85);fill-rule:nonzero;"/>
    </g>
    <g transform="matrix(4.16667,0,0,4.16667,-131.568,-296.017)">
        <path d="M132.377,136.479C132.377,136.479 128.647,130.84 130.621,126.493C132.662,121.994 131.626,122.979 132.134,119.6C132.642,116.221 135.104,114.829 138.051,114.342C140.999,113.854 138.979,110.462 143.065,109.244C147.15,108.025 150.424,112.291 153.051,110.379C155.678,108.468 162.131,107.528 163.944,110.379C165.756,113.23 167.369,113.212 169.301,113.12C171.626,113.009 174.744,116.677 172.64,120.054C170.536,123.432 166.992,122.091 167.481,124.416C167.972,126.742 170.968,130.84 166.951,136.047C165.734,137.623 132.377,136.479 132.377,136.479Z" style="fill:rgb(56,51,85);fill-rule:nonzero;"/>
    </g>
    <g transform="matrix(4.16667,0,0,4.16667,-131.568,-296.017)">
        <path d="M134.532,138.244C134.532,138.244 131.567,134.291 129.362,137.56C127.158,140.828 130.274,150.482 135.672,148.126L134.532,138.244Z" style="fill:rgb(244,123,104);fill-rule:nonzero;"/>
    </g>
    <g transform="matrix(4.16667,0,0,4.16667,-131.568,-296.017)">
        <path d="M134.493,145.143C134.294,145.143 134.111,145.011 134.054,144.81C133.218,141.829 130.13,140.621 130.099,140.609C129.864,140.519 129.746,140.256 129.835,140.021C129.923,139.785 130.187,139.667 130.422,139.755C130.565,139.81 133.969,141.131 134.933,144.563C135,144.806 134.859,145.057 134.617,145.125C134.576,145.137 134.534,145.143 134.493,145.143Z" style="fill:rgb(204,84,77);fill-rule:nonzero;"/>
    </g>
    <g transform="matrix(4.16667,0,0,4.16667,-131.568,-296.017)">
        <path d="M131.376,143.641C131.292,143.641 131.207,143.618 131.13,143.568C130.918,143.432 130.856,143.15 130.994,142.938C131.016,142.903 131.563,142.069 132.705,141.558C132.934,141.455 133.205,141.558 133.308,141.788C133.411,142.018 133.308,142.288 133.078,142.391C132.194,142.786 131.765,143.426 131.761,143.432C131.673,143.567 131.526,143.641 131.376,143.641Z" style="fill:rgb(204,84,77);fill-rule:nonzero;"/>
    </g>
    <g transform="matrix(4.16667,0,0,4.16667,-131.568,-296.017)">
        <path d="M165.084,138.244C165.084,138.244 168.049,134.291 170.253,137.56C172.458,140.828 169.341,150.482 163.944,148.126L165.084,138.244Z" style="fill:rgb(244,123,104);fill-rule:nonzero;"/>
    </g>
    <g transform="matrix(4.16667,0,0,4.16667,-131.568,-296.017)">
        <path d="M165.123,145.143C165.322,145.143 165.504,145.011 165.562,144.81C166.397,141.829 169.486,140.621 169.517,140.609C169.751,140.519 169.87,140.256 169.781,140.021C169.692,139.785 169.429,139.667 169.193,139.755C169.049,139.81 165.646,141.131 164.683,144.563C164.615,144.806 164.756,145.057 164.999,145.125C165.04,145.137 165.082,145.143 165.123,145.143Z" style="fill:rgb(204,84,77);fill-rule:nonzero;"/>
    </g>
    <g transform="matrix(4.16667,0,0,4.16667,-131.568,-296.017)">
        <path d="M168.239,143.641C168.324,143.641 168.41,143.618 168.486,143.568C168.697,143.432 168.759,143.15 168.622,142.938C168.6,142.903 168.054,142.069 166.91,141.558C166.682,141.455 166.411,141.558 166.308,141.788C166.205,142.018 166.308,142.288 166.538,142.391C167.422,142.786 167.852,143.426 167.855,143.432C167.942,143.567 168.089,143.641 168.239,143.641Z" style="fill:rgb(204,84,77);fill-rule:nonzero;"/>
    </g>
    <g transform="matrix(4.16667,0,0,4.16667,-131.568,-296.017)">
        <path d="M157.106,156.314L157.106,166.472C157.106,166.472 155.521,168.839 152.339,169.216C147.888,169.743 143.065,165.039 143.065,165.039L143.065,156.989L157.106,156.314Z" style="fill:rgb(247,155,138);fill-rule:nonzero;"/>
    </g>
    <g transform="matrix(4.16667,0,0,4.16667,-131.568,-296.017)">
        <path d="M157.106,156.314L157.106,160.574C154.507,163.458 149.893,164.177 143.065,163.169L143.065,156.989L157.106,156.314Z" style="fill:rgb(244,123,104);fill-rule:nonzero;"/>
    </g>
    <g transform="matrix(4.16667,0,0,4.16667,-131.568,-296.017)">
        <path d="M132.958,138.063C132.997,138.619 133.043,139.182 133.099,139.75C133.243,141.181 133.436,142.649 133.697,144.112C133.707,144.165 133.714,144.213 133.724,144.259C135.013,151.339 137.911,158.298 144.157,160.53C158.307,165.582 163.359,153.45 165.381,146.376C165.604,145.591 165.806,144.717 165.983,143.785C165.989,143.749 165.996,143.709 166.006,143.667C166.202,142.62 166.372,141.504 166.516,140.356C166.624,139.505 166.716,138.642 166.798,137.771C167.003,135.658 167.138,133.538 167.226,131.656C167.432,127.357 164.857,123.402 160.83,121.857C155.026,119.626 146.215,117.859 137.865,122.594C134.78,124.341 132.847,127.58 132.778,131.123C132.742,133.08 132.771,135.481 132.958,138.063Z" style="fill:rgb(247,155,138);fill-rule:nonzero;"/>
    </g>
    <g transform="matrix(4.16667,0,0,4.16667,-131.568,-296.017)">
        <path d="M149.513,149.255C156.937,148.238 158.782,150.135 159.128,152.334C157.117,154.451 154.869,155.671 152.804,156.136C150.256,156.715 145.096,156.663 141.33,153.695C140.951,151.984 140.522,146.991 149.513,149.255ZM132.958,138.063C132.997,138.619 133.043,139.182 133.099,139.75C133.243,141.181 133.436,142.649 133.697,144.112C133.707,144.165 133.714,144.213 133.724,144.259C135.013,151.339 137.911,158.298 144.157,160.53C158.307,165.582 163.359,153.45 165.381,146.376C165.604,145.591 165.806,144.717 165.983,143.785C165.989,143.749 165.996,143.709 166.006,143.667C166.202,142.62 166.372,141.504 166.516,140.356C166.624,139.505 166.716,138.642 166.798,137.771L164.678,138.324C164.072,141.527 163.163,146.193 161.979,148.369C160.123,143.84 149.808,147.58 149.808,147.58C149.808,147.58 140.61,144.312 137.496,147.561C136.014,143.795 134.698,138.324 134.698,138.324L132.958,138.063Z" style="fill:rgb(56,51,85);fill-rule:nonzero;"/>
    </g>
    <g transform="matrix(4.16667,0,0,4.16667,-131.568,-296.017)">
        <path d="M144.998,138.808C144.998,139.833 144.47,140.663 143.818,140.663C143.167,140.663 142.638,139.833 142.638,138.808C142.638,137.783 143.167,136.952 143.818,136.952C144.47,136.952 144.998,137.783 144.998,138.808Z" style="fill:rgb(56,51,85);fill-rule:nonzero;"/>
    </g>
    <g transform="matrix(4.16667,0,0,4.16667,-131.568,-296.017)">
        <path d="M158.685,138.808C158.685,139.833 158.157,140.663 157.505,140.663C156.854,140.663 156.325,139.833 156.325,138.808C156.325,137.783 156.854,136.952 157.505,136.952C158.157,136.952 158.685,137.783 158.685,138.808Z" style="fill:rgb(56,51,85);fill-rule:nonzero;"/>
    </g>
    <g transform="matrix(4.16667,0,0,4.16667,-131.568,-296.017)">
        <path d="M160.845,132.44C160.845,132.44 157.123,130.969 154.256,132.207L154.543,133.801C154.543,133.801 158.75,133.445 160.869,134.304C161.059,133.691 161.087,133.071 160.845,132.44Z" style="fill:rgb(56,51,85);fill-rule:nonzero;"/>
    </g>
    <g transform="matrix(4.16667,0,0,4.16667,-131.568,-296.017)">
        <path d="M139.157,132.44C139.157,132.44 142.879,130.969 145.746,132.207L145.459,133.801C145.459,133.801 141.252,133.445 139.133,134.304C138.943,133.691 138.915,133.071 139.157,132.44Z" style="fill:rgb(56,51,85);fill-rule:nonzero;"/>
    </g>
    <g transform="matrix(4.16667,0,0,4.16667,-131.568,-296.017)">
        <path d="M150.271,146.853C149.507,146.946 148.713,146.742 148.59,146.708C148.347,146.642 148.204,146.392 148.27,146.148C148.336,145.906 148.587,145.762 148.83,145.828C149.259,145.944 150.272,146.084 150.667,145.778C150.742,145.719 150.843,145.607 150.837,145.329C150.808,143.728 149.727,138.482 149.716,138.429C149.665,138.182 149.824,137.941 150.07,137.89C150.318,137.838 150.558,137.998 150.609,138.244C150.655,138.463 151.719,143.627 151.75,145.313C151.761,145.946 151.472,146.307 151.227,146.498C150.958,146.707 150.617,146.811 150.271,146.853Z" style="fill:rgb(244,123,104);fill-rule:nonzero;"/>
    </g>
    <g transform="matrix(4.16667,0,0,4.16667,-131.568,-296.017)">
        <path d="M144.035,149.589C144.408,151.465 145.646,154.915 149.82,154.915C154.004,154.915 155.178,151.762 155.581,149.589L144.035,149.589Z" style="fill:white;fill-rule:nonzero;"/>
    </g>
    <g transform="matrix(4.16667,0,0,4.16667,-131.568,-296.017)">
        <path d="M166.745,138.325L164.678,138.325C164.907,136.25 164.152,133.742 163.53,132.071C162.118,128.282 165.124,126.61 162.692,124.713C160.261,122.811 154.21,123.626 150.002,123.49C145.769,123.353 138.963,123.413 137.313,123.796C135.657,124.174 136.564,126.923 137.171,129.053C137.782,131.178 135.141,133.532 134.699,135.735C134.572,136.368 134.598,137.307 134.7,138.325L132.977,138.325C132.772,135.644 132.741,133.147 132.779,131.124C132.847,127.58 134.781,124.342 137.864,122.595C146.215,117.861 155.027,119.626 160.829,121.856C164.856,123.402 167.433,127.357 167.228,131.658C167.13,133.702 166.979,136.027 166.745,138.325Z" style="fill:rgb(56,51,85);fill-rule:nonzero;"/>
    </g>
    <g transform="matrix(4.16667,0,0,4.16667,-131.568,-296.017)">
        <path d="M188.79,147.111L250.543,198.124L176.694,287.521L114.94,236.509L188.79,147.111Z" style="fill:rgb(249,46,46);fill-rule:nonzero;"/>
    </g>
    <g transform="matrix(4.16667,0,0,4.16667,-131.568,-296.017)">
        <path d="M188.791,147.115L192.75,150.386L195.443,227.808L118.902,239.781L114.943,236.511L191.617,224.652L188.791,147.115Z" style="fill:rgb(180,107,107);fill-rule:nonzero;"/>
    </g>
    <g transform="matrix(4.16667,0,0,4.16667,-131.568,-296.017)">
        <path d="M176.709,226.822L178.833,284.933L176.694,287.521L175.12,286.222L172.955,226.96L176.709,226.822Z" style="fill:rgb(180,107,107);fill-rule:nonzero;"/>
    </g>
    <g transform="matrix(4.16667,0,0,4.16667,-131.568,-296.017)">
        <path d="M249.178,196.996L250.543,198.124L248.211,200.947L190.745,209.832L190.172,206.119L249.178,196.996Z" style="fill:rgb(185,101,101);fill-rule:nonzero;"/>
    </g>
    <g transform="matrix(4.16667,0,0,4.16667,-131.568,-296.017)">
        <path d="M114.938,236.511L191.618,224.652L188.788,147.113L114.938,236.511Z" style="fill:rgb(242,83,83);fill-rule:nonzero;"/>
    </g>
    <g transform="matrix(4.16667,0,0,4.16667,-131.568,-296.017)">
        <path d="M175.639,259.051L177.77,259.051C179.674,259.051 181.121,257.931 181.976,256.229C182.353,255.477 182.866,254.101 183.221,253.628C184.217,252.3 186.935,250.07 187.953,250.002C188.971,249.935 188.783,251.829 188.063,252.659C187.344,253.489 186.209,254.546 185.601,255.72C184.992,256.893 190.582,259.272 192.851,259.826C195.12,260.379 199.104,259.162 199.492,261.043C199.879,262.925 196.891,263.202 196.891,263.202C196.891,263.202 197.766,264.896 195.286,266.301C195.286,266.301 195.729,267.961 194.124,268.847C194.124,268.847 194.306,270.95 192.444,271.503C190.582,272.057 184.771,273.742 173.37,266.824L175.639,259.051Z" style="fill:rgb(247,155,138);fill-rule:nonzero;"/>
    </g>
    <g transform="matrix(4.16667,0,0,4.16667,-131.568,-296.017)">
        <path d="M136.519,210.651C140.823,226.917 145.045,234.108 145.045,234.108C145.045,234.108 149.875,241.487 159.799,248.469C166.693,253.319 177.77,259.051 177.77,259.051C175.859,261.537 174.51,266.446 175.248,267.915C152.219,267.915 132.079,246.098 132.079,246.098C115.966,218.057 114.915,195.22 115.179,186.9C115.272,183.971 116.125,181.102 117.738,178.655C118.571,177.391 119.613,176.223 120.836,175.648C120.836,175.648 127.744,178.222 130.144,186.327C132.544,194.431 136.519,210.651 136.519,210.651Z" style="fill:rgb(185,35,35);fill-rule:nonzero;"/>
    </g>
    <g transform="matrix(4.16667,0,0,4.16667,-131.568,-296.017)">
        <path d="M239.072,212.088C239.072,212.088 233.949,210.277 231.596,211.257C229.242,212.237 235.765,215.77 235.765,215.77C235.765,215.77 227.856,211.561 226.491,213.257C225.125,214.954 232.69,219.262 232.69,219.262C232.69,219.262 226.898,217.226 225.722,218.422C224.545,219.618 229.945,222.994 229.945,222.994C229.945,222.994 225.191,221.846 224.199,222.653C223.207,223.461 227.421,226.847 230.097,227.743C232.771,228.639 233.203,224.873 233.203,224.873C233.203,224.873 235.719,222.657 235.384,221.119C235.384,221.119 237.995,219.359 238.179,217.559C238.179,217.559 241.863,214.315 239.072,212.088Z" style="fill:rgb(247,155,138);fill-rule:nonzero;"/>
    </g>
</svg>
