<svg width="784" height="605" viewBox="0 0 784 605" fill="none" xmlns="http://www.w3.org/2000/svg">
    <g clip-path="url(#clip0)" filter="url(#filter0_d)">
    <path d="M47.7789 351.917H84.262C93.1135 351.917 101.065 345.62 102.225 336.841C102.546 334.415 102.293 332.043 101.051 330.035C91.8981 315.244 78.3516 334.778 73.825 330.035C72.2763 328.412 79.0145 310.841 63.7176 310.61C48.2138 310.374 48.2489 325.661 54.3347 337.838C57.6126 344.395 44.729 335.311 40.404 338.696C38.2416 340.388 37.8592 342.855 38.5502 345.316C39.6797 349.333 43.61 351.917 47.7789 351.917Z" fill="#7D0000"/>
    <path d="M51.0431 362.612C52.743 362.612 54.1211 361.233 54.1211 359.532C54.1211 357.832 52.743 356.453 51.0431 356.453C49.3431 356.453 47.9651 357.832 47.9651 359.532C47.9651 361.233 49.3431 362.612 51.0431 362.612Z" fill="#7D0000"/>
    <path d="M42.9858 328.273C42.9858 330.958 40.811 333.133 38.1276 333.133C35.4443 333.133 33.2695 330.958 33.2695 328.273C33.2695 325.588 35.4443 323.413 38.1276 323.413C40.811 323.413 42.9858 325.588 42.9858 328.273Z" fill="#7D0000"/>
    <path d="M595.727 224.203H632.21C641.062 224.203 649.014 217.906 650.173 209.128C650.494 206.701 650.242 204.329 649 202.321C639.847 187.53 626.3 207.064 621.773 202.321C620.225 200.698 626.963 183.127 611.666 182.896C596.162 182.661 596.197 197.947 602.283 210.124C605.561 216.681 592.677 207.598 588.353 210.982C586.19 212.674 585.808 215.141 586.499 217.603C587.628 221.619 591.559 224.203 595.727 224.203Z" fill="#7D0000"/>
    <path d="M598.991 234.898C600.691 234.898 602.069 233.519 602.069 231.819C602.069 230.118 600.691 228.739 598.991 228.739C597.291 228.739 595.913 230.118 595.913 231.819C595.913 233.519 597.291 234.898 598.991 234.898Z" fill="#7D0000"/>
    <path d="M590.934 200.56C590.934 203.244 588.759 205.42 586.076 205.42C583.393 205.42 581.218 203.244 581.218 200.56C581.218 197.875 583.393 195.699 586.076 195.699C588.759 195.699 590.934 197.875 590.934 200.56Z" fill="#7D0000"/>
    <path d="M533.053 525.471C504.49 406.533 567.154 398.748 581.765 424.023C594.402 445.884 614.013 436.966 621.426 433.033C664.334 410.281 690.978 388.529 719.402 409.463C741.928 426.053 722.454 472.723 726.26 497.976C727.896 508.834 736.016 517.597 736.016 517.597C736.016 517.597 729.499 495.042 732.943 490.433C736.388 485.824 738.101 495.625 741.721 495.158C745.341 494.692 741.271 481.083 748.959 482.821C761.166 485.583 752.071 508.839 754.605 508.425C757.139 508.009 768.383 493.669 772.485 496.732C787.375 507.851 750.113 525.912 750.113 525.912L533.053 525.471Z" fill="#F7B2B2"/>
    <path d="M733.857 483.002C733.857 483.002 732.961 476.05 738.933 471.769C744.904 467.487 751.716 471.235 749.677 473.007C747.635 474.781 742.084 473.502 740.104 477.655C738.124 481.807 736.36 487.916 733.857 483.002Z" fill="#F7B2B2"/>
    <path d="M757.534 496.233C757.534 496.233 757.408 489.225 763.814 485.628C770.221 482.031 776.578 486.505 774.356 488.042C772.133 489.579 766.755 487.698 764.33 491.607C761.906 495.515 759.481 501.393 757.534 496.233Z" fill="#F7B2B2"/>
    <path d="M707.846 528.629H569.487V442.061C569.487 441.642 569.827 441.302 570.246 441.302H707.087C707.506 441.302 707.846 441.642 707.846 442.061V528.629Z" fill="white"/>
    <path d="M704.133 450.175H573.494V524.879H704.133V450.175Z" fill="#FF0000"/>
    <path d="M677.605 465.024H596.168C595.601 465.024 595.142 464.565 595.142 463.998C595.142 463.43 595.601 462.972 596.168 462.972H677.605C678.171 462.972 678.631 463.431 678.631 463.998C678.631 464.565 678.171 465.024 677.605 465.024Z" fill="#D30000"/>
    <path d="M677.605 474.234H596.168C595.601 474.234 595.142 473.775 595.142 473.208C595.142 472.641 595.601 472.182 596.168 472.182H677.605C678.171 472.182 678.631 472.641 678.631 473.208C678.631 473.775 678.171 474.234 677.605 474.234Z" fill="#D30000"/>
    <path d="M677.605 483.443H596.168C595.601 483.443 595.142 482.983 595.142 482.417C595.142 481.85 595.601 481.39 596.168 481.39H677.605C678.171 481.39 678.631 481.85 678.631 482.417C678.631 482.983 678.171 483.443 677.605 483.443Z" fill="#D30000"/>
    <path d="M677.605 492.655H596.168C595.601 492.655 595.142 492.195 595.142 491.629C595.142 491.062 595.601 490.602 596.168 490.602H677.605C678.171 490.602 678.631 491.062 678.631 491.629C678.631 492.195 678.171 492.655 677.605 492.655Z" fill="#D30000"/>
    <path d="M677.605 501.865H596.168C595.601 501.865 595.142 501.405 595.142 500.838C595.142 500.27 595.601 499.812 596.168 499.812H677.605C678.171 499.812 678.631 500.272 678.631 500.838C678.631 501.405 678.171 501.865 677.605 501.865Z" fill="#D30000"/>
    <path d="M677.605 511.073H596.168C595.601 511.073 595.142 510.614 595.142 510.047C595.142 509.478 595.601 509.021 596.168 509.021H677.605C678.171 509.021 678.631 509.48 678.631 510.047C678.631 510.614 678.171 511.073 677.605 511.073Z" fill="#D30000"/>
    <path d="M732.082 524.508H569.487V528.628H732.082V524.508Z" fill="#D7FFF7"/>
    <path d="M732.082 528.628H615.479V535.193H732.082V528.628Z" fill="#A00000"/>
    <path d="M615.479 528.628H569.487V535.193H615.479V528.628Z" fill="#770000"/>
    <path d="M746.327 526.377C746.195 526.377 746.064 526.319 745.973 526.208C745.859 526.071 743.18 522.695 743.992 510.938C744.904 497.715 749.577 487.034 749.624 486.927C749.728 486.694 750 486.592 750.235 486.692C750.468 486.796 750.571 487.068 750.47 487.303C750.422 487.408 745.815 497.946 744.913 511.003C744.134 522.294 746.66 525.591 746.686 525.62C746.846 525.819 746.816 526.11 746.62 526.271C746.532 526.34 746.43 526.377 746.327 526.377Z" fill="#D89898"/>
    <path d="M745.148 523.376C745.087 523.376 745.025 523.364 744.968 523.338C744.841 523.285 744.743 523.176 744.706 523.045L736.093 494.088C736.02 493.844 736.158 493.586 736.404 493.514C736.647 493.435 736.905 493.581 736.977 493.825L745.431 522.241C747.093 521.353 752.718 518.26 758.76 513.987C765.899 508.941 772.527 499.948 772.594 499.859C772.744 499.652 773.037 499.608 773.237 499.759C773.442 499.908 773.488 500.198 773.337 500.405C773.271 500.496 766.555 509.608 759.293 514.742C752.062 519.855 745.425 523.29 745.359 523.326C745.294 523.359 745.22 523.376 745.148 523.376Z" fill="#D89898"/>
    <path d="M712.613 512.282C712.434 512.282 712.246 512.182 712.157 512.035C712.04 511.84 712.082 511.594 712.245 511.45C712.794 508.478 712.678 472.945 707.278 448.015C701.688 422.222 686.286 412.506 686.132 412.41C685.916 412.276 685.846 411.992 685.981 411.774C686.113 411.553 686.398 411.485 686.616 411.622C686.774 411.718 702.504 421.614 708.181 447.818C713.25 471.206 714.307 511.638 712.769 512.252C712.72 512.273 712.666 512.282 712.613 512.282ZM712.59 511.826H712.602H712.59Z" fill="#D89898"/>
    <path d="M704.812 438.494C704.119 438.494 700.803 438.108 687.505 432.942C672.577 427.141 663.31 420.242 663.217 420.174C663.013 420.021 662.971 419.73 663.125 419.526C663.283 419.323 663.571 419.284 663.774 419.433C663.864 419.502 673.04 426.327 687.842 432.079C702.258 437.681 704.745 437.606 704.837 437.567C705.045 437.562 705.31 437.73 705.336 437.978C705.363 438.225 705.2 438.45 704.954 438.485C704.93 438.488 704.886 438.494 704.812 438.494Z" fill="#D89898"/>
    <path d="M709.44 457.695C709.312 457.695 709.184 457.642 709.093 457.537C708.923 457.346 708.944 457.053 709.135 456.884C709.225 456.805 718.167 448.876 723.6 438.577C727.999 430.24 725.119 419.346 725.089 419.235C725.023 418.989 725.167 418.735 725.414 418.668C725.658 418.603 725.914 418.747 725.98 418.993C726.105 419.451 728.986 430.344 724.414 439.008C718.902 449.461 709.835 457.499 709.744 457.577C709.658 457.658 709.549 457.695 709.44 457.695Z" fill="#D89898"/>
    <path d="M707.141 445.862C707.071 445.862 707.001 445.846 706.934 445.813C706.706 445.697 706.615 445.42 706.729 445.192C706.769 445.113 710.734 437.119 712.094 425.37C713.192 415.875 709.102 409.785 709.061 409.725C708.918 409.515 708.972 409.227 709.181 409.083C709.389 408.944 709.677 408.994 709.823 409.202C710 409.46 714.147 415.642 713.011 425.475C711.632 437.396 707.595 445.525 707.555 445.608C707.472 445.767 707.308 445.862 707.141 445.862Z" fill="#D89898"/>
    <path d="M303.009 236.926C303.009 236.926 294.82 158.085 305.745 155.558C316.671 153.031 317.386 196.183 330.612 196.955C343.838 197.727 365.261 182.9 381.612 196.717C394.267 207.411 390.149 221.178 398.769 226.409C407.389 231.637 418.945 192.695 429.253 198.21C436.401 202.035 423.644 210.773 428.837 219.229C432.127 224.587 436.652 212.507 450.046 212.507C469.813 212.507 469.228 234.983 456.91 239.277C444.593 243.571 433.146 241.82 429.253 250.802C422.777 265.742 449.713 259.987 462.046 263.861C521.593 282.573 492.324 360.772 518.166 359.31C545.852 357.745 355.35 368.782 355.35 368.782L303.009 236.926Z" fill="#F7B2B2"/>
    <path d="M374.184 297.543C374.13 297.543 374.074 297.534 374.019 297.516C373.744 297.425 373.593 297.127 373.686 296.851C373.8 296.506 385.368 262.039 406.03 244.098C426.718 226.136 456.444 224.108 456.742 224.088C457.081 224.053 457.282 224.292 457.3 224.581C457.317 224.873 457.098 225.122 456.809 225.139C456.514 225.159 427.134 227.17 406.721 244.893C386.279 262.643 374.798 296.837 374.684 297.181C374.61 297.402 374.405 297.543 374.184 297.543Z" fill="#98D8C9"/>
    <path d="M416.288 236.458C416.034 236.458 415.811 236.273 415.767 236.015C415.73 235.784 414.882 230.22 417.935 220.336C420.976 210.498 425.34 203.967 425.384 203.902C425.543 203.66 425.873 203.595 426.113 203.76C426.354 203.923 426.418 204.249 426.255 204.49C426.211 204.553 421.936 210.966 418.942 220.646C415.967 230.265 416.797 235.791 416.807 235.847C416.853 236.133 416.656 236.403 416.371 236.449C416.344 236.456 416.316 236.458 416.288 236.458Z" fill="#98D8C9"/>
    <path d="M447.945 371.761L447.191 371.028L447.564 371.398L447.038 371.394L447.031 371.224C446.843 366.506 446.316 341.867 454.443 320.303C463.361 296.641 483.337 287.301 483.539 287.21C483.793 287.091 484.112 287.203 484.235 287.47C484.356 287.735 484.239 288.047 483.974 288.168C483.777 288.258 464.184 297.433 455.428 320.673C447.371 342.05 447.896 366.501 448.083 371.184C448.094 371.459 448.101 371.598 447.945 371.761Z" fill="#98D8C9"/>
    <path d="M485.044 299.689C485.019 299.689 484.993 299.687 484.965 299.684L470.634 297.536C470.47 297.511 470.327 297.411 470.25 297.266C470.17 297.12 470.166 296.945 470.236 296.794L477.953 280.156C478.076 279.893 478.391 279.777 478.651 279.902C478.914 280.025 479.03 280.337 478.905 280.602L471.483 296.601L485.119 298.643C485.407 298.687 485.603 298.954 485.561 299.241C485.524 299.501 485.302 299.689 485.044 299.689Z" fill="#98D8C9"/>
    <path d="M482.171 311.848C482.165 311.848 482.157 311.848 482.15 311.848L459.776 310.962C459.489 310.95 459.262 310.71 459.271 310.422L459.755 292.481C459.764 292.191 459.994 291.972 460.295 291.968C460.585 291.977 460.815 292.217 460.808 292.509L460.338 309.931L482.192 310.796C482.481 310.808 482.707 311.054 482.697 311.343C482.685 311.626 482.451 311.848 482.171 311.848Z" fill="#98D8C9"/>
    <path d="M453.099 328.442C452.861 328.442 452.654 328.282 452.593 328.051L446.819 306.509C446.744 306.23 446.909 305.939 447.191 305.865C447.466 305.789 447.761 305.954 447.835 306.237L453.501 327.375L481.269 326.561C481.571 326.582 481.801 326.782 481.81 327.071C481.818 327.363 481.59 327.607 481.299 327.614L453.115 328.44C453.11 328.442 453.103 328.442 453.099 328.442Z" fill="#98D8C9"/>
    <path d="M196.188 540.321H148.73C148.73 540.321 76.5351 461.668 94.9818 435.467C113.429 409.267 134.161 439.724 142.681 436.359C151.201 432.993 93.114 372.26 132.598 334.639C164.977 303.787 248.019 342.592 248.019 342.592L266.275 539.858L196.188 540.321Z" fill="#F7B2B2"/>
    <path d="M116.968 397.869C116.968 397.869 125.612 412.123 121.477 413.846C117.343 415.57 103.814 400.329 107.571 394.977C111.329 389.625 116.968 397.869 116.968 397.869Z" fill="#F7B2B2"/>
    <path d="M420.967 386.181C420.967 386.181 425.441 342.734 480.636 350.205C491.301 351.649 491.894 353.318 500.633 347.021C523.14 330.804 544.689 359.463 532.144 392.955C519.084 427.825 525.234 417.419 537.09 421.877C548.946 426.336 524.185 477.164 524.185 477.164L420.967 386.181Z" fill="#A00000"/>
    <path d="M501.438 423.28C490.803 423.28 482.15 414.623 482.15 403.983C482.15 393.343 490.803 384.685 501.438 384.685C504.353 384.685 507.279 385.361 509.899 386.642C510.141 386.761 510.243 387.054 510.123 387.296L502.222 403.493H520.238C520.508 403.493 520.727 403.712 520.727 403.983C520.725 414.625 512.074 423.28 501.438 423.28ZM501.438 385.666C491.343 385.666 483.13 393.883 483.13 403.984C483.13 414.084 491.343 422.301 501.438 422.301C511.37 422.301 519.48 414.347 519.741 404.474H501.438C501.27 404.474 501.112 404.386 501.023 404.244C500.933 404.1 500.925 403.921 500.998 403.77L509.026 387.315C506.654 386.234 504.041 385.666 501.438 385.666Z" fill="white"/>
    <path d="M505.472 401.248L512.824 388.101C512.824 388.101 517.219 389.27 519.754 394.676C521.337 398.052 520.748 401.25 520.748 401.25H505.472V401.248Z" fill="white"/>
    <path d="M504.672 388.59C504.548 388.59 504.422 388.543 504.327 388.447C504.136 388.255 504.136 387.945 504.327 387.753L514.985 377.091C515.076 376.999 515.201 376.947 515.33 376.947H524.957C525.227 376.947 525.446 377.166 525.446 377.436C525.446 377.707 525.227 377.926 524.957 377.926H515.532L505.018 388.445C504.923 388.543 504.797 388.59 504.672 388.59Z" fill="white"/>
    <path d="M531.05 374.963H515.899C515.629 374.963 515.409 374.743 515.409 374.473C515.409 374.203 515.629 373.983 515.899 373.983H531.05C531.32 373.983 531.54 374.203 531.54 374.473C531.54 374.743 531.32 374.963 531.05 374.963Z" fill="white"/>
    <path d="M531.05 371.998H515.899C515.629 371.998 515.409 371.778 515.409 371.508C515.409 371.238 515.629 371.019 515.899 371.019H531.05C531.32 371.019 531.54 371.238 531.54 371.508C531.54 371.778 531.32 371.998 531.05 371.998Z" fill="white"/>
    <path d="M531.05 369.032H515.899C515.629 369.032 515.409 368.812 515.409 368.542C515.409 368.272 515.629 368.053 515.899 368.053H531.05C531.32 368.053 531.54 368.272 531.54 368.542C531.54 368.812 531.32 369.032 531.05 369.032Z" fill="white"/>
    <path d="M531.05 366.065H515.899C515.629 366.065 515.409 365.846 515.409 365.576C515.409 365.305 515.629 365.086 515.899 365.086H531.05C531.32 365.086 531.54 365.305 531.54 365.576C531.54 365.846 531.32 366.065 531.05 366.065Z" fill="white"/>
    <path d="M496.345 374.108C496.242 374.108 496.135 374.075 496.047 374.006C495.833 373.841 495.795 373.534 495.96 373.32L500.26 367.749C500.346 367.637 500.476 367.568 500.616 367.56C500.756 367.554 500.893 367.603 500.993 367.702L505.714 372.434L509.415 367.744C509.51 367.623 509.655 367.554 509.813 367.558C509.967 367.561 510.111 367.638 510.201 367.767L513.4 372.316C513.556 372.537 513.503 372.843 513.28 372.999C513.059 373.155 512.754 373.102 512.598 372.88L509.776 368.868L506.142 373.474C506.055 373.585 505.927 373.652 505.786 373.66C505.646 373.666 505.509 373.617 505.411 373.518L500.693 368.791L496.733 373.92C496.637 374.041 496.491 374.108 496.345 374.108Z" fill="white"/>
    <path d="M510.096 373.976C509.96 373.976 509.825 373.92 509.729 373.811L505.529 369.067L501.514 373.287C501.337 373.473 501.047 373.49 500.848 373.327L496.035 369.356C495.826 369.184 495.796 368.876 495.968 368.667C496.14 368.458 496.449 368.428 496.658 368.6L501.119 372.281L505.188 368.005C505.283 367.905 505.409 367.849 505.551 367.853C505.688 367.854 505.818 367.914 505.909 368.018L510.462 373.162C510.641 373.366 510.622 373.675 510.42 373.854C510.327 373.936 510.211 373.976 510.096 373.976Z" fill="white"/>
    <path d="M520.575 388.738C519.165 388.738 518.019 387.59 518.019 386.181C518.019 384.772 519.166 383.625 520.575 383.625C521.983 383.625 523.13 384.772 523.13 386.181C523.13 387.59 521.985 388.738 520.575 388.738ZM520.575 384.602C519.705 384.602 518.998 385.309 518.998 386.18C518.998 387.05 519.705 387.757 520.575 387.757C521.445 387.757 522.151 387.05 522.151 386.18C522.151 385.311 521.445 384.602 520.575 384.602Z" fill="white"/>
    <path d="M522.709 382.632H518.24C517.97 382.632 517.751 382.413 517.751 382.143C517.751 381.873 517.97 381.653 518.24 381.653H522.709C522.979 381.653 523.198 381.873 523.198 382.143C523.198 382.413 522.979 382.632 522.709 382.632Z" fill="white"/>
    <path d="M511.437 407.626H500.765C500.495 407.626 500.276 407.406 500.276 407.136C500.276 406.866 500.495 406.646 500.765 406.646H511.437C511.707 406.646 511.926 406.866 511.926 407.136C511.926 407.406 511.709 407.626 511.437 407.626Z" fill="white"/>
    <path d="M518.509 346.727H515.899V361.954H518.509V346.727Z" fill="white"/>
    <path d="M513 354.341H510.553V361.954H513V354.341Z" fill="white"/>
    <path d="M523.931 354.341H521.485V361.954H523.931V354.341Z" fill="white"/>
    <path d="M507.817 350.205H505.208V361.954H507.817V350.205Z" fill="white"/>
    <path d="M502.472 354.341H499.862V361.954H502.472V354.341Z" fill="white"/>
    <path d="M509.045 348.587C509.045 348.587 514.341 324.893 508.11 318.299C501.901 311.729 498.453 319.45 500.295 328.121C502.093 336.601 509.045 348.587 509.045 348.587Z" fill="#A00000"/>
    <path d="M511.563 345.557C511.563 345.557 521.627 338.525 520.545 334C519.468 329.49 515.322 331.208 513.543 335.042C511.803 338.79 511.563 345.557 511.563 345.557Z" fill="#A00000"/>
    <path d="M315.198 161.753L261.171 74.5176H248.015L213.667 171.937L224.46 171.874L275.601 252.47L297.612 548.127V161.816L315.198 161.753Z" fill="url(#paint0_linear)"/>
    <path d="M366.02 227.366H297.612L275.594 236.141V548.126H366.02V227.366Z" fill="#640000"/>
    <path d="M499.169 371.396H432.358L432.783 548.127H499.595L499.169 371.396Z" fill="#640000"/>
    <path d="M564.916 437.784H498.152V548.126H564.916V437.784Z" fill="#640000"/>
    <path d="M432.785 297.016H366.02V548.126H432.785V297.016Z" fill="#640000"/>
    <path d="M352.863 236.897H284.46V548.128H352.863V236.897Z" fill="#D30000"/>
    <path d="M301.83 154.717L248.016 74.5176L190.559 155.277L211.305 155.214V548.127H284.455V154.782L301.83 154.717Z" fill="url(#paint1_linear)"/>
    <path d="M248.254 116.86C232.331 116.86 214.39 115.516 213.241 110.438C212.874 108.822 213.234 107.39 214.305 106.181C217.685 102.372 227.261 102.268 227.668 102.265L227.68 103.953C227.589 103.953 218.574 104.053 215.744 107.243C215.028 108.05 214.802 108.983 215.054 110.096C215.268 111.038 217.646 114.179 239.283 115.007C251.815 115.486 265.686 114.928 271.35 114.135C278.548 113.128 283.561 111.131 285.104 108.661C285.679 107.739 285.739 106.795 285.288 105.776C283.636 102.046 276.71 102.019 276.61 102.018L276.605 100.33C276.924 100.331 284.886 100.358 287.007 105.144C287.665 106.63 287.565 108.136 286.716 109.496C284.864 112.461 279.507 114.702 271.633 115.804C268.197 116.286 258.656 116.86 248.254 116.86Z" fill="url(#paint2_linear)"/>
    <path d="M254.724 98.2562C241.863 98.2562 230.1 95.4962 229.329 91.5254C229.12 90.4481 229.381 89.4585 230.109 88.5829C232.371 85.8579 238.622 85.2578 238.889 85.2333L239.075 86.9142C237.491 87.0599 233.059 87.8284 231.586 89.6023C231.177 90.0936 231.037 90.6271 231.154 91.2307C231.833 94.7277 249.578 98.2685 266.547 95.7278C271.177 95.033 274.374 93.7872 275.552 92.2185C276.028 91.5851 276.172 90.9008 275.991 90.1252C274.821 85.0859 267.436 85.1877 267.369 85.1894L267.325 83.5014C270.437 83.4365 276.615 84.6595 277.803 89.776C278.088 91.0078 277.846 92.1501 277.08 93.1713C275.202 95.6752 270.479 96.8508 266.846 97.3947C262.902 97.9843 258.758 98.2562 254.724 98.2562Z" fill="url(#paint3_linear)"/>
    <path d="M486.438 378.396H419.627V548.126H486.438V378.396Z" fill="#D30000"/>
    <path d="M553.202 448.048H486.438V548.128H553.202V448.048Z" fill="#FF0000"/>
    <path d="M419.628 304.261H352.863V548.128H419.628V304.261Z" fill="#D30000"/>
    <mask id="mask0" mask-type="alpha" maskUnits="userSpaceOnUse" x="420" y="379" width="67" height="171">
    <path d="M486.438 379L420 549.015H486.438V379Z" fill="url(#paint4_linear)"/>
    </mask>
    <g mask="url(#mask0)">
    <path opacity="0.26" d="M486 378L420 548H486V378Z" fill="url(#paint5_linear)"/>
    </g>
    <mask id="mask1" mask-type="alpha" maskUnits="userSpaceOnUse" x="356" y="305" width="65" height="244">
    <path d="M420.043 305.036L356.5 548.151H420.043V305.036Z" fill="url(#paint6_linear)"/>
    </mask>
    <g mask="url(#mask1)">
    <path opacity="0.54" d="M420 305L357 548H420V305Z" fill="url(#paint7_linear)"/>
    </g>
    <mask id="mask2" mask-type="alpha" maskUnits="userSpaceOnUse" x="284" y="236" width="69" height="312">
    <path d="M352.863 236.897L284.5 548H352.863V236.897Z" fill="url(#paint8_linear)"/>
    </mask>
    <g mask="url(#mask2)">
    <path d="M353 237L285 548H353V237Z" fill="url(#paint9_linear)"/>
    </g>
    <mask id="mask3" mask-type="alpha" maskUnits="userSpaceOnUse" x="214" y="158" width="71" height="391">
    <path d="M284.365 158.543L214 548L284.365 549V158.543Z" fill="url(#paint10_linear)"/>
    </mask>
    <g mask="url(#mask3)">
    <path d="M284 158L214 548H284V158Z" fill="url(#paint11_linear)"/>
    </g>
    <mask id="mask4" mask-type="alpha" maskUnits="userSpaceOnUse" x="486" y="448" width="67" height="101">
    <path d="M553 448L486 548.419H553V448Z" fill="url(#paint12_linear)"/>
    </mask>
    <g mask="url(#mask4)">
    <path opacity="0.26" d="M553 449L486 549H553V449Z" fill="url(#paint13_linear)"/>
    </g>
    <path d="M330.393 228.906C330.016 228.906 329.662 228.694 329.523 228.354L281.501 109.131C281.324 108.692 281.572 108.208 282.052 108.046C282.531 107.885 283.064 108.11 283.241 108.548L331.263 227.771C331.44 228.21 331.193 228.694 330.712 228.855C330.607 228.889 330.5 228.906 330.393 228.906Z" fill="#DE5F12"/>
    <path d="M343.008 228.902C342.631 228.902 342.277 228.689 342.138 228.349L294.117 109.124C293.94 108.686 294.187 108.202 294.667 108.04C295.146 107.879 295.679 108.103 295.856 108.542L343.878 227.764C344.055 228.203 343.808 228.687 343.327 228.849C343.222 228.884 343.114 228.902 343.008 228.902Z" fill="#DE5F12"/>
    <path d="M299.228 120.205H286.656C286.144 120.205 285.73 119.828 285.73 119.361C285.73 118.894 286.144 118.517 286.656 118.517H299.228C299.74 118.517 300.154 118.894 300.154 119.361C300.154 119.826 299.738 120.205 299.228 120.205Z" fill="#DE5F12"/>
    <path d="M304.415 133.277H291.844C291.332 133.277 290.918 132.9 290.918 132.433C290.918 131.966 291.332 131.589 291.844 131.589H304.415C304.928 131.589 305.341 131.966 305.341 132.433C305.341 132.9 304.926 133.277 304.415 133.277Z" fill="#DE5F12"/>
    <path d="M309.603 146.351H297.477C296.965 146.351 296.551 145.974 296.551 145.507C296.551 145.04 296.965 144.663 297.477 144.663H309.603C310.115 144.663 310.529 145.04 310.529 145.507C310.529 145.972 310.114 146.351 309.603 146.351Z" fill="#DE5F12"/>
    <path d="M314.789 159.423H302.877C302.365 159.423 301.951 159.046 301.951 158.579C301.951 158.112 302.365 157.735 302.877 157.735H314.789C315.301 157.735 315.715 158.112 315.715 158.579C315.715 159.046 315.301 159.423 314.789 159.423Z" fill="#DE5F12"/>
    <path d="M319.977 172.497H307.674C307.162 172.497 306.748 172.12 306.748 171.653C306.748 171.186 307.162 170.809 307.674 170.809H319.977C320.489 170.809 320.903 171.186 320.903 171.653C320.903 172.118 320.489 172.497 319.977 172.497Z" fill="#DE5F12"/>
    <path d="M325.165 185.569H312.939C312.427 185.569 312.013 185.192 312.013 184.725C312.013 184.258 312.427 183.881 312.939 183.881H325.165C325.677 183.881 326.091 184.258 326.091 184.725C326.091 185.192 325.677 185.569 325.165 185.569Z" fill="#DE5F12"/>
    <path d="M330.353 198.642H318.206C317.693 198.642 317.28 198.265 317.28 197.798C317.28 197.331 317.693 196.954 318.206 196.954H330.353C330.865 196.954 331.279 197.331 331.279 197.798C331.279 198.263 330.865 198.642 330.353 198.642Z" fill="#DE5F12"/>
    <path d="M335.716 211.714H323.762C323.25 211.714 322.836 211.337 322.836 210.87C322.836 210.404 323.25 210.026 323.762 210.026H335.716C336.228 210.026 336.642 210.404 336.642 210.87C336.642 211.337 336.226 211.714 335.716 211.714Z" fill="#DE5F12"/>
    <path d="M268.092 85.3563C267.322 85.3493 249.191 85.0949 247.263 77.8991C246.18 73.8582 247.195 54.5396 247.239 53.7202L249.089 53.8027C248.724 60.6668 248.247 74.4548 249.063 77.4991C250.383 82.4243 263.26 83.621 268.111 83.6684L268.092 85.3563Z" fill="url(#paint14_linear)"/>
    <path d="M264.189 34.5111C264.189 26.7205 257.264 22.9287 248.719 22.9287C240.174 22.9287 233.249 26.7205 233.249 34.5111C233.249 35.1147 233.294 35.7078 233.375 36.2903C233.375 36.2991 233.375 36.3061 233.375 36.3149C233.454 37.7554 233.975 39.1468 234.722 40.5225C234.967 40.9962 235.239 41.456 235.539 41.8981C236.947 44.1055 238.759 46.2988 240.073 48.6166C242.474 52.8523 241.923 53.7612 241.923 53.7612H248.721H255.575C255.575 53.7612 254.966 52.8506 257.367 48.6166C259.768 44.3809 263.816 40.6629 264.049 36.4184C264.049 36.4114 264.049 36.4043 264.049 36.3973C264.139 35.7814 264.189 35.1515 264.189 34.5111Z" fill="url(#paint15_linear)"/>
    <path d="M255.615 52.5645C255.615 52.5645 252.932 53.7541 248.751 53.7611C244.57 53.7541 241.886 52.5645 241.886 52.5645C241.886 52.5645 239.74 54.0805 240.29 54.6841C240.841 55.2859 241.118 55.1859 241.118 55.1859C241.118 55.1859 240.731 61.2078 242.602 62.8133C244.338 64.3047 248.337 64.2381 248.903 64.2205C249.431 64.2381 253.162 64.303 254.898 62.8133C256.769 61.2078 256.382 55.1859 256.382 55.1859C256.382 55.1859 256.659 55.2859 257.21 54.6841C257.764 54.0805 255.615 52.5645 255.615 52.5645Z" fill="url(#paint16_linear)"/>
    <path d="M244.338 53.6653C244.333 53.5793 244.057 48.3435 243.449 43.72C242.973 43.7955 242.517 43.7955 242.102 43.7112C241.214 43.5323 240.553 42.9848 240.192 42.1303C238.861 38.9755 239.252 36.44 240.378 35.8996C240.669 35.7592 241.446 35.5627 242.344 36.7541C243.036 37.6735 243.573 40.1932 243.973 43.0147C244.674 42.7971 245.397 42.4058 246.035 41.8812C245.748 41.3372 245.546 40.7161 245.465 40.0756C245.273 38.5491 245.632 36.7611 246.472 36.5295C246.669 36.4751 246.865 36.5102 247.026 36.626C247.777 37.1629 247.668 39.6106 247.638 40.0967C247.593 40.8512 247.312 41.4864 246.802 41.9882C247.06 42.3812 247.367 42.7058 247.703 42.9234C247.951 43.0831 248.331 43.2568 248.74 43.1743L248.875 43.7235C248.377 43.827 247.849 43.7077 247.347 43.3831C246.972 43.141 246.632 42.7953 246.344 42.3847C245.625 42.9532 244.831 43.3638 244.055 43.5867C244.669 48.161 244.939 53.2881 244.959 53.6408L244.338 53.6653ZM240.856 36.354C240.792 36.354 240.728 36.3681 240.665 36.3979C240.001 36.7172 239.464 38.8386 240.769 41.9285C241.056 42.6093 241.549 43.0234 242.235 43.162C242.58 43.2322 242.968 43.2287 243.373 43.1585C242.987 40.3862 242.479 37.9279 241.835 37.0717C241.66 36.8383 241.248 36.354 240.856 36.354ZM246.639 37.0647C246.337 37.1541 245.881 38.4561 246.078 40.0107C246.141 40.5073 246.288 40.9986 246.495 41.4407C246.816 41.0547 246.988 40.5985 247.021 40.0651C247.125 38.3631 246.868 37.1699 246.639 37.0647Z" fill="black"/>
    <path d="M252.628 53.6653L252.011 53.639C252.028 53.2863 252.3 48.1593 252.914 43.5867C252.135 43.3638 251.339 42.9515 250.625 42.3847C250.339 42.7953 249.999 43.1392 249.624 43.3831C249.122 43.7077 248.594 43.8253 248.096 43.7235L248.231 43.1743C248.64 43.2568 249.02 43.0848 249.266 42.9234C249.603 42.7058 249.91 42.3795 250.167 41.9864C249.652 41.4741 249.375 40.8442 249.329 40.0967C249.299 39.6106 249.191 37.1629 249.941 36.626C250.103 36.5102 250.299 36.4751 250.497 36.5295C251.337 36.7611 251.697 38.5491 251.502 40.0756C251.421 40.7143 251.221 41.3355 250.934 41.8794C251.579 42.4058 252.3 42.7953 252.995 43.0129C253.396 40.1914 253.931 37.6735 254.624 36.7541C255.522 35.5627 256.297 35.7592 256.59 35.8996C257.716 36.44 258.107 38.9755 256.776 42.1303C256.414 42.9848 255.755 43.5323 254.866 43.7112C254.448 43.7955 253.992 43.7955 253.517 43.72C252.91 48.3435 252.633 53.5776 252.628 53.6653ZM253.593 43.1585C253.999 43.2287 254.385 43.2322 254.731 43.162C255.417 43.0234 255.911 42.6076 256.197 41.9285C257.5 38.8386 256.965 36.7172 256.3 36.3979C255.862 36.1908 255.338 36.7997 255.131 37.0717C254.487 37.9279 253.978 40.3862 253.593 43.1585ZM250.316 37.0682C250.097 37.1699 249.841 38.3631 249.945 40.0651C249.978 40.6038 250.153 41.0652 250.469 41.4425C250.678 41.0003 250.825 40.509 250.888 40.0107C251.085 38.4543 250.629 37.1541 250.316 37.0682Z" fill="black"/>
    <mask id="mask5" mask-type="alpha" maskUnits="userSpaceOnUse" x="235" y="23" width="24" height="22">
    <path d="M238.959 44.8615C238.959 44.8615 230.514 33.0738 238.959 26.6273C247.404 20.1808 258.991 27.2537 258.991 27.2537C258.991 27.2537 248.189 26.8958 243.082 31.1929C237.977 35.49 238.538 42.2488 238.959 44.8615Z" fill="url(#paint17_linear)"/>
    </mask>
    <g mask="url(#mask5)">
    <path d="M238.959 44.8615C238.959 44.8615 230.514 33.0738 238.959 26.6273C247.404 20.1808 258.991 27.2537 258.991 27.2537C258.991 27.2537 248.189 26.8958 243.082 31.1929C237.977 35.49 238.538 42.2488 238.959 44.8615Z" fill="url(#paint18_linear)"/>
    </g>
    <path d="M268.12 36.6161C267.878 36.6161 267.632 36.5634 267.404 36.4546C266.65 36.0932 266.359 35.2422 266.756 34.5544L268.934 30.7714C269.323 30.0941 270.235 29.8256 270.986 30.1643L273.952 31.503L275.591 28.4816C275.774 28.1464 276.093 27.892 276.481 27.7727C276.868 27.6534 277.293 27.6797 277.659 27.8446L281.2 29.4431L282.952 26.2163C283.331 25.5197 284.255 25.2337 285.02 25.5794L290.031 27.8411C290.795 28.1868 291.107 29.0308 290.729 29.7256C290.35 30.4222 289.424 30.7064 288.661 30.3625L285.032 28.7254L283.28 31.9522C282.901 32.6488 281.975 32.9331 281.212 32.5892L277.671 30.9907L276.03 34.0122C275.651 34.7088 274.725 34.993 273.962 34.6491L270.963 33.2963L269.485 35.8633C269.211 36.3423 268.674 36.6161 268.12 36.6161Z" fill="url(#paint19_linear)"/>
    <path d="M224.269 36.6158C223.713 36.6158 223.176 36.342 222.901 35.863L221.422 33.296L218.423 34.6488C217.661 34.9945 216.734 34.7085 216.356 34.0119L214.714 30.9904L211.173 32.5889C210.408 32.9328 209.484 32.6485 209.105 31.9519L207.353 28.7252L203.725 30.3622C202.962 30.7079 202.036 30.4219 201.657 29.7253C201.278 29.0287 201.592 28.1847 202.355 27.8408L207.366 25.5791C208.128 25.2352 209.054 25.5194 209.433 26.216L211.185 29.4428L214.726 27.8443C215.093 27.6794 215.517 27.6531 215.905 27.7724C216.293 27.8917 216.612 28.1461 216.794 28.4813L218.436 31.5028L221.401 30.164C222.152 29.8253 223.064 30.0938 223.453 30.7711L225.632 34.5541C226.028 35.2419 225.737 36.0929 224.983 36.4543C224.757 36.5649 224.511 36.6158 224.269 36.6158Z" fill="url(#paint20_linear)"/>
    <path d="M251.706 22.5946C251.427 22.5946 251.146 22.5262 250.892 22.3823C250.168 21.9717 249.947 21.1049 250.396 20.4434L252.074 17.9817L249.277 16.3095C248.563 15.8831 248.365 15.0111 248.831 14.3618L250.859 11.5404L247.555 9.5664C246.841 9.14003 246.643 8.26797 247.109 7.61875L249.275 4.60603L245.89 2.58293C245.176 2.15656 244.978 1.2845 245.445 0.635283C245.911 -0.0139339 246.867 -0.196416 247.581 0.229961L252.257 3.0251C252.97 3.45148 253.169 4.32354 252.702 4.97275L250.536 7.98372L253.84 9.95769C254.552 10.3841 254.752 11.2561 254.284 11.9053L252.257 14.7268L255.024 16.3797C255.726 16.799 255.931 17.65 255.489 18.2992L253.014 21.9278C252.725 22.3577 252.221 22.5946 251.706 22.5946Z" fill="url(#paint21_linear)"/>
    <path d="M265.08 23.6699C264.686 23.6699 264.291 23.5331 263.99 23.2576C263.386 22.7084 263.386 21.817 263.99 21.2678L276.81 9.57841C277.412 9.0292 278.39 9.0292 278.992 9.57841C279.595 10.1276 279.595 11.019 278.992 11.5682L266.171 23.2576C265.87 23.5331 265.475 23.6699 265.08 23.6699Z" fill="url(#paint22_linear)"/>
    <path d="M235.206 23.035C234.811 23.035 234.417 22.8982 234.115 22.6227L223.224 12.6932C222.62 12.144 222.62 11.2526 223.224 10.7034C223.825 10.1542 224.804 10.1542 225.405 10.7034L236.297 20.6329C236.9 21.1821 236.9 22.0735 236.297 22.6227C235.995 22.8982 235.6 23.035 235.206 23.035Z" fill="url(#paint23_linear)"/>
    <path d="M136.03 298.055C136.03 300.285 134.224 302.093 131.995 302.093C129.767 302.093 127.961 300.285 127.961 298.055C127.961 295.827 129.767 294.02 131.995 294.02C134.224 294.02 136.03 295.827 136.03 298.055Z" fill="black"/>
    <path d="M152.262 240.197C152.262 245.449 148.007 249.705 142.758 249.705C137.509 249.705 133.254 245.449 133.254 240.197C133.254 234.945 137.509 230.688 142.758 230.688C148.007 230.688 152.262 234.945 152.262 240.197Z" fill="black"/>
    <path d="M317.508 98.6973L310.1 108.597L297.598 115.008C297.598 115.008 295.929 114.596 294.45 115.731C292.97 116.867 292.766 119.383 293.143 119.658C293.522 119.934 294.168 119.374 294.168 119.374C294.168 119.374 295.685 116.903 298.009 116.503C298.857 116.358 310.401 111.257 311.394 110.846C315.096 109.316 320.938 101.564 320.938 101.564L317.508 98.6973Z" fill="#FFB68E"/>
    <path d="M325.728 127.49L319.284 158.439L322.036 180.352L325.153 179.991C325.153 179.991 326.433 169.977 326.433 160.909C326.433 151.619 339.006 131.733 337.777 128.184C336.546 124.634 325.032 119.123 325.728 127.49Z" fill="#003251"/>
    <path d="M322.416 182.937L325.256 182.767L325.138 179.623L322.036 180.351L322.416 182.937Z" fill="#FFB68E"/>
    <path d="M316.671 185.569L325.589 185.208L325.453 182.469C325.453 182.469 322.285 181.76 320.359 182.706C318.434 183.65 316.792 184.06 316.671 185.569Z" fill="#000538"/>
    <path d="M322.174 124.764L305.978 146.002L313.361 166.249L316.897 165.266C316.897 165.266 316.836 157.897 314.558 149.12C313.151 143.7 338.964 133.583 337.733 130.033C336.503 126.484 321.478 116.398 322.174 124.764Z" fill="#003D68"/>
    <path d="M314.175 168.581L317.015 168.409L316.897 165.266L313.795 165.994L314.175 168.581Z" fill="#FFB68E"/>
    <path d="M308.43 171.211L317.348 170.85L317.213 168.111C317.213 168.111 314.046 167.402 312.12 168.347C310.191 169.291 308.551 169.702 308.43 171.211Z" fill="#000538"/>
    <path d="M318.611 81.0361C318.611 81.0361 315.254 85.8104 315.589 87.1282C315.897 88.3389 318.619 88.4178 318.414 89.1267C318.209 89.8338 315.915 93.4501 315.915 93.4501C315.915 93.4501 318.839 92.4359 320.012 93.3466C320.536 93.7537 320.982 94.1853 320.982 94.1853C320.982 94.1853 324.267 83.082 321.383 81.3256C318.5 79.5709 318.611 81.0361 318.611 81.0361Z" fill="#FFB68E"/>
    <path d="M321.475 92.1926C321.475 92.1926 328.369 93.0296 335.188 111.615C338.315 120.139 337.733 130.033 337.733 130.033L320.047 125.166C321.505 114.633 313.056 95.7651 315.552 92.7348C316.599 91.461 320.347 91.3785 321.475 92.1926Z" fill="#AB0000"/>
    <path d="M313.534 95.2228C313.534 95.2228 302.046 87.0812 299.522 84.6826C296.723 82.0244 293.933 76.1463 293.314 73.9372C292.951 72.644 293.491 71.6807 293.491 71.6807C293.491 71.6807 292.124 71.4333 291.455 69.2944C291.072 68.0697 291.118 66.4537 290.683 66.8625C290.248 67.2713 289.943 70.0858 291.021 72.637C292.098 75.1883 293.673 81.1295 296.695 86.1074C300.702 92.7101 313.998 100.741 313.998 100.741L313.534 95.2228Z" fill="#FFB68E"/>
    <path d="M294.939 77.2661L292.3 78.8698C292.3 78.8698 295.146 86.8394 300.599 92.5437C306.197 98.4025 313.961 103.414 315.378 102.91C318.176 101.919 321.775 97.4795 320.512 94.9037C320.23 94.3264 311.169 92.9982 304.747 88.2607C298.636 83.7565 294.939 77.2661 294.939 77.2661Z" fill="#AB0000"/>
    <path d="M298.759 114.418C298.759 114.418 308.86 107.059 310.1 106.552C311.339 106.047 313.137 94.8327 318.699 94.2133C324.26 93.594 321.61 103.718 321.61 103.718C321.61 103.718 314.949 109.666 311.145 111.879C308.258 113.558 297.956 117.066 297.956 117.066L298.759 114.418Z" fill="#AB0000"/>
    <path d="M322.345 87.8532C322.345 87.8532 321.201 86.8355 321.419 86.2302C321.636 85.6248 322.636 84.1334 322.071 83.7088C321.505 83.2842 321.307 83.7842 320.938 83.5667C320.57 83.3491 316.841 82.4998 315.764 79.4485C314.688 76.3972 318.162 75.2269 319.721 76.4534C321.279 77.6816 319.56 78.8712 319.56 78.8712C319.56 78.8712 321.91 79.7503 323.837 81.6664C325.763 83.586 322.345 87.8532 322.345 87.8532Z" fill="#172755"/>
    <path d="M390.565 297.701C389.114 298.127 374.589 284.771 379.689 279.979C383.692 276.215 389.144 290.689 390.565 297.701Z" fill="url(#paint24_linear)"/>
    <path d="M391.089 298.401C391.089 298.401 407.391 272.892 398.797 262.31C390.204 251.728 383.383 268.002 391.089 298.401Z" fill="url(#paint25_linear)"/>
    <path d="M393.31 298.401C393.31 298.401 414.485 292.807 410.018 281.172C405.55 269.537 398.848 283.355 393.31 298.401Z" fill="url(#paint26_linear)"/>
    <path d="M381.612 281.745L380.795 282.231L390.14 297.975L390.956 297.488L381.612 281.745Z" fill="white"/>
    <path d="M409.849 286.093L401.129 289.414L401.467 290.302L410.187 286.982L409.849 286.093Z" fill="white"/>
    <path d="M409.838 282.234L403.74 284.583L404.081 285.471L410.18 283.121L409.838 282.234Z" fill="white"/>
    <path d="M409.113 279.28L405.418 281.454L405.9 282.275L409.595 280.102L409.113 279.28Z" fill="white"/>
    <path d="M406.468 290.385L399.86 291.592L400.031 292.529L406.639 291.322L406.468 290.385Z" fill="white"/>
    <path d="M402.882 293.934H398.231V294.885H402.882V293.934Z" fill="white"/>
    <path d="M399.482 295.63L395.563 296.478L395.764 297.407L399.683 296.56L399.482 295.63Z" fill="white"/>
    <path d="M391.556 298.5L390.623 298.303C390.647 298.196 392.91 287.338 394.041 276.784C395.097 266.967 394.057 260.254 394.044 260.187L394.984 260.038C394.995 260.105 396.056 266.93 394.988 276.884C393.85 287.489 391.577 298.391 391.556 298.5Z" fill="white"/>
    <path d="M395.043 270.143L389.585 264.472L390.269 263.811L394.997 268.727L399.162 263.832L399.887 264.449L395.043 270.143Z" fill="white"/>
    <path d="M394.469 277.514L389.169 271.3L389.893 270.685L394.558 276.154L400.237 271.055L400.872 271.765L394.469 277.514Z" fill="white"/>
    <path d="M393.76 283.298L388.829 279.104L389.444 278.378L393.813 282.094L399.05 278.355L399.604 279.127L393.76 283.298Z" fill="white"/>
    <path d="M393.011 288.963L389.206 285.389L389.854 284.694L393.071 287.714L396.821 284.811L397.405 285.566L393.011 288.963Z" fill="white"/>
    <path d="M393.482 298.845L393.134 297.959C393.168 297.947 396.438 296.578 400.728 289.853C405.081 283.031 406.179 278.488 406.19 278.444L407.114 278.66C407.07 278.849 405.979 283.39 401.53 290.367C397.044 297.401 393.624 298.789 393.482 298.845Z" fill="white"/>
    <path d="M428.662 336.168V330.78C428.662 330.78 427.822 326.841 426.968 326.42C426.115 325.999 425.547 328.857 425.547 328.857L425.852 336.167H428.662V336.168Z" fill="#000538"/>
    <path d="M428.593 307.099C428.593 307.099 429.025 301.323 428.016 300.069C427.69 299.663 426.78 298.045 426.534 297.765C426.534 297.765 425.535 297.766 425.431 298.603C425.396 298.888 425.391 299.23 425.428 299.639C425.633 301.832 425.547 307.099 425.547 307.099H428.593Z" fill="#000538"/>
    <path d="M428.593 306.659L449.397 290.102C456.205 295.259 471.501 313.228 471.501 313.228L478.93 300.486C478.93 300.486 457.184 284.035 449.906 282.175L428.593 302.702V306.659Z" fill="#7E0000"/>
    <path d="M470.383 272.294C470.383 272.294 472.172 275.431 471.699 274.998C468.431 272.008 452.417 257.089 452.223 255.68C451.909 253.402 445.221 240.493 443.901 239.54C442.58 238.586 443.313 238.595 442.401 238.823C441.489 239.049 440.344 234.527 440.344 234.527C440.344 234.527 445.018 236.057 446.707 238.235C446.937 238.53 457.068 252.423 457.977 254.946C458.589 256.646 472.018 266.372 472.018 266.372C472.018 266.372 478.086 275.075 470.383 272.294Z" fill="#FFB68E"/>
    <path d="M472.534 250.243C472.534 250.243 468.525 252.578 467.7 255.749C467.325 257.189 469.866 258.331 469.866 258.331C469.305 261.93 465.95 265.411 465.95 265.411C465.95 265.411 467.393 265.699 468.935 267.789C469.824 268.993 472.616 266.615 472.574 266.168C472.118 261.33 478.06 256.391 476.483 252.908C474.907 249.423 472.534 250.243 472.534 250.243Z" fill="#FFB68E"/>
    <path d="M473.525 251.61C473.525 251.61 472.755 250.126 471.36 249.092C469.968 248.061 472.123 244.03 472.655 244.192C473.186 244.353 473.963 247.183 474.9 248.605C475.838 250.026 478.397 252.284 477.497 255.753C476.599 259.222 473.223 261.831 473.223 261.831C473.223 261.831 472.43 260.492 472.504 259.868C472.579 259.243 474.48 258.411 474.48 257.657C474.48 256.902 473.446 257.35 473.07 257.116C472.697 256.885 474.947 254.841 473.525 251.61Z" fill="#172755"/>
    <path d="M472.534 250.243C472.534 250.243 468.525 252.578 467.7 255.749C467.325 257.189 469.866 258.331 469.866 258.331C469.305 261.93 465.95 265.411 465.95 265.411C465.95 265.411 467.393 265.699 468.935 267.789C469.824 268.993 472.616 266.615 472.574 266.168C472.118 261.33 478.06 256.391 476.483 252.908C474.907 249.423 472.534 250.243 472.534 250.243Z" fill="#FFB68E"/>
    <path d="M473.525 251.61C473.525 251.61 472.755 250.126 471.36 249.092C469.968 248.061 472.123 244.03 472.655 244.192C473.186 244.353 473.963 247.183 474.9 248.605C475.838 250.026 478.397 252.284 477.497 255.753C476.599 259.222 473.223 261.831 473.223 261.831C473.223 261.831 472.43 260.492 472.504 259.868C472.579 259.243 474.48 258.411 474.48 257.657C474.48 256.902 473.446 257.35 473.07 257.116C472.697 256.885 474.947 254.841 473.525 251.61Z" fill="#172755"/>
    <path d="M428.662 332.824L448.915 307.475C455.19 306.138 476.715 296.529 476.715 296.529C476.715 296.529 488.739 299.049 482.573 308.977C478.457 315.602 452.626 316.408 451.449 316.253C450.273 316.099 428.709 336.107 428.709 336.107L428.662 332.824Z" fill="#A20000"/>
    <path d="M467.362 293.79L467.271 297.372L469.103 296.017L469.423 300.084C469.423 300.084 472.181 301.121 474.756 301.609C483.1 303.194 486.021 299.049 486.021 299.049C486.021 299.049 486.676 278.76 475.286 267.104C471.918 263.658 468.435 263.612 466.552 264.235C465.764 264.495 465.999 269.792 465.999 269.792C465.999 269.792 474.784 283.794 467.362 293.79Z" fill="#3C3C3C"/>
    <path d="M467.486 264.118C467.486 264.118 467.527 264.116 467.602 264.116C467.981 264.113 469.252 264.134 470.81 264.49C472.25 264.82 474.035 266.594 474.035 266.594L474.884 264.928C474.884 264.928 473.653 263.767 471.334 263.528C470.317 263.423 469.205 263.586 469.205 263.586L467.004 262.293L466.074 264.444L467.486 264.118Z" fill="#00D19D"/>
    <path d="M469.2 299.54L486.436 290.432L492.368 302.011L475.129 311.121L469.2 299.54Z" fill="white"/>
    <path d="M485.335 292.655L489.981 301.726L485.335 292.655Z" fill="#004E15"/>
    <path d="M485.576 292.567L485.104 292.809L489.743 301.884L490.214 301.642L485.576 292.567Z" fill="#2F375F"/>
    <path d="M482.79 293.985L487.436 303.055L482.79 293.985Z" fill="#004E15"/>
    <path d="M483.01 293.838L482.539 294.08L487.179 303.154L487.65 302.912L483.01 293.838Z" fill="#2F375F"/>
    <path d="M480.245 295.315L484.891 304.385L480.245 295.315Z" fill="#004E15"/>
    <path d="M480.516 295.189L480.045 295.431L484.685 304.506L485.156 304.264L480.516 295.189Z" fill="#2F375F"/>
    <path d="M477.702 296.646L482.348 305.717L477.702 296.646Z" fill="#004E15"/>
    <path d="M477.923 296.49L477.452 296.732L482.092 305.806L482.563 305.564L477.923 296.49Z" fill="#2F375F"/>
    <path d="M475.157 297.977L479.803 307.048L475.157 297.977Z" fill="#004E15"/>
    <path d="M475.379 297.831L474.908 298.073L479.548 307.147L480.019 306.905L475.379 297.831Z" fill="#2F375F"/>
    <path d="M472.614 299.305L477.26 308.375L472.614 299.305Z" fill="#004E15"/>
    <path d="M472.854 299.222L472.383 299.464L477.022 308.539L477.493 308.297L472.854 299.222Z" fill="#2F375F"/>
    <path d="M474.768 267.674C474.768 267.674 486.166 278.983 485.959 279.787C484.253 286.411 478.242 294.771 478.242 294.771C478.242 294.771 479.335 296.082 479.884 296.565C480.433 297.047 483.637 297.219 479.97 297.812C476.678 298.346 475.743 295.503 476.217 294.163C476.995 291.953 480.412 283.168 480.715 281.38C480.792 280.922 466.557 272.987 467.767 268.28C469.172 262.809 474.768 267.674 474.768 267.674Z" fill="#FFB68E"/>
    <path d="M430.77 300.668L431.617 304.314L428.593 306.722V302.765L430.77 300.668Z" fill="#FFB68E"/>
    <path d="M430.935 330.042L431.256 333.821L428.711 336.169L428.662 332.886L430.935 330.042Z" fill="#FFB68E"/>
    <path d="M357.186 148.476C357.419 147.395 357.697 146.526 356.737 145.981C353.121 143.921 344.011 136.79 343.18 135.316C342.152 133.495 339.204 124.846 339.204 124.846L339.357 122.247C339.357 122.247 337.698 119.342 337.138 119.475C336.581 119.609 337.692 122.009 337.778 123.879C337.875 126.013 338.92 134.712 341.73 138.767C344.539 142.822 352.293 151.959 355.406 150.767C356.302 150.424 356.99 149.381 357.186 148.476Z" fill="#FFB68E"/>
    <path d="M359.992 224.031C359.992 224.031 355.41 203.919 354.813 202.152C354.215 200.385 353.884 175.303 353.884 175.303L362.05 176.996L361.201 200.341L363.135 223.764L359.992 224.031Z" fill="black"/>
    <path d="M350.827 224.031C350.827 224.031 346.509 203.919 345.911 202.152C345.313 200.385 350.216 174.16 350.216 174.16L362.048 176.994L352.298 200.339L354.233 223.762L350.827 224.031Z" fill="black"/>
    <path d="M350.778 230.054C350.778 230.054 348.629 230.133 349.557 229.529C352.996 227.294 351.877 223.99 351.877 223.99L354.227 223.66L354.184 226.787L352.247 229.456C352.246 229.454 352.738 230.259 350.778 230.054Z" fill="#FFB68E"/>
    <g opacity="0.18">
    <path opacity="0.18" d="M366.748 230.53C366.748 231.479 354.034 232.249 338.352 232.249C322.669 232.249 309.956 231.479 309.956 230.53C309.956 229.58 322.669 228.81 338.352 228.81C354.034 228.808 366.748 229.579 366.748 230.53Z" fill="#003B64"/>
    </g>
    <path d="M353.121 230.707L353.235 228.126L354.711 226.427L354.099 230.705L353.121 230.707Z" fill="url(#paint27_linear)"/>
    <path d="M354.094 225.762C354.094 225.762 354.348 225.496 354.802 226.268C355.148 226.855 354.585 228.301 354.585 228.301C354.585 228.301 353.557 228.382 352.885 229.452C352.717 229.721 352.41 230.337 351.944 230.833C351.477 231.33 347.861 230.795 347.861 230.795C347.861 230.795 347.721 230.552 348.301 230.189C348.882 229.826 349.557 229.526 349.557 229.526C349.557 229.526 350.488 230.209 351.323 229.607C352.156 229.005 354.094 225.762 354.094 225.762Z" fill="url(#paint28_linear)"/>
    <path d="M359.731 230.054C359.731 230.054 357.583 230.133 358.51 229.529C361.95 227.294 360.831 223.99 360.831 223.99L363.181 223.66L363.137 226.787L361.201 229.456C361.199 229.454 361.692 230.259 359.731 230.054Z" fill="#FFB68E"/>
    <path d="M362.074 230.707L362.188 228.126L363.665 226.427L363.053 230.705L362.074 230.707Z" fill="url(#paint29_linear)"/>
    <path d="M363.047 225.762C363.047 225.762 363.302 225.496 363.756 226.268C364.102 226.855 363.539 228.301 363.539 228.301C363.539 228.301 362.511 228.382 361.839 229.452C361.671 229.721 361.364 230.337 360.897 230.833C360.432 231.33 356.814 230.795 356.814 230.795C356.814 230.795 356.674 230.552 357.254 230.189C357.835 229.826 358.51 229.526 358.51 229.526C358.51 229.526 359.443 230.209 360.276 229.607C361.109 229.005 363.047 225.762 363.047 225.762Z" fill="url(#paint30_linear)"/>
    <path d="M353.126 144.697C351.176 145.002 350.441 145.835 349.552 147.601C348.871 148.952 347.338 152.182 345.863 153.773C344.892 154.823 349.573 176.238 349.573 176.238L363.284 176.996C363.284 176.996 359.877 167.633 359.652 161.548C359.428 155.463 359.17 148.029 358.005 146.635C356.251 144.532 354.875 144.423 353.126 144.697Z" fill="url(#paint31_linear)"/>
    <path d="M351.775 151.102C352.075 150.039 352.405 149.188 351.481 148.584C347.998 146.305 339.346 138.627 338.606 137.104C337.692 135.221 336.063 124.995 336.063 124.995C336.063 124.995 337.733 122.77 337.154 122.384C336.722 122.096 335.593 123.826 335.593 123.826C335.593 123.826 335.228 120.459 334.662 120.559C334.095 120.659 332.525 122.616 333.581 124.472C334.637 126.329 334.388 136.242 336.943 140.462C339.499 144.682 346.675 154.28 349.855 153.283C350.774 152.992 351.525 151.994 351.775 151.102Z" fill="#FFB68E"/>
    <path d="M349.655 132.519C349.655 132.519 347.722 136.29 348.582 139.489C348.834 140.431 351.493 140.54 351.493 140.54C352.295 142.788 350.422 146.156 350.422 146.156C350.422 146.156 351.856 144.316 353.421 145.025C354.322 145.434 355.522 144.96 355.357 144.716C353.564 142.082 357.646 134.758 355.62 133.26C353.598 131.761 349.655 132.519 349.655 132.519Z" fill="#FFB68E"/>
    <path d="M350.444 133.816C348.989 133.742 347.745 132.57 347.771 131.112C347.78 130.575 347.943 129.985 348.362 129.364C350.037 126.885 352.461 130.173 352.514 130.873C352.568 131.573 354.508 127.225 359.14 131.152C363.773 135.077 359.085 140.413 360.918 143.163C362.749 145.912 364.528 144.726 365.012 147.097C365.496 149.467 362.372 149.683 362.372 149.683C362.372 149.683 363.181 151.085 361.402 152.269C359.624 153.455 357.039 151.892 357.039 151.892C357.039 151.892 356.421 154.108 354.506 154.262C352.593 154.417 350.521 148.76 351.791 143.979C353.31 138.257 354.603 137.357 354.655 135.955C354.71 134.553 353.901 135.47 353.524 135.523C353.187 135.574 353.692 133.981 350.444 133.816Z" fill="#172755"/>
    <path d="M156.782 357.542C156.755 357.745 157.127 358.915 157.943 359.459C158.758 360.003 160.558 360.08 160.558 360.08L160.868 362.498C160.868 362.498 158.912 362.009 157.746 360.831C156.582 359.654 156.31 359.084 156.31 359.084L156.782 357.542Z" fill="white"/>
    <path d="M161.555 360.645C161.555 360.645 163.225 360.34 163.653 359.084C164.081 357.827 163.257 357.157 163.257 357.157L164.709 358.896C164.709 358.896 164.856 359.542 163.497 360.647C162.138 361.753 161.166 362.498 161.166 362.498L161.555 360.645Z" fill="white"/>
    <path d="M586.315 459.694C586.315 459.694 573.716 457.762 567.39 455.291C564.594 454.2 559.927 443.163 558.299 440.852C557.347 439.5 549.778 437.729 549.36 437.908C548.522 438.268 552.784 440.05 552.784 440.05C552.396 440.289 550.937 440.105 550.788 441.268C550.695 441.998 554.164 440.175 556.463 442.693C558.762 445.211 559.541 454.563 565.096 459.099C572.462 465.116 589.127 465.912 589.127 465.912L586.315 459.694Z" fill="#FFB68E"/>
    <path d="M602.064 496.978L599.257 526.907L617.917 548.061L623.002 550.1C623.002 550.1 611.872 533.483 608.71 524.071C605.548 514.659 621.132 500.117 619.717 496.028C618.301 491.94 601.265 487.34 602.064 496.978Z" fill="#151515"/>
    <path d="M620.29 550.435L623.012 550.098L621.363 547.566L617.917 548.061L620.29 550.435Z" fill="#FFB68E"/>
    <path d="M612.789 553.578L623.047 553.16L622.891 550.003C622.891 550.003 619.248 549.186 617.032 550.275C614.816 551.365 612.929 551.839 612.789 553.578Z" fill="#000538"/>
    <path d="M638.311 553.313L648.569 552.895L648.413 549.739C648.413 549.739 644.77 548.921 642.553 550.011C640.338 551.102 638.451 551.574 638.311 553.313Z" fill="#000538"/>
    <path d="M575.455 448.994C575.455 448.994 576.823 456.058 578.277 456.888C579.614 457.651 582.009 455.304 582.462 456.091C582.914 456.879 584.161 462.008 584.161 462.008C584.161 462.008 585.759 458.544 587.567 458.285C588.378 458.167 589.141 458.143 589.141 458.143C589.141 458.143 582.101 445.727 578.083 446.781C574.061 447.838 575.455 448.994 575.455 448.994Z" fill="#FFB68E"/>
    <path d="M643.44 548.25C643.44 548.25 625.644 526.061 623.535 522.259C622.286 520.008 609.027 494.814 609.027 494.814H624.154C624.154 494.814 628.786 505.065 632.16 519.274C632.342 520.043 645.18 544.83 645.18 544.83L643.44 548.25Z" fill="black"/>
    <path d="M648.413 549.74L645.003 549.612L643.709 547.521L645.18 544.833L648.413 549.74Z" fill="#FFB68E"/>
    <path d="M589.721 457.569C589.721 457.569 598.062 455.695 613.62 474.471C620.757 483.083 624.154 494.816 624.154 494.816L601.638 496.459C598.994 483.622 581.429 465.189 583.074 460.641C583.765 458.732 588.078 457.09 589.721 457.569Z" fill="white"/>
    <path d="M586.427 466.094L595.942 474.25L609.79 485.013C609.79 485.013 609.145 487.066 610.686 488.901C612.23 490.737 615.767 491.016 616.171 490.552C616.574 490.089 615.811 489.287 615.811 489.287C615.811 489.287 612.387 487.392 611.916 484.523C611.744 483.476 603.56 476.417 600.682 472.811C598.262 469.779 592.841 462.787 588.946 460.946C587.85 460.429 586.555 460.66 585.701 461.52C584.331 462.901 584.698 465.212 586.427 466.094Z" fill="#FFB68E"/>
    <path d="M584.687 451.514C584.687 451.514 582.809 451.656 582.458 450.947C582.108 450.237 581.639 448.073 580.778 448.212C579.917 448.35 580.192 448.956 579.686 449.096C579.179 449.236 575.241 451.817 571.616 450.163C567.993 448.506 569.92 444.423 572.339 444.092C574.757 443.76 574.345 446.303 574.345 446.303C574.345 446.303 577.132 444.969 580.477 444.901C583.821 444.831 584.687 451.514 584.687 451.514Z" fill="#172755"/>
    <path d="M663.246 554.535C662.715 554.665 662.142 554.49 661.829 554.055L552.98 402.566C552.58 402.01 552.761 401.241 553.381 400.848C554.001 400.457 554.83 400.588 555.23 401.145L664.08 552.632C664.479 553.188 664.299 553.956 663.678 554.349C663.543 554.437 663.396 554.499 663.246 554.535Z" fill="#626262"/>
    <path d="M681.03 550.176C680.499 550.306 679.925 550.131 679.613 549.696L570.763 398.207C570.364 397.651 570.544 396.883 571.165 396.489C571.786 396.096 572.614 396.23 573.014 396.786L681.863 548.274C682.263 548.831 682.082 549.599 681.461 549.992C681.326 550.078 681.179 550.14 681.03 550.176Z" fill="#626262"/>
    <path d="M581.792 412.065L564.069 416.408C563.348 416.586 562.633 416.196 562.472 415.538C562.31 414.88 562.764 414.204 563.485 414.027L581.208 409.684C581.928 409.507 582.644 409.897 582.805 410.555C582.967 411.213 582.513 411.888 581.792 412.065Z" fill="#626262"/>
    <path d="M593.618 428.703L575.895 433.046C575.175 433.223 574.459 432.833 574.298 432.175C574.136 431.517 574.591 430.842 575.311 430.665L593.034 426.322C593.755 426.145 594.47 426.534 594.632 427.192C594.793 427.85 594.339 428.526 593.618 428.703Z" fill="#626262"/>
    <path d="M605.444 445.34L588.349 449.529C587.628 449.706 586.913 449.316 586.752 448.658C586.59 448 587.044 447.325 587.765 447.148L604.86 442.959C605.581 442.782 606.296 443.172 606.458 443.83C606.619 444.488 606.165 445.163 605.444 445.34Z" fill="#626262"/>
    <path d="M617.27 461.978L600.477 466.093C599.756 466.27 599.04 465.88 598.879 465.222C598.718 464.564 599.172 463.889 599.893 463.712L616.686 459.597C617.407 459.42 618.122 459.809 618.283 460.467C618.445 461.125 617.991 461.801 617.27 461.978Z" fill="#626262"/>
    <path d="M629.094 478.615L611.749 482.865C611.028 483.042 610.313 482.652 610.151 481.994C609.99 481.336 610.444 480.661 611.165 480.484L628.51 476.234C629.231 476.056 629.947 476.446 630.106 477.104C630.269 477.762 629.817 478.438 629.094 478.615Z" fill="#626262"/>
    <path d="M640.92 495.252L623.685 499.476C622.964 499.653 622.249 499.263 622.089 498.606C621.928 497.948 622.382 497.272 623.103 497.095L640.338 492.871C641.059 492.694 641.774 493.084 641.936 493.742C642.095 494.4 641.641 495.077 640.92 495.252Z" fill="#626262"/>
    <path d="M652.746 511.89L635.62 516.087C634.899 516.264 634.184 515.875 634.023 515.217C633.861 514.559 634.315 513.883 635.036 513.706L652.162 509.509C652.883 509.332 653.599 509.721 653.758 510.379C653.922 511.037 653.467 511.715 652.746 511.89Z" fill="#626262"/>
    <path d="M664.818 528.468L647.965 532.597C647.245 532.774 646.529 532.384 646.369 531.726C646.208 531.068 646.662 530.393 647.383 530.216L664.236 526.085C664.957 525.908 665.672 526.298 665.833 526.956C665.993 527.615 665.539 528.291 664.818 528.468Z" fill="#626262"/>
    <path d="M599.725 389.025C599.725 389.025 590.008 398.398 588.483 400.179C586.959 401.96 577.563 410.839 577.563 410.839L572.076 412.007C572.076 412.007 571.316 412.285 572.076 410.825C572.835 409.363 576.878 409.056 576.878 409.056C576.878 409.056 584.498 398.969 585.282 397.9C587.981 394.224 595.887 384.07 595.887 384.07C597.331 384.005 599.725 389.025 599.725 389.025Z" fill="#FFB68E"/>
    <path d="M595.977 410.042C595.977 410.042 597.976 452.28 602.319 455.921C605.216 458.351 618.131 473.649 618.131 473.649C618.131 473.649 617.963 478.641 616.002 479.392C614.755 479.87 618.126 479.654 618.126 479.654C618.126 479.654 621.469 473.707 619.89 472.497C618.312 471.284 609.753 454.743 608.518 452.425C607.407 450.337 608.008 408.309 608.008 408.309L595.977 410.042Z" fill="#FFB68E"/>
    <path d="M594.612 406.273C594.612 406.273 608.838 442.741 620.464 453.983C622.386 455.842 646.968 471.4 646.968 471.4L649.593 474.607C649.593 474.607 652.12 473.107 648.122 468.201C646.241 465.894 645.484 467.324 645.484 467.324L624.938 449.528C624.938 449.528 611.963 410.584 610.204 409.101C601.736 401.962 594.612 406.273 594.612 406.273Z" fill="#FFB68E"/>
    <path d="M610.125 407.975C608.922 406.777 607.924 406.061 607.138 405.627L601.08 401.179C601.08 401.179 600.011 398.274 599.965 394.371C599.953 393.276 600.026 391.559 600.188 389.844C600.463 386.914 601.578 381.876 596.705 381.02C595.573 380.822 594.609 380.882 594.198 381.794C591.678 387.405 590.094 390.058 589.21 391.978C589.68 393.622 591.632 394.61 591.632 394.61C592.73 397.945 595.193 407.907 595.452 409.503L598.287 440.229C598.287 440.229 604.283 441.95 607.936 441.925C611.589 441.903 613.838 441.201 613.838 441.201L616.591 440.876L621.567 439.544C621.565 439.543 613.378 411.218 610.125 407.975Z" fill="url(#paint32_linear)"/>
    <path d="M652.731 472.127L648.697 468.241L648.567 466.797L653.018 471.815L652.731 472.127Z" fill="#003B64"/>
    <path d="M645.781 467.02C645.781 467.02 646.915 466.101 647.88 466.31C648.615 466.469 649.367 468.005 649.367 468.005C649.367 468.005 648.499 469.026 649.811 470.51C651.01 471.867 651.557 472.698 651.614 473.448C651.67 474.197 648.883 476.357 648.883 476.357C648.883 476.357 648.583 476.29 648.722 475.548C648.86 474.806 649.121 474.034 649.121 474.034C649.121 474.034 649.755 474.456 649.89 473.33C650.021 472.205 645.781 467.02 645.781 467.02Z" fill="#003B64"/>
    <path d="M620.727 480.553L620.853 474.953L621.827 473.879L621.151 480.553H620.727Z" fill="#003B64"/>
    <path d="M619.982 472.641C619.982 472.641 621.427 472.853 621.927 473.704C622.307 474.351 621.686 475.946 621.686 475.946C621.686 475.946 620.232 476.111 619.922 477.303C619.464 479.056 619.25 479.771 618.738 480.319C618.224 480.868 614.748 480.28 614.748 480.28C614.748 480.28 614.594 480.014 615.234 479.614C615.874 479.214 616.618 478.882 616.618 478.882C616.618 478.882 616.735 479.635 617.654 478.97C618.575 478.308 619.982 472.641 619.982 472.641Z" fill="#003B64"/>
    <path d="M630.153 414.011L621.705 419.269L619.522 415.758C618.17 413.584 618.838 410.712 621.011 409.359L621.572 409.01C623.747 407.657 626.614 408.325 627.968 410.499L630.153 414.011ZM622.149 417.369L628.254 413.568L626.8 411.229C625.85 409.701 623.833 409.231 622.305 410.182L621.744 410.531C620.216 411.482 619.746 413.5 620.697 415.028L622.149 417.369Z" fill="#210C00"/>
    <path d="M630.973 409.791L616.917 418.54L622.074 431.791L640.11 420.561L630.973 409.791Z" fill="#474747"/>
    <path d="M619.089 423.984L618.81 423.538L624.459 420.02L625.557 421.785L629.955 419.048L628.857 417.283L634.435 413.81L634.712 414.258L629.584 417.451L630.68 419.216L625.388 422.511L624.291 420.746L619.089 423.984Z" fill="#210C00"/>
    <path d="M627.095 417.639C627.319 418.001 627.209 418.476 626.848 418.701C626.486 418.925 626.011 418.815 625.787 418.453C625.562 418.092 625.673 417.617 626.034 417.392C626.397 417.166 626.87 417.278 627.095 417.639Z" fill="#BD0000"/>
    <path d="M626.559 417.647L625.974 418.012L627.375 420.262L627.96 419.898L626.559 417.647Z" fill="#BD0000"/>
    <path d="M640.11 420.56L641.278 418.5L631.666 409.358L630.806 409.892L640.11 420.56Z" fill="#210C00"/>
    <path d="M597.021 385.742C600.909 389.002 612.247 397.747 612.247 397.747L619.736 408.491C619.736 408.491 618.735 411.468 619.727 412.11C621.921 413.53 623.223 409.791 623.223 409.791C622.299 409.791 621.741 410.533 621.301 410.045C621.169 409.899 621.564 408.068 621.564 408.068L615.411 395.201C615.411 395.201 599.541 380.734 597.85 381.743C597.208 382.127 596.782 382.659 596.503 383.169C596.033 384.031 596.268 385.11 597.021 385.742Z" fill="#FFB68E"/>
    <path d="M600.003 364.574C600.003 364.574 595.868 368.031 595.287 372.203C595.115 373.433 598.176 374.881 598.176 374.881C598 377.911 594.612 381.129 594.612 381.129C594.612 381.129 596.147 380.368 597.629 381.975C598.483 382.901 599.675 382.677 599.603 382.308C598.812 378.332 604.884 370.14 603.258 367.378C601.631 364.62 600.003 364.574 600.003 364.574Z" fill="#FFB68E"/>
    <path d="M600.342 366.083C600.177 365.929 597.846 362.937 600.342 362.402C602.057 362.035 604.709 362.625 608.546 368.91C610.84 372.666 609.744 375.5 609.444 379.657C609.26 382.219 609.742 390.194 609.742 390.194L598.33 381.564C598.33 381.564 602.141 372.166 602.141 371.34C602.141 370.513 601.015 370.889 601.015 370.889C601.015 370.889 601.924 367.564 600.342 366.083Z" fill="#172755"/>
    <path d="M442.115 240.385C442.115 240.385 445.349 240.452 445.142 236.897C445.033 235.033 443.241 233.477 443.241 233.477C443.241 233.477 444.448 231.619 442.829 227.201C442.099 225.207 440.78 226.881 440.984 228.462C441.243 230.476 439.772 232.512 439.826 235.754C439.853 237.279 438.667 238.437 439.405 238.774C440.409 239.232 441.142 235.914 441.142 235.914C441.142 235.914 441.229 238.625 442.115 240.385Z" fill="#FFB68E"/>
    <path d="M440.361 231.023L435.991 217.934L426.73 200.496L430.929 195.559C430.929 195.559 440.186 211.338 441.261 213.231C442.336 215.125 443.818 220.132 443.997 225.068C444.099 227.881 443.997 231.32 443.997 231.32L440.361 231.023Z" fill="#380606"/>
    <path d="M440.107 232.528L440.361 231.024L443.999 231.32L443.434 232.94L440.107 232.528Z" fill="white"/>
    <path d="M417.153 295.975L416.802 266.888L416.085 231.72C416.085 231.72 414.478 217.102 406.858 228.925C399.236 240.748 410.245 268.371 410.087 269.791C409.845 271.975 412.6 297.091 412.6 297.091L417.153 295.975Z" fill="#626262"/>
    <path d="M388.045 300.414L391.233 300.511L393.659 302.411C393.659 302.411 396.886 303.439 397.692 304.251C398.499 305.064 387.54 303.121 387.54 303.121L388.045 300.414Z" fill="#000538"/>
    <path d="M392.543 299.584L398.589 271.133L409.957 241.332C409.957 241.332 411.255 222.821 398.908 229.553C397.775 230.171 391.864 271.138 391.4 272.489C390.684 274.567 387.855 299.674 387.855 299.674L392.543 299.584Z" fill="#626262"/>
    <path d="M391.403 299.605L388.071 299.668L388.032 300.765L391.233 300.51L391.403 299.605Z" fill="#FFB68E"/>
    <path d="M412.946 297.773L416.078 297.168L418.861 298.489C418.861 298.489 422.293 299.8 423.26 300.414C424.226 301.028 413.047 300.528 413.047 300.528L412.946 297.773Z" fill="#000538"/>
    <path d="M416.044 296.247L412.807 297.04L413.012 298.119L416.078 297.168L416.044 296.247Z" fill="#FFB68E"/>
    <path d="M437.827 182.262C437.827 182.262 438.713 187.779 436.392 190.965C435.338 192.413 432.336 190.919 432.336 190.919C429.416 194.188 428.735 199.97 428.735 199.97C428.735 199.97 427.367 198.845 424.245 199.005C422.446 199.096 422.528 194.68 422.976 194.378C427.827 191.111 427.886 181.808 432.33 180.618C436.778 179.428 437.827 182.262 437.827 182.262Z" fill="#FFB68E"/>
    <path d="M435.796 182.383C435.796 182.383 435.956 183.486 437.978 183.995C440.002 184.504 442.346 182.358 441.638 179.558C441.443 178.791 440.123 176.447 436.743 178.219C436.743 178.219 436.008 176.278 434.347 176.513C431.978 176.849 431.401 179.456 431.401 179.456C431.401 179.456 429.289 177.959 427.523 180.309C426.829 181.232 426.767 182.439 426.946 183.188C426.946 183.188 425.752 182.939 424.857 183.892C424.072 184.729 424.543 186.687 425.685 187.075C425.685 187.075 425.559 187.845 425.538 188.284C425.475 189.624 426.269 189.898 426.269 189.898C426.269 189.898 428.365 190.18 428.888 189.635C429.412 189.089 428.735 186.682 429.437 186.106C430.138 185.531 430.789 186.525 431.017 187.008C431.112 187.208 432.387 186.845 432.827 185.469C432.957 185.062 432.734 184.26 432.734 184.26C433.007 183.946 434.196 184.357 434.637 184.158C436.006 183.535 435.796 182.383 435.796 182.383Z" fill="#172755"/>
    <path d="M402.369 225.311L402.351 226.153C402.351 226.153 402.861 231.67 404.931 234.051C411.639 241.768 417.153 235.953 417.153 235.953C417.153 235.953 431.129 204.764 431.75 201.394C432.802 195.689 427.325 193.186 425.01 192.605C422.734 192.033 420.436 192.296 418.56 192.778C416.183 193.391 414.565 195.612 414.719 198.062C415.136 204.656 413.214 222.374 402.369 225.311Z" fill="white"/>
    <path d="M425.01 192.605L421.478 214.263L429.788 194.779C429.788 194.779 430.654 195.323 431.652 196.457C432.361 197.26 433.138 198.359 433.72 199.769C435.123 203.168 427.282 216.012 424.167 223.817C421.052 231.621 418.197 239.165 418.197 239.165L411.46 241.128L413.544 234.627L407.121 238.98L396.886 229.312C396.886 229.312 403.482 219.967 406.915 213.694C410.347 207.423 414.272 196.376 415.326 194.776C416.382 193.174 420.233 190.431 425.01 192.605Z" fill="#380606"/>
    <path d="M427.506 193.498L427.578 195.763L423.325 202.943L421.478 214.262L426.369 204.747L428.246 196.044L429.3 194.777L427.506 193.498Z" fill="url(#paint33_linear)"/>
    <line x1="354" y1="433" x2="354" y2="548.56" stroke="black" stroke-opacity="0.5" stroke-width="2" stroke-linejoin="round"/>
    <path d="M440.565 238.803C440.565 238.803 438.262 241.093 435.682 237.822C434.33 236.106 434.441 233.499 434.441 233.499C434.441 233.499 425.624 227.158 423.409 222.148C422.409 219.888 428.058 219.313 427.367 221.046C426.676 222.78 436.224 230.251 438.674 233.146C439.827 234.508 441.579 234.708 441.3 235.515C440.921 236.61 437.838 234.194 437.838 234.194C437.838 234.194 439.858 236.643 440.565 238.803Z" fill="#FFB68E"/>
    <path d="M434.651 229.349L425.629 212.699L422.706 193C422.706 193 420.987 192.61 418.202 194.044C413.221 196.607 416.653 212.238 417.325 214.649C417.997 217.06 421.029 224.417 425.708 227.808C428.763 230.023 432.231 232.123 432.231 232.123L434.651 229.349Z" fill="#580A0A"/>
    <path d="M435.991 230.497L434.651 229.349L432.232 232.121L433.888 233.159L435.991 230.497Z" fill="white"/>
    </g>
    <defs>
    <filter id="filter0_d" x="0" y="0" width="784" height="613" filterUnits="userSpaceOnUse" color-interpolation-filters="sRGB">
    <feFlood flood-opacity="0" result="BackgroundImageFix"/>
    <feColorMatrix in="SourceAlpha" type="matrix" values="0 0 0 0 0 0 0 0 0 0 0 0 0 0 0 0 0 0 127 0"/>
    <feOffset dx="4" dy="4"/>
    <feGaussianBlur stdDeviation="2"/>
    <feColorMatrix type="matrix" values="0 0 0 0 0 0 0 0 0 0 0 0 0 0 0 0 0 0 0.25 0"/>
    <feBlend mode="normal" in2="BackgroundImageFix" result="effect1_dropShadow"/>
    <feBlend mode="normal" in="SourceGraphic" in2="effect1_dropShadow" result="shape"/>
    </filter>
    <linearGradient id="paint0_linear" x1="213.667" y1="311.322" x2="315.198" y2="311.322" gradientUnits="userSpaceOnUse">
    <stop offset="0.1885"/>
    <stop offset="0.9861" stop-color="#FF0000"/>
    </linearGradient>
    <linearGradient id="paint1_linear" x1="246.194" y1="-1.11202" x2="246.194" y2="535.507" gradientUnits="userSpaceOnUse">
    <stop offset="0.3155" stop-color="#FF0000"/>
    <stop offset="0.588542" stop-color="#5E0000"/>
    </linearGradient>
    <linearGradient id="paint2_linear" x1="213.101" y1="108.596" x2="287.434" y2="108.596" gradientUnits="userSpaceOnUse">
    <stop offset="0.1885"/>
    <stop offset="0.9861"/>
    </linearGradient>
    <linearGradient id="paint3_linear" x1="229.259" y1="90.8775" x2="277.918" y2="90.8775" gradientUnits="userSpaceOnUse">
    <stop offset="0.1885"/>
    <stop offset="0.9861"/>
    </linearGradient>
    <linearGradient id="paint4_linear" x1="581.287" y1="382.837" x2="416.355" y2="608.008" gradientUnits="userSpaceOnUse">
    <stop stop-color="white"/>
    <stop offset="0.328" stop-color="#CCCCCC"/>
    <stop offset="0.5701" stop-color="#5E5E5E"/>
    <stop offset="0.7018"/>
    </linearGradient>
    <linearGradient id="paint5_linear" x1="580.224" y1="381.836" x2="414.985" y2="605.96" gradientUnits="userSpaceOnUse">
    <stop stop-color="#004E55"/>
    <stop offset="0.328" stop-color="#00565E"/>
    <stop offset="0.5701" stop-color="#1F6869"/>
    <stop offset="0.7018" stop-color="#528986"/>
    </linearGradient>
    <linearGradient id="paint6_linear" x1="473.799" y1="249.637" x2="238.399" y2="427.636" gradientUnits="userSpaceOnUse">
    <stop stop-color="white"/>
    <stop offset="0.328" stop-color="#CCCCCC"/>
    <stop offset="0.5701" stop-color="#5E5E5E"/>
    <stop offset="0.7018"/>
    </linearGradient>
    <linearGradient id="paint7_linear" x1="495.205" y1="311.039" x2="259.51" y2="490.406" gradientUnits="userSpaceOnUse">
    <stop/>
    <stop offset="0.328" stop-color="#5E0000"/>
    <stop offset="0.5701" stop-color="#691F1F"/>
    <stop offset="0.7018"/>
    </linearGradient>
    <linearGradient id="paint8_linear" x1="452.573" y1="247.356" x2="159.921" y2="482.332" gradientUnits="userSpaceOnUse">
    <stop stop-color="white"/>
    <stop offset="0.328" stop-color="#CCCCCC"/>
    <stop offset="0.5701" stop-color="#5E5E5E"/>
    <stop offset="0.7018"/>
    </linearGradient>
    <linearGradient id="paint9_linear" x1="453.15" y1="247.455" x2="160.299" y2="483.707" gradientUnits="userSpaceOnUse">
    <stop/>
    <stop offset="0.328" stop-color="#5E0000"/>
    <stop offset="0.5701" stop-color="#691F1F"/>
    <stop offset="0.7018"/>
    </linearGradient>
    <linearGradient id="paint10_linear" x1="385.939" y1="168.267" x2="29.2866" y2="396.433" gradientUnits="userSpaceOnUse">
    <stop stop-color="white"/>
    <stop offset="0.328" stop-color="#CCCCCC"/>
    <stop offset="0.5701" stop-color="#5E5E5E"/>
    <stop offset="0.7018"/>
    </linearGradient>
    <linearGradient id="paint11_linear" x1="384.57" y1="167.712" x2="29.6515" y2="392.788" gradientUnits="userSpaceOnUse">
    <stop/>
    <stop offset="0.328" stop-color="#5E0000"/>
    <stop offset="0.5701" stop-color="#691F1F"/>
    <stop offset="0.7018"/>
    </linearGradient>
    <linearGradient id="paint12_linear" x1="648.651" y1="450.266" x2="574.611" y2="622.854" gradientUnits="userSpaceOnUse">
    <stop stop-color="white"/>
    <stop offset="0.328" stop-color="#CCCCCC"/>
    <stop offset="0.5701" stop-color="#5E5E5E"/>
    <stop offset="0.7018"/>
    </linearGradient>
    <linearGradient id="paint13_linear" x1="648.651" y1="451.257" x2="575.132" y2="623.347" gradientUnits="userSpaceOnUse">
    <stop stop-color="#004E55"/>
    <stop offset="0.328" stop-color="#00565E"/>
    <stop offset="0.5701" stop-color="#1F6869"/>
    <stop offset="0.7018" stop-color="#528986"/>
    </linearGradient>
    <linearGradient id="paint14_linear" x1="246.765" y1="69.538" x2="268.111" y2="69.538" gradientUnits="userSpaceOnUse">
    <stop offset="0.1885"/>
    <stop offset="0.9861"/>
    </linearGradient>
    <linearGradient id="paint15_linear" x1="233.248" y1="38.3457" x2="264.189" y2="38.3457" gradientUnits="userSpaceOnUse">
    <stop offset="0.1885" stop-color="#C6C6C6"/>
    <stop offset="0.9861" stop-color="#FF0000"/>
    </linearGradient>
    <linearGradient id="paint16_linear" x1="231.624" y1="45.433" x2="256.896" y2="63.1428" gradientUnits="userSpaceOnUse">
    <stop offset="0.1687" stop-color="#F4E0E0"/>
    <stop offset="0.7907" stop-color="#A04D4D"/>
    </linearGradient>
    <linearGradient id="paint17_linear" x1="238.977" y1="17.0696" x2="248.964" y2="36.1897" gradientUnits="userSpaceOnUse">
    <stop offset="0.0615" stop-color="white"/>
    <stop offset="1"/>
    </linearGradient>
    <linearGradient id="paint18_linear" x1="238.977" y1="17.0696" x2="248.964" y2="36.1897" gradientUnits="userSpaceOnUse">
    <stop offset="0.0615" stop-color="white"/>
    <stop offset="1" stop-color="white"/>
    </linearGradient>
    <linearGradient id="paint19_linear" x1="266.361" y1="34.7787" x2="290.165" y2="26.7423" gradientUnits="userSpaceOnUse">
    <stop offset="0.1885"/>
    <stop offset="0.9861" stop-color="#FF0000"/>
    </linearGradient>
    <linearGradient id="paint20_linear" x1="226.028" y1="34.7788" x2="202.224" y2="26.7423" gradientUnits="userSpaceOnUse">
    <stop offset="0.1885"/>
    <stop offset="0.9861" stop-color="#FF0000"/>
    </linearGradient>
    <linearGradient id="paint21_linear" x1="253.206" y1="22.3181" x2="248.475" y2="-0.397981" gradientUnits="userSpaceOnUse">
    <stop offset="0.1885"/>
    <stop offset="0.9861" stop-color="#FF0000"/>
    </linearGradient>
    <linearGradient id="paint22_linear" x1="263.537" y1="16.4184" x2="279.445" y2="16.4184" gradientUnits="userSpaceOnUse">
    <stop offset="0.1885"/>
    <stop offset="0.9861" stop-color="#FF0000"/>
    </linearGradient>
    <linearGradient id="paint23_linear" x1="222.77" y1="16.6632" x2="236.749" y2="16.6632" gradientUnits="userSpaceOnUse">
    <stop offset="0.1885" stop-color="#C20000"/>
    <stop offset="0.9861"/>
    </linearGradient>
    <linearGradient id="paint24_linear" x1="378.608" y1="288.537" x2="390.565" y2="288.537" gradientUnits="userSpaceOnUse">
    <stop offset="0.1885" stop-color="#3D2F00"/>
    <stop offset="0.9861"/>
    </linearGradient>
    <linearGradient id="paint25_linear" x1="387.73" y1="278.74" x2="401.299" y2="278.74" gradientUnits="userSpaceOnUse">
    <stop offset="0.1885" stop-color="#4D3C00"/>
    <stop offset="0.9861"/>
    </linearGradient>
    <linearGradient id="paint26_linear" x1="393.309" y1="287.617" x2="410.636" y2="287.617" gradientUnits="userSpaceOnUse">
    <stop offset="0.1885" stop-color="#460000"/>
    <stop offset="0.9861"/>
    </linearGradient>
    <linearGradient id="paint27_linear" x1="354.712" y1="228.567" x2="353.12" y2="228.567" gradientUnits="userSpaceOnUse">
    <stop offset="0.1885" stop-color="#FFD234"/>
    <stop offset="0.9861" stop-color="#FFB000"/>
    </linearGradient>
    <linearGradient id="paint28_linear" x1="354.914" y1="228.383" x2="347.846" y2="228.383" gradientUnits="userSpaceOnUse">
    <stop offset="0.1885" stop-color="#FFD234"/>
    <stop offset="0.9861" stop-color="#FFB000"/>
    </linearGradient>
    <linearGradient id="paint29_linear" x1="363.665" y1="228.567" x2="362.074" y2="228.567" gradientUnits="userSpaceOnUse">
    <stop offset="0.1885" stop-color="#FFD234"/>
    <stop offset="0.9861" stop-color="#FFB000"/>
    </linearGradient>
    <linearGradient id="paint30_linear" x1="363.868" y1="228.383" x2="356.799" y2="228.383" gradientUnits="userSpaceOnUse">
    <stop offset="0.1885" stop-color="#FFD234"/>
    <stop offset="0.9861" stop-color="#FFB000"/>
    </linearGradient>
    <linearGradient id="paint31_linear" x1="363.286" y1="160.791" x2="345.732" y2="160.791" gradientUnits="userSpaceOnUse">
    <stop offset="0.1885" stop-color="#AE0000"/>
    <stop offset="0.9861" stop-color="#FF0000"/>
    </linearGradient>
    <linearGradient id="paint32_linear" x1="589.21" y1="411.425" x2="621.566" y2="411.425" gradientUnits="userSpaceOnUse">
    <stop offset="0.1885" stop-color="#424242"/>
    <stop offset="0.9861" stop-color="#FF0000"/>
    </linearGradient>
    <linearGradient id="paint33_linear" x1="420.844" y1="198.752" x2="428.629" y2="208.622" gradientUnits="userSpaceOnUse">
    <stop offset="0.1885" stop-color="#FF3434"/>
    <stop offset="1" stop-color="#FF0000"/>
    </linearGradient>
    <clipPath id="clip0">
    <rect width="776" height="605" fill="white"/>
    </clipPath>
    </defs>
    </svg>
