<svg width="404" height="338" viewBox="0 0 404 338" fill="none" xmlns="http://www.w3.org/2000/svg">
    <g filter="url(#filter0_d)">
        <rect width="293" height="329.145" rx="9" fill="#C4C4C4" />
        <rect x="164" y="164.572" width="232" height="164.572" rx="10" fill="#C4C4C4" />
        <path d="M17.2693 57.1709H31.0242V96.9854C31.0242 101.438 31.5515 104.69 32.6062 106.741C34.2468 110.374 37.821 112.19 43.3289 112.19C48.8074 112.19 52.3669 110.374 54.0076 106.741C55.0623 104.69 55.5896 101.438 55.5896 96.9854V57.1709H69.3445V96.9854C69.3445 103.87 68.2751 109.231 66.1365 113.069C62.1521 120.101 54.5496 123.616 43.3289 123.616C32.1082 123.616 24.491 120.101 20.4773 113.069C18.3386 109.231 17.2693 103.87 17.2693 96.9854V57.1709ZM107.841 72.9033C112.792 72.9033 116.835 74.207 119.969 76.8145C123.134 79.3926 124.716 83.6846 124.716 89.6904V121.946H111.884V92.8105C111.884 90.291 111.547 88.3574 110.873 87.0098C109.642 84.5488 107.299 83.3184 103.842 83.3184C99.5935 83.3184 96.6785 85.1201 95.0964 88.7236C94.2761 90.6279 93.866 93.0596 93.866 96.0186V121.946H81.3855V74.1338H93.4705V81.1211C95.0818 78.6602 96.6052 76.8877 98.0408 75.8037C100.619 73.8701 103.885 72.9033 107.841 72.9033ZM153.983 72.9033C156.884 72.9033 159.462 73.5479 161.718 74.8369C163.973 76.0967 165.804 77.8545 167.211 80.1104V57.2588H179.911V121.946H167.738V115.311C165.951 118.152 163.915 120.218 161.63 121.507C159.344 122.796 156.503 123.44 153.104 123.44C147.509 123.44 142.792 121.185 138.954 116.673C135.145 112.132 133.241 106.316 133.241 99.2266C133.241 91.0527 135.116 84.6221 138.866 79.9346C142.645 75.2471 147.684 72.9033 153.983 72.9033ZM156.708 112.894C160.253 112.894 162.948 111.575 164.794 108.938C166.639 106.302 167.562 102.889 167.562 98.6992C167.562 92.8398 166.083 88.6504 163.124 86.1309C161.307 84.6074 159.198 83.8457 156.796 83.8457C153.134 83.8457 150.438 85.2373 148.71 88.0205C147.01 90.7744 146.161 94.2021 146.161 98.3037C146.161 102.728 147.025 106.272 148.754 108.938C150.511 111.575 153.163 112.894 156.708 112.894ZM210.233 83.0986C207.333 83.0986 205.077 84.0068 203.466 85.8232C201.884 87.6396 200.887 90.1006 200.477 93.2061H219.945C219.74 89.8955 218.729 87.3906 216.913 85.6914C215.126 83.9629 212.899 83.0986 210.233 83.0986ZM210.233 72.7715C214.218 72.7715 217.806 73.5186 221 75.0127C224.193 76.5068 226.83 78.8652 228.91 82.0879C230.785 84.9297 232.001 88.2256 232.557 91.9756C232.88 94.1729 233.011 97.3369 232.953 101.468H200.17C200.345 106.272 201.854 109.642 204.696 111.575C206.425 112.776 208.505 113.377 210.936 113.377C213.514 113.377 215.609 112.645 217.22 111.18C218.099 110.389 218.876 109.29 219.55 107.884H232.338C232.015 110.726 230.536 113.611 227.899 116.541C223.798 121.199 218.055 123.528 210.673 123.528C204.579 123.528 199.203 121.565 194.545 117.64C189.886 113.714 187.557 107.327 187.557 98.4795C187.557 90.1885 189.652 83.8311 193.842 79.4072C198.06 74.9834 203.524 72.7715 210.233 72.7715ZM267.45 72.9033C267.684 72.9033 267.875 72.918 268.021 72.9473C268.197 72.9473 268.563 72.9619 269.12 72.9912V85.8232C268.329 85.7354 267.626 85.6768 267.01 85.6475C266.395 85.6182 265.897 85.6035 265.516 85.6035C260.477 85.6035 257.094 87.2441 255.365 90.5254C254.398 92.3711 253.915 95.2129 253.915 99.0508V121.946H241.302V74.0459H253.256V82.3955C255.189 79.2021 256.874 77.0195 258.309 75.8477C260.653 73.8848 263.7 72.9033 267.45 72.9033Z" fill="black" />
        <path d="M103.495 202.709H95.8049V180.957H38.9397V172.08H95.8049V150.327H103.495V202.709ZM103.715 209.697V217.607H79.6331C82.0061 219.482 83.676 221.167 84.6428 222.661C86.3127 225.209 87.1477 228.388 87.1477 232.197C87.1477 239.023 84.76 243.652 79.9846 246.083C77.3772 247.402 73.759 248.061 69.1301 248.061H38.9397V239.931H68.6028C72.0598 239.931 74.594 239.492 76.2053 238.613C78.7834 237.177 80.0725 234.482 80.0725 230.527C80.0725 227.246 78.9446 224.272 76.6887 221.606C74.4329 218.94 70.1702 217.607 63.9006 217.607H38.9397V209.697H103.715ZM87.0598 279.394C87.0598 282.734 86.2688 285.971 84.6868 289.106C83.134 292.241 81.1125 294.628 78.6223 296.269C76.2493 297.851 73.4807 298.906 70.3167 299.433C68.1487 299.902 64.6917 300.136 59.9456 300.136V265.639C55.1702 265.786 51.3323 266.914 48.4319 269.023C45.5608 271.132 44.1252 274.399 44.1252 278.823C44.1252 282.954 45.4875 286.25 48.2122 288.71C49.7942 290.117 51.6252 291.113 53.7053 291.699V299.477C51.9768 299.272 50.0432 298.583 47.9045 297.412C45.7952 296.269 44.0667 294.98 42.719 293.544C40.3752 291.142 38.7932 288.168 37.9729 284.624C37.5042 282.719 37.2698 280.566 37.2698 278.164C37.2698 272.304 39.3938 267.338 43.6418 263.266C47.9192 259.194 53.8958 257.158 61.5715 257.158C69.1301 257.158 75.2678 259.208 79.9846 263.31C84.7014 267.412 87.0598 272.773 87.0598 279.394ZM66.2297 292.006C69.6575 291.684 72.3967 290.937 74.4475 289.765C78.2561 287.597 80.1604 283.979 80.1604 278.911C80.1604 275.278 78.842 272.231 76.2053 269.77C73.5979 267.309 70.2727 266.005 66.2297 265.859V292.006Z" fill="white" />
        <path d="M147.868 264.81C148.278 267.769 149.084 269.981 150.285 271.446C152.482 274.112 156.247 275.445 161.579 275.445C164.772 275.445 167.365 275.093 169.357 274.39C173.137 273.042 175.026 270.537 175.026 266.875C175.026 264.737 174.089 263.081 172.214 261.909C170.339 260.767 167.395 259.756 163.381 258.877L156.525 257.339C149.787 255.816 145.129 254.16 142.551 252.373C138.186 249.385 136.003 244.712 136.003 238.355C136.003 232.554 138.112 227.735 142.331 223.897C146.55 220.059 152.746 218.14 160.92 218.14C167.746 218.14 173.562 219.956 178.366 223.589C183.2 227.193 185.734 232.437 185.969 239.322H172.961C172.727 235.425 171.027 232.656 167.863 231.016C165.754 229.932 163.132 229.39 159.997 229.39C156.511 229.39 153.728 230.093 151.647 231.499C149.567 232.906 148.527 234.868 148.527 237.388C148.527 239.702 149.553 241.431 151.604 242.573C152.922 243.335 155.734 244.229 160.041 245.254L171.203 247.935C176.096 249.107 179.787 250.674 182.277 252.637C186.145 255.684 188.078 260.093 188.078 265.865C188.078 271.782 185.808 276.704 181.267 280.63C176.755 284.527 170.368 286.475 162.106 286.475C153.669 286.475 147.033 284.556 142.199 280.718C137.365 276.851 134.948 271.548 134.948 264.81H147.868ZM192.165 246.265V237.344H198.845V223.985H211.237V237.344H219.016V246.265H211.237V271.577C211.237 273.54 211.486 274.771 211.984 275.269C212.482 275.738 214.006 275.972 216.555 275.972C216.936 275.972 217.331 275.972 217.741 275.972C218.181 275.943 218.605 275.913 219.016 275.884V285.244L213.083 285.464C207.165 285.669 203.122 284.644 200.954 282.388C199.548 280.952 198.845 278.74 198.845 275.752V246.265H192.165ZM253.469 261.514C252.678 262.012 251.872 262.422 251.052 262.744C250.261 263.037 249.162 263.316 247.756 263.579L244.943 264.107C242.307 264.575 240.417 265.147 239.274 265.821C237.341 266.963 236.374 268.736 236.374 271.138C236.374 273.277 236.96 274.829 238.132 275.796C239.333 276.734 240.783 277.202 242.482 277.202C245.178 277.202 247.653 276.411 249.909 274.829C252.194 273.247 253.381 270.362 253.469 266.172V261.514ZM245.866 255.669C248.181 255.376 249.836 255.01 250.832 254.571C252.619 253.809 253.513 252.622 253.513 251.011C253.513 249.048 252.824 247.7 251.447 246.968C250.1 246.206 248.107 245.825 245.471 245.825C242.512 245.825 240.417 246.558 239.187 248.023C238.308 249.107 237.722 250.572 237.429 252.417H225.344C225.607 248.228 226.779 244.785 228.859 242.09C232.17 237.871 237.854 235.762 245.91 235.762C251.154 235.762 255.812 236.802 259.885 238.882C263.957 240.962 265.993 244.888 265.993 250.659V272.632C265.993 274.156 266.022 276.001 266.081 278.169C266.169 279.81 266.418 280.923 266.828 281.509C267.238 282.095 267.854 282.578 268.674 282.959V284.805H255.051C254.67 283.838 254.406 282.93 254.26 282.08C254.113 281.231 253.996 280.264 253.908 279.18C252.18 281.055 250.188 282.652 247.932 283.97C245.236 285.523 242.189 286.299 238.791 286.299C234.455 286.299 230.866 285.069 228.024 282.608C225.212 280.117 223.806 276.602 223.806 272.061C223.806 266.172 226.076 261.909 230.617 259.273C233.107 257.837 236.77 256.812 241.604 256.197L245.866 255.669ZM290.031 231.192H277.331V219.634H290.031V231.192ZM277.331 236.905H290.031V284.805H277.331V236.905ZM328.22 235.762C328.454 235.762 328.645 235.777 328.791 235.806C328.967 235.806 329.333 235.821 329.89 235.85V248.682C329.099 248.594 328.396 248.535 327.78 248.506C327.165 248.477 326.667 248.462 326.286 248.462C321.247 248.462 317.863 250.103 316.135 253.384C315.168 255.23 314.685 258.072 314.685 261.909V284.805H302.072V236.905H314.025V245.254C315.959 242.061 317.644 239.878 319.079 238.706C321.423 236.743 324.47 235.762 328.22 235.762ZM347.028 269.512C347.292 271.739 347.863 273.321 348.742 274.258C350.295 275.928 353.166 276.763 357.355 276.763C359.816 276.763 361.765 276.397 363.2 275.664C364.665 274.932 365.397 273.833 365.397 272.368C365.397 270.962 364.812 269.893 363.64 269.16C362.468 268.428 358.117 267.168 350.588 265.381C345.168 264.033 341.345 262.349 339.118 260.327C336.892 258.335 335.778 255.464 335.778 251.714C335.778 247.29 337.507 243.496 340.964 240.332C344.45 237.139 349.343 235.542 355.642 235.542C361.618 235.542 366.481 236.743 370.231 239.146C374.011 241.519 376.179 245.635 376.735 251.494H364.211C364.035 249.883 363.581 248.609 362.849 247.671C361.472 245.972 359.128 245.122 355.817 245.122C353.093 245.122 351.145 245.547 349.973 246.397C348.83 247.246 348.259 248.242 348.259 249.385C348.259 250.821 348.874 251.861 350.104 252.505C351.335 253.179 355.686 254.336 363.156 255.977C368.137 257.149 371.872 258.921 374.362 261.294C376.823 263.697 378.054 266.699 378.054 270.303C378.054 275.049 376.281 278.931 372.736 281.948C369.221 284.937 363.771 286.431 356.389 286.431C348.859 286.431 343.293 284.849 339.689 281.685C336.115 278.491 334.328 274.434 334.328 269.512H347.028Z" fill="#FF0000" />
    </g>
    <defs>
        <filter id="filter0_d" x="0" y="0" width="404" height="337.145" filterUnits="userSpaceOnUse" color-interpolation-filters="sRGB">
            <feFlood flood-opacity="0" result="BackgroundImageFix" />
            <feColorMatrix in="SourceAlpha" type="matrix" values="0 0 0 0 0 0 0 0 0 0 0 0 0 0 0 0 0 0 127 0" />
            <feOffset dx="4" dy="4" />
            <feGaussianBlur stdDeviation="2" />
            <feColorMatrix type="matrix" values="0 0 0 0 0 0 0 0 0 0 0 0 0 0 0 0 0 0 0.25 0" />
            <feBlend mode="normal" in2="BackgroundImageFix" result="effect1_dropShadow" />
            <feBlend mode="normal" in="SourceGraphic" in2="effect1_dropShadow" result="shape" />
        </filter>
    </defs>
</svg>
