<svg width="624" height="624" viewBox="0 0 624 624" fill="none" xmlns="http://www.w3.org/2000/svg">
<g clip-path="url(#clip0)">
<path d="M559.572 546.919C528.002 522.899 474.009 463.294 545.112 369.728C633.037 254.021 527.737 206.549 426.805 211.505C345.604 215.49 254.218 113.257 163.056 131.529C42.0561 155.781 120.623 260.131 38.5807 316.351C-31.3865 364.297 -1.34821 510.388 89.7141 546.919H559.572Z" fill="#F0CCCC"/>
<path d="M614.089 334.134C613.602 316.975 597.642 310.32 586.989 322.743C580.876 329.869 575.052 340.089 573.961 353.759C571.523 384.349 598.246 375.487 608.233 359.107C612.493 352.121 614.336 342.806 614.089 334.134Z" fill="#F0CCCC"/>
<path d="M290.093 107.345C272.958 107.803 266.282 123.773 278.667 134.465C285.771 140.599 295.967 146.452 309.616 147.568C340.157 150.067 331.354 123.288 315.018 113.258C308.049 108.978 298.752 107.115 290.093 107.345Z" fill="#F0CCCC"/>
<path d="M55.4797 274.048C62.2188 258.264 50.5131 245.523 35.643 252.329C27.1116 256.233 17.5433 263.069 10.8326 275.022C-4.18368 301.773 23.7896 304.942 39.7106 294.263C46.5023 289.707 52.0739 282.025 55.4797 274.048Z" fill="#F0CCCC"/>
<path d="M601.206 555.861C601.206 568.713 471.967 579.131 312.544 579.131C153.122 579.131 23.8831 568.713 23.8831 555.861C23.8831 543.011 153.122 532.594 312.544 532.594C471.967 532.594 601.206 543.011 601.206 555.861Z" fill="#CBE2F2"/>
<path d="M510.317 551.817C510.746 554.063 511.428 556.148 512.317 558.07H559.199C561.046 553.665 561.04 549.078 558.309 545.184C541.227 520.821 562.301 521.307 565.637 504.656C569.297 486.388 551.922 495.832 557.192 471.368C564.335 438.215 548.85 422.294 541.014 441.43C533.622 459.483 537.423 466.872 519.339 480.408C504.341 491.632 530.517 509.597 515.654 527.345C509.319 534.907 508.815 543.941 510.317 551.817Z" fill="#B92323"/>
<path d="M530.551 558.034C535.876 515.081 545.232 468.14 545.357 467.513C545.485 466.872 545.072 466.247 544.431 466.119C543.791 465.99 543.167 466.405 543.039 467.045C542.91 467.678 533.505 514.885 528.168 558.034H530.551Z" fill="#A53232"/>
<path d="M587.53 558.062C587.438 557.711 587.334 557.358 587.213 557.004C574.871 520.779 600.711 528.969 610.809 509.614C621.884 488.38 597.044 493.783 612.33 465.481C633.049 427.125 619.647 401.896 603.106 422.699C587.501 442.322 589.539 452.813 562.356 463.013C539.814 471.469 565.678 503.071 540.961 519.628C530.426 526.686 526.558 537.653 525.59 547.918C525.253 551.468 525.456 554.866 526.113 558.062H587.53Z" fill="#D40000"/>
<path d="M550.349 558.018C572.004 508.364 598.653 457.148 599.021 456.441C599.41 455.697 599.122 454.777 598.379 454.387C597.635 453.997 596.716 454.284 596.327 455.03C595.953 455.745 568.842 507.856 547.031 558.018H550.349Z" fill="#B92323"/>
<path d="M113.942 551.817C113.515 554.063 112.832 556.148 111.944 558.07H65.0614C63.2136 553.665 63.2207 549.078 65.9519 545.184C83.0332 520.821 61.9596 521.307 58.622 504.656C54.962 486.388 72.3388 495.832 67.0682 471.368C59.9243 438.215 75.4093 422.294 83.2449 441.43C90.6373 459.483 86.8367 466.872 104.922 480.408C119.919 491.632 93.7434 509.597 108.606 527.345C114.942 534.907 115.448 543.941 113.942 551.817Z" fill="#B92323"/>
<path d="M93.7797 558.034C88.4552 515.081 79.1 468.14 78.975 467.513C78.8458 466.872 79.2605 466.247 79.901 466.119C80.5401 465.99 81.1636 466.405 81.2929 467.045C81.4207 467.678 90.8256 514.885 96.1629 558.034H93.7797Z" fill="#A53232"/>
<path d="M36.8772 558.062C36.971 557.711 37.0732 557.358 37.1939 557.004C49.5359 520.779 23.6959 528.969 13.5993 509.614C2.52275 488.38 27.3644 493.783 12.0768 465.481C-8.64043 427.125 4.76107 401.896 21.3013 422.699C36.907 442.322 34.8676 452.813 62.0512 463.013C84.5934 471.469 58.7292 503.071 83.4473 519.628C93.9827 526.686 97.8486 537.653 98.8187 547.918C99.1553 551.468 98.9522 554.866 98.2974 558.062H36.8772Z" fill="#D40000"/>
<path d="M74.0983 558.018C52.4423 508.364 25.7927 457.148 25.4249 456.441C25.0372 455.697 25.324 454.777 26.0683 454.387C26.811 453.997 27.73 454.284 28.1191 455.03C28.494 455.745 55.6038 507.856 77.4146 558.018H74.0983Z" fill="#B92323"/>
<path d="M173.073 558.016H176.637L171.16 542.652C171.868 537.184 174.08 526.8 181 515.238C191.18 498.224 193.789 486.173 185.266 486.238C174.21 486.326 166.283 513.261 168.595 535.453L155.557 498.878C156.087 494.148 158.023 485.107 164.894 473.74C173.988 458.699 181.007 441.06 169.817 442.018C158.587 442.98 150.525 470.062 153.292 492.521L142.42 462.02C142.742 459.058 143.948 453.333 148.31 446.116C154.042 436.637 158.465 425.521 151.413 426.125C144.315 426.732 139.224 443.896 141.013 458.073L138.71 451.616C136.598 432.124 123.176 410.552 114.974 412.347C106.779 414.142 114.812 426.526 125.437 437.535C130.023 442.287 132.933 447.495 134.978 451.142L139.452 463.691C131.466 453.936 119.767 446.935 114.698 450.411C108.858 454.416 119.311 460.215 129.74 463.918C135.324 465.9 139.23 468.301 141.799 470.28L155.601 508.998C143.045 491.612 122.095 478.182 113.41 484.139C104.143 490.494 120.729 499.695 137.277 505.569C147.921 509.347 154.729 514.087 158.619 517.467L169.366 547.617C157.252 528.616 134.085 512.968 124.834 519.311C115.566 525.668 132.153 534.869 148.702 540.743C161.055 545.128 168.246 550.812 171.697 554.154L173.073 558.016Z" fill="#D40000"/>
<path d="M441.826 485.106L438.321 484.457L446.495 470.345C446.791 464.84 446.5 454.227 441.795 441.598C434.871 423.014 434.492 410.687 442.863 412.304C453.718 414.404 456.625 442.332 450.325 463.734L469.782 430.14C470.12 425.392 469.858 416.15 465.164 403.723C458.95 387.276 455.249 368.653 466.08 371.632C476.949 374.623 479.96 402.722 473.164 424.303L489.39 396.287C489.61 393.315 489.464 387.468 486.483 379.577C482.569 369.212 480.237 357.475 487.063 359.354C493.932 361.243 495.821 379.046 491.491 392.663L494.927 386.732C500.541 367.951 517.655 349.179 525.395 352.437C533.127 355.694 522.981 366.409 510.534 375.301C505.162 379.14 501.355 383.733 498.682 386.946L492.006 398.471C501.63 390.332 514.404 385.577 518.757 389.918C523.773 394.919 512.442 398.72 501.514 400.462C495.664 401.394 491.386 403.045 488.501 404.523L467.902 440.085C483.405 425.273 506.443 415.881 513.902 423.319C521.863 431.254 503.881 437.284 486.543 440.048C475.392 441.826 467.837 445.247 463.398 447.861L447.36 475.555C462.719 459.076 488.341 447.905 496.286 455.827C504.245 463.764 486.266 469.793 468.926 472.557C455.982 474.62 447.881 478.899 443.88 481.558L441.826 485.106Z" fill="#D40000"/>
<path d="M446.788 453.916L446.626 566.83L283.404 566.593L283.565 453.68L446.788 453.916Z" fill="#F92E2E"/>
<path d="M446.784 453.916L446.774 461.154L365.062 533.473L283.556 460.919L283.566 453.68L365.067 526.483L446.784 453.916Z" fill="#B06E6E"/>
<path d="M349.369 512.18L288.13 566.57L283.404 566.562L283.408 563.685L345.859 508.219L349.369 512.18Z" fill="#B06E6E"/>
<path d="M446.546 564.323L446.542 566.821L441.386 566.812L380.305 512.246L383.828 508.295L446.546 564.323Z" fill="#B06E6E"/>
<path d="M283.556 453.68L365.062 526.487L446.778 453.916L283.556 453.68Z" fill="#F25353"/>
<path d="M347.719 67.2001C347.56 67.2158 347.398 67.1944 347.242 67.1276C345.589 66.4292 344.619 66.1035 344.609 66.1007C344.103 65.9314 343.829 65.3824 343.998 64.8746C344.169 64.3669 344.714 64.0938 345.222 64.263C345.264 64.2758 346.262 64.6115 347.993 65.3426C348.486 65.5502 348.718 66.1192 348.509 66.6127C348.367 66.9484 348.057 67.1631 347.719 67.2001Z" fill="#CBE2F2"/>
<path d="M397.101 119.146C397.757 120.902 398.373 122.716 398.933 124.534C399.069 124.983 399.507 125.26 399.957 125.212C400.018 125.206 400.079 125.194 400.14 125.175C400.651 125.017 400.938 124.475 400.781 123.965C400.212 122.109 399.583 120.26 398.911 118.466C398.724 117.965 398.17 117.712 397.667 117.9C397.166 118.086 396.913 118.645 397.101 119.146Z" fill="#F0CCCC"/>
<path d="M400.413 130.08C400.858 131.901 401.258 133.774 401.605 135.65C401.697 136.151 402.159 136.489 402.656 136.437C402.681 136.434 402.705 136.431 402.732 136.425C403.257 136.328 403.605 135.824 403.507 135.296C403.154 133.386 402.745 131.477 402.294 129.622C402.167 129.102 401.642 128.783 401.125 128.911C400.605 129.038 400.287 129.561 400.413 130.08Z" fill="#F0CCCC"/>
<path d="M404.539 159.266C405.019 159.216 405.395 158.814 405.404 158.319C405.432 156.376 405.418 154.424 405.361 152.523C405.346 151.988 404.9 151.567 404.366 151.583C403.823 151.602 403.411 152.046 403.428 152.581C403.485 154.454 403.498 156.374 403.468 158.289C403.461 158.824 403.887 159.263 404.421 159.272C404.462 159.273 404.501 159.27 404.539 159.266Z" fill="#CBE2F2"/>
<path d="M403.357 140.165C402.827 140.234 402.454 140.719 402.523 141.251C402.636 142.126 402.739 143.011 402.832 143.88C402.937 144.884 403.032 145.906 403.11 146.922C403.153 147.455 403.618 147.855 404.151 147.812C404.16 147.812 404.168 147.811 404.177 147.81C404.696 147.755 405.08 147.296 405.04 146.771C404.958 145.739 404.864 144.696 404.755 143.678C404.662 142.793 404.557 141.891 404.441 141.001C404.374 140.478 403.901 140.106 403.381 140.162C403.373 140.163 403.364 140.163 403.357 140.165Z" fill="#CBE2F2"/>
<path d="M394.917 113.94C395.092 114.331 395.496 114.55 395.901 114.507C396.001 114.496 396.099 114.47 396.194 114.428C396.682 114.209 396.902 113.635 396.682 113.148C395.895 111.384 395.042 109.624 394.147 107.92C393.897 107.447 393.313 107.265 392.84 107.514C392.368 107.763 392.186 108.349 392.434 108.822C393.311 110.491 394.146 112.212 394.917 113.94Z" fill="#F0CCCC"/>
<path d="M352.387 69.5482C354.047 70.3973 355.723 71.3232 357.369 72.2989C357.555 72.4084 357.762 72.4497 357.963 72.4284C358.257 72.3985 358.531 72.2321 358.693 71.959C358.965 71.4982 358.813 70.9036 358.353 70.632C356.674 69.6363 354.962 68.6905 353.266 67.8229C352.79 67.5797 352.208 67.7688 351.965 68.2453C351.722 68.7204 351.909 69.3035 352.387 69.5482Z" fill="#F0CCCC"/>
<path d="M366.795 78.6772C367 78.8337 367.247 78.8963 367.484 78.8707C367.738 78.8437 367.983 78.7157 368.15 78.4952C368.475 78.0699 368.393 77.4612 367.968 77.1369C366.436 75.9663 364.851 74.8256 363.255 73.7475C362.812 73.4488 362.212 73.5654 361.912 74.0092C361.613 74.4515 361.731 75.0532 362.172 75.3533C363.739 76.4115 365.294 77.5294 366.795 78.6772Z" fill="#F0CCCC"/>
<path d="M375.405 86.1384C375.618 86.3474 375.905 86.437 376.182 86.4072C376.398 86.3844 376.608 86.2891 376.773 86.1199C377.145 85.7373 377.136 85.1242 376.754 84.7516C375.378 83.4103 373.939 82.0904 372.472 80.8246C372.067 80.4747 371.457 80.5216 371.109 80.927C370.759 81.3309 370.805 81.9439 371.211 82.2924C372.645 83.5312 374.057 84.8256 375.405 86.1384Z" fill="#F0CCCC"/>
<path d="M383.029 94.5373C383.243 94.8047 383.569 94.9299 383.886 94.8958C384.063 94.8773 384.238 94.809 384.389 94.6881C384.806 94.3539 384.873 93.7451 384.539 93.3269C383.336 91.8236 382.069 90.3358 380.771 88.9049C380.412 88.5095 379.8 88.4797 379.405 88.8395C379.01 89.1994 378.98 89.8124 379.34 90.2078C380.609 91.6088 381.852 93.0667 383.029 94.5373Z" fill="#F0CCCC"/>
<path d="M389.679 103.861C389.881 104.191 390.247 104.357 390.606 104.319C390.744 104.306 390.882 104.26 391.008 104.183C391.464 103.903 391.609 103.307 391.329 102.851C390.325 101.204 389.256 99.5694 388.149 97.9892C387.843 97.5511 387.24 97.4445 386.802 97.7517C386.364 98.0589 386.259 98.6634 386.566 99.1015C387.65 100.648 388.696 102.249 389.679 103.861Z" fill="#F0CCCC"/>
<path d="M347.772 60.5663L352.005 44.8653L300.137 45.3119L347.772 60.5663Z" fill="#973535"/>
<path d="M300.137 45.3223L345.254 64.37L345.373 64.4212L347.315 67.6413L347.772 60.5795L300.137 45.3223Z" fill="#D52E2E"/>
<path d="M347.241 67.6615L343.036 66.9973L345.3 64.4414L347.241 67.6615Z" fill="#771515"/>
<path d="M339.697 62.0217L345.375 64.4183L333.682 77.6118L300.137 45.3223L339.697 62.0217Z" fill="#973535"/>
<path d="M604.013 169.789C606.863 169.789 609.184 167.466 609.184 164.61C609.184 161.756 606.863 159.433 604.013 159.433C601.161 159.433 598.843 161.756 598.843 164.61C598.843 167.466 601.161 169.789 604.013 169.789ZM604.013 157.066C608.167 157.066 611.547 160.452 611.547 164.61C611.547 168.772 608.167 172.157 604.013 172.157C599.859 172.157 596.479 168.772 596.479 164.61C596.479 160.452 599.859 157.066 604.013 157.066Z" fill="white"/>
<path d="M576.926 143.283C579.778 143.283 582.097 140.96 582.097 138.104C582.097 135.249 579.778 132.927 576.926 132.927C574.076 132.927 571.757 135.249 571.757 138.104C571.757 140.96 574.076 143.283 576.926 143.283ZM576.926 130.559C581.08 130.559 584.461 133.944 584.461 138.104C584.461 142.264 581.08 145.649 576.926 145.649C572.773 145.649 569.393 142.264 569.393 138.104C569.393 133.944 572.773 130.559 576.926 130.559Z" fill="white"/>
<path d="M567.685 106.031C568.336 106.031 568.866 106.56 568.866 107.215V112.433C568.866 113.087 568.336 113.618 567.685 113.618C567.031 113.618 566.503 113.087 566.503 112.433V107.215C566.503 106.56 567.031 106.031 567.685 106.031Z" fill="white"/>
<path d="M567.685 96.9667C568.336 96.9667 568.866 97.4958 568.866 98.1501V103.37C568.866 104.023 568.336 104.553 567.685 104.553C567.031 104.553 566.503 104.023 566.503 103.37V98.1501C566.503 97.4958 567.031 96.9667 567.685 96.9667Z" fill="white"/>
<path d="M560.383 104.127H565.065C565.717 104.127 566.247 104.656 566.247 105.31C566.247 105.963 565.717 106.494 565.065 106.494H560.383C559.731 106.494 559.201 105.963 559.201 105.31C559.201 104.656 559.731 104.127 560.383 104.127Z" fill="white"/>
<path d="M570.272 104.127H574.953C575.605 104.127 576.135 104.656 576.135 105.31C576.135 105.963 575.605 106.494 574.953 106.494H570.272C569.619 106.494 569.089 105.963 569.089 105.31C569.089 104.656 569.619 104.127 570.272 104.127Z" fill="white"/>
<path d="M609.214 135.281C609.866 135.281 610.396 135.81 610.396 136.465V141.685C610.396 142.337 609.866 142.868 609.214 142.868C608.561 142.868 608.032 142.337 608.032 141.685V136.465C608.032 135.81 608.561 135.281 609.214 135.281Z" fill="white"/>
<path d="M609.214 126.217C609.866 126.217 610.396 126.746 610.396 127.4V132.62C610.396 133.273 609.866 133.803 609.214 133.803C608.561 133.803 608.032 133.273 608.032 132.62V127.4C608.032 126.746 608.561 126.217 609.214 126.217Z" fill="white"/>
<path d="M601.912 133.377H606.595C607.247 133.377 607.776 133.906 607.776 134.56C607.776 135.213 607.247 135.744 606.595 135.744H601.912C601.26 135.744 600.73 135.213 600.73 134.56C600.73 133.906 601.26 133.377 601.912 133.377Z" fill="white"/>
<path d="M611.952 133.377H616.633C617.286 133.377 617.815 133.906 617.815 134.56C617.815 135.213 617.286 135.744 616.633 135.744H611.952C611.299 135.744 610.77 135.213 610.77 134.56C610.77 133.906 611.299 133.377 611.952 133.377Z" fill="white"/>
<path d="M96.9822 121.119C94.1317 121.119 91.8111 123.441 91.8111 126.297C91.8111 129.152 94.1317 131.475 96.9822 131.475C99.8341 131.475 102.153 129.152 102.153 126.297C102.153 123.441 99.8341 121.119 96.9822 121.119ZM96.9822 118.752C101.136 118.752 104.517 122.136 104.517 126.297C104.517 130.456 101.136 133.841 96.9822 133.841C92.828 133.841 89.4478 130.456 89.4478 126.297C89.4478 122.136 92.828 118.752 96.9822 118.752Z" fill="white"/>
<path d="M69.6001 96.2119C66.7482 96.2119 64.429 98.5331 64.429 101.389C64.429 104.245 66.7482 106.566 69.6001 106.566C72.4506 106.566 74.7712 104.245 74.7712 101.389C74.7712 98.5331 72.4506 96.2119 69.6001 96.2119ZM69.6001 93.8438C73.7543 93.8438 77.1345 97.2289 77.1345 101.389C77.1345 105.549 73.7543 108.935 69.6001 108.935C65.4459 108.935 62.0657 105.549 62.0657 101.389C62.0657 97.2289 65.4459 93.8438 69.6001 93.8438Z" fill="white"/>
<path d="M59.6318 136.998C59.6318 137.652 60.1616 138.183 60.8135 138.183H66.0244C66.6777 138.183 67.2075 137.652 67.2075 136.998C67.2075 136.345 66.6777 135.814 66.0244 135.814H60.8135C60.1616 135.814 59.6318 136.345 59.6318 136.998Z" fill="white"/>
<path d="M50.5046 136.998C50.5046 137.652 51.0344 138.183 51.6863 138.183H56.8986C57.5519 138.183 58.0803 137.652 58.0803 136.998C58.0803 136.345 57.5519 135.814 56.8986 135.814H51.6863C51.0344 135.814 50.5046 136.345 50.5046 136.998Z" fill="white"/>
<path d="M57.6543 129.611V134.299C57.6543 134.953 58.1826 135.482 58.8359 135.482C59.4893 135.482 60.0176 134.953 60.0176 134.299V129.611C60.0176 128.956 59.4893 128.426 58.8359 128.426C58.1826 128.426 57.6543 128.956 57.6543 129.611Z" fill="white"/>
<path d="M57.6543 139.588V144.276C57.6543 144.93 58.1826 145.459 58.8359 145.459C59.4893 145.459 60.0176 144.93 60.0176 144.276V139.588C60.0176 138.933 59.4893 138.404 58.8359 138.404C58.1826 138.404 57.6543 138.933 57.6543 139.588Z" fill="white"/>
<path d="M114.852 96.1698C114.852 96.8226 115.382 97.3531 116.035 97.3531H121.246C121.899 97.3531 122.428 96.8226 122.428 96.1698C122.428 95.5155 121.899 94.9864 121.246 94.9864H116.035C115.382 94.9864 114.852 95.5155 114.852 96.1698Z" fill="white"/>
<path d="M105.725 96.1698C105.725 96.8226 106.255 97.3531 106.906 97.3531H112.117C112.771 97.3531 113.299 96.8226 113.299 96.1698C113.299 95.5155 112.771 94.9864 112.117 94.9864H106.906C106.255 94.9864 105.725 95.5155 105.725 96.1698Z" fill="white"/>
<path d="M112.875 88.8572V93.5452C112.875 94.1994 113.404 94.7286 114.056 94.7286C114.709 94.7286 115.239 94.1994 115.239 93.5452V88.8572C115.239 88.2029 114.709 87.6738 114.056 87.6738C113.404 87.6738 112.875 88.2029 112.875 88.8572Z" fill="white"/>
<path d="M112.875 98.8357V103.524C112.875 104.178 113.404 104.707 114.056 104.707C114.709 104.707 115.239 104.178 115.239 103.524V98.8357C115.239 98.1829 114.709 97.6523 114.056 97.6523C113.404 97.6523 112.875 98.1829 112.875 98.8357Z" fill="white"/>
<path d="M61.876 220.527H40.7398C37.3965 220.527 34.6838 217.81 34.6838 214.462V193.295C34.6838 189.946 37.3965 187.231 40.7398 187.231H61.876C65.2207 187.231 67.9319 189.946 67.9319 193.295V214.462C67.9319 217.81 65.2207 220.527 61.876 220.527Z" fill="#F92E2E"/>
<path d="M60.747 197.056C60.6902 196.825 60.6376 196.595 60.5808 196.366C60.3791 195.557 59.9957 194.844 59.4503 194.214C59.0612 193.763 58.6095 193.379 58.0996 193.086C57.3966 192.681 56.6013 192.853 56.0815 193.48C55.154 194.601 54.2323 195.725 53.3177 196.854C52.7552 197.548 52.8475 198.497 53.5435 199.114C54.042 199.556 54.5675 199.969 55.083 200.391C55.1498 200.445 55.2279 200.487 55.2847 200.524C54.0562 203.833 51.9713 206.391 48.9774 208.233C48.6152 207.931 48.236 207.614 47.8554 207.297C47.6608 207.136 47.4662 206.972 47.266 206.817C46.6652 206.356 45.9693 206.311 45.3429 206.721C45.1455 206.849 44.9822 207.041 44.8302 207.226C43.9923 208.238 43.1657 209.261 42.3277 210.272C42.0607 210.592 41.8931 210.946 41.8335 211.356C41.8477 211.507 41.8633 211.657 41.8775 211.807C42.0238 212.061 42.1246 212.36 42.3249 212.561C42.8163 213.048 43.3546 213.487 43.998 213.777C44.7507 214.117 45.5375 214.324 46.3613 214.252C46.9038 214.203 47.4478 214.09 47.9747 213.943C49.3282 213.565 50.5624 212.918 51.7227 212.133C52.8731 211.356 53.9198 210.453 54.8813 209.454C56.1795 208.106 57.3299 206.637 58.3752 205.083C59.1989 203.859 59.9105 202.577 60.3706 201.168C60.6035 200.458 60.7598 199.734 60.8095 198.987C60.8279 198.687 60.8351 198.386 60.8478 198.086C60.8137 197.743 60.7796 197.399 60.747 197.056Z" fill="white"/>
<path d="M574.432 413.745H550.339C547.672 413.745 545.51 411.579 545.51 408.909V384.781C545.51 382.111 547.672 379.945 550.339 379.945H574.432C577.099 379.945 579.261 382.111 579.261 384.781V408.909C579.261 411.579 577.099 413.745 574.432 413.745Z" fill="#F92E2E"/>
<path d="M563.957 397.107C563.957 395.784 563.272 395.098 562.369 395.098C561.467 395.098 560.807 395.784 560.807 397.107C560.807 398.454 561.467 399.136 562.369 399.136C563.272 399.136 563.957 398.454 563.957 397.107ZM573.164 396.202C573.164 400.418 570.808 402.603 567.986 402.603C566.334 402.603 565.124 401.961 564.506 400.681C563.89 401.896 562.833 402.603 561.158 402.603C558.779 402.603 556.488 400.505 556.488 397.107C556.488 393.709 558.712 391.637 561.158 391.637C562.325 391.637 563.23 392.011 563.869 392.717V391.833H568.098V398.145C568.098 399.071 568.473 399.358 568.958 399.358C569.575 399.358 570.081 398.74 570.081 396.269C570.081 392.275 567.105 389.452 562.568 389.452C558.051 389.452 555.012 392.628 555.012 396.819C555.012 401.145 557.985 404.233 562.48 404.233C563.934 404.233 565.432 403.948 566.929 403.264L567.857 405.978C566.535 406.618 564.44 407.036 562.48 407.036C555.849 407.036 551.595 402.603 551.595 396.819C551.595 391.127 555.849 386.648 562.568 386.648C568.913 386.648 573.164 390.905 573.164 396.202Z" fill="white"/>
<path d="M567.482 196.777V304.608C567.482 314.678 559.33 322.845 549.27 322.845H291.314V138.481H509.269C525.347 138.481 539.898 145.005 550.435 155.555C560.967 166.103 567.482 180.681 567.482 196.777Z" fill="#D40000"/>
<path d="M567.45 281.836V304.67C567.45 314.74 559.297 322.907 549.238 322.907H333.604V281.836H567.45Z" fill="#E30001"/>
<path d="M352.118 190.485V322.908H235.485V190.485C235.485 161.72 258.77 138.404 287.49 138.404H300.432C329.01 138.579 352.118 161.827 352.118 190.485Z" fill="#B92423"/>
<path d="M352.107 190.485V322.908H248.416V190.485C248.416 161.827 271.526 138.579 300.1 138.404H300.421C328.999 138.579 352.107 161.827 352.107 190.485Z" fill="#A53332"/>
<path d="M235.383 322.893L190.969 401.206C174.654 429.971 184.717 453.287 213.437 453.287H226.378C255.055 453.113 291.346 429.864 307.6 401.206L352.014 322.893H235.383Z" fill="#B92423"/>
<path d="M352.118 315.275H235.485V322.841H352.118V315.275Z" fill="#B92323"/>
<path d="M492.701 185.467C492.701 195.81 484.33 204.194 474.001 204.194C463.674 204.194 455.302 195.81 455.302 185.467C455.302 175.123 463.674 166.74 474.001 166.74C484.33 166.74 492.701 175.123 492.701 185.467Z" fill="#B92323"/>
<path d="M492.701 181.886C492.701 189.332 488.364 195.763 482.08 198.781C479.635 199.956 476.895 200.614 474.001 200.614C463.674 200.614 455.302 192.23 455.302 181.886C455.302 171.545 463.674 163.16 474.001 163.16C484.33 163.16 492.701 171.545 492.701 181.886Z" fill="#553333"/>
<path d="M473.922 192.763C467.933 192.763 463.06 187.883 463.06 181.884C463.06 175.886 467.933 171.006 473.922 171.006C479.912 171.006 484.787 175.886 484.787 181.884C484.787 187.883 479.912 192.763 473.922 192.763Z" fill="#834F4F"/>
<path d="M477.076 56.5958V181.49C477.076 183.219 475.673 184.622 473.944 184.622C472.217 184.622 470.818 183.219 470.818 181.49V56.5958H477.076Z" fill="#939393"/>
<path d="M521.477 79.8947H470.818V51.6445H521.477L509.96 65.7696L521.477 79.8947Z" fill="#553333"/>
<path d="M477.076 79.9043V81.6068L470.818 83.7972V79.9043H477.076Z" fill="#F32B2B"/>
<path d="M429.122 322.893H404.188V561.931H429.122V322.893Z" fill="#B92423"/>
<path d="M471.989 566.869H361.442V561.453C361.442 553.046 368.248 546.229 376.644 546.229H456.786C465.183 546.229 471.989 553.046 471.989 561.453V566.869Z" fill="#D40000"/>
<path d="M429.122 322.893V329.339L404.188 338.077V322.893H429.122Z" fill="#A53332"/>
<path d="M201.046 235.797C210.296 269.498 240.773 278.905 240.773 278.905C252.857 276.338 260.515 272.702 268.118 268.509C265.866 263.107 264.889 257.62 263.639 250.491C252.415 253.619 242.722 255.29 242.722 255.29C219.028 244.291 204.658 191.648 204.658 191.648C190.575 205.037 201.046 235.797 201.046 235.797Z" fill="#1D71B9"/>
<path d="M121.378 506.619L111.354 520.047C111.354 520.047 113.184 526.051 120.608 530.676L132.598 515.227L121.378 506.619Z" fill="#F79B8A"/>
<path d="M118.95 526.49C118.95 526.49 123.639 525.477 125.244 527.102C126.849 528.726 130.876 550.817 134.643 555.649C138.411 560.483 134.618 563.049 132.299 564.029C129.981 565.008 96.7498 531.762 96.7498 531.762C96.7498 531.762 104.966 520.398 108.927 518.191C112.887 515.985 114.746 524.152 118.95 526.49Z" fill="#FF1212"/>
<path d="M119.659 539.416C119.449 539.335 119.271 539.172 119.177 538.944C118.997 538.499 119.2 537.986 119.633 537.794C119.778 537.73 123.211 536.228 125.955 536.735C129.606 537.407 130.512 540.549 130.549 540.682C130.677 541.146 130.414 541.631 129.963 541.768C129.513 541.905 129.041 541.641 128.915 541.177C128.889 541.092 128.233 538.939 125.634 538.456C123.398 538.043 120.321 539.385 120.289 539.399C120.079 539.49 119.855 539.49 119.659 539.416Z" fill="white"/>
<path d="M119.05 535.837C118.841 535.757 118.663 535.592 118.57 535.364C118.388 534.922 118.592 534.407 119.024 534.215C119.169 534.15 122.602 532.648 125.346 533.155C129.001 533.828 129.905 536.967 129.942 537.102C130.069 537.565 129.807 538.051 129.355 538.189C128.903 538.326 128.433 538.062 128.305 537.597C128.28 537.512 127.624 535.357 125.026 534.876C122.781 534.463 119.713 535.805 119.682 535.819C119.473 535.912 119.247 535.912 119.05 535.837Z" fill="white"/>
<path d="M121.179 543.078C120.97 542.996 120.793 542.833 120.699 542.605C120.517 542.16 120.722 541.647 121.154 541.455C121.3 541.389 124.733 539.889 127.477 540.395C131.131 541.068 132.036 544.208 132.073 544.343C132.199 544.806 131.936 545.292 131.485 545.429C131.034 545.565 130.563 545.301 130.436 544.837C130.411 544.753 129.753 542.598 127.156 542.116C124.91 541.702 121.843 543.046 121.813 543.059C121.603 543.153 121.377 543.153 121.179 543.078Z" fill="white"/>
<path d="M182.851 529.676L184.371 546.374C184.371 546.374 189.742 549.61 198.349 548.074L196.938 528.557L182.851 529.676Z" fill="#F79B8A"/>
<path d="M195.362 545.742C195.362 545.742 198.295 541.677 200.671 541.814C203.049 541.953 221.579 556.275 227.872 557.391C234.165 558.505 233.013 563.149 231.897 565.531C230.781 567.913 182.059 566.547 182.059 566.547C182.059 566.547 180.264 550.797 181.797 546.314C183.331 541.831 190.468 546.869 195.362 545.742Z" fill="#EE2224"/>
<path d="M207.421 556.314C207.21 556.385 206.967 556.372 206.75 556.257C206.328 556.029 206.157 555.504 206.368 555.079C206.439 554.938 208.124 551.587 210.562 550.226C213.801 548.41 216.501 550.25 216.615 550.33C217.008 550.603 217.116 551.146 216.855 551.54C216.595 551.934 216.064 552.031 215.67 551.756C215.596 551.705 213.72 550.466 211.411 551.756C209.427 552.866 207.911 555.866 207.896 555.897C207.794 556.102 207.62 556.245 207.421 556.314Z" fill="white"/>
<path d="M204.684 553.954C204.472 554.025 204.23 554.012 204.012 553.897C203.59 553.67 203.419 553.143 203.63 552.72C203.701 552.577 205.387 549.228 207.824 547.865C211.067 546.047 213.764 547.889 213.877 547.969C214.271 548.244 214.377 548.785 214.117 549.179C213.857 549.575 213.326 549.672 212.933 549.396C212.859 549.344 210.981 548.106 208.673 549.396C206.681 550.511 205.174 553.505 205.16 553.536C205.056 553.741 204.883 553.886 204.684 553.954Z" fill="white"/>
<path d="M210.92 558.219C210.708 558.292 210.467 558.279 210.25 558.162C209.826 557.938 209.656 557.411 209.867 556.986C209.938 556.844 211.624 553.494 214.06 552.132C217.302 550.313 220 552.155 220.113 552.234C220.507 552.509 220.615 553.052 220.353 553.445C220.093 553.84 219.562 553.937 219.17 553.661C219.096 553.612 217.217 552.372 214.909 553.661C212.917 554.776 211.411 557.77 211.396 557.801C211.293 558.006 211.12 558.151 210.92 558.219Z" fill="white"/>
<path d="M173.615 348.39L163.489 432.31C163.489 432.31 154.405 444.654 145.747 460.449C138.478 473.707 119.112 508.104 119.112 508.104L130.824 517.048L194.977 450.472L212.057 347.572L173.615 348.39Z" fill="#371818"/>
<path d="M133.618 516.863C132.564 519.51 130.598 521.311 128.302 522.821L114.7 511.319C115.841 508.904 117.402 506.816 119.334 505.02L133.618 516.863Z" fill="#553333"/>
<path d="M121.698 351.906C121.698 351.906 139.763 396.388 163.243 431.074C163.243 431.074 166.748 464.831 172.746 482.802C175.372 490.671 180.456 527.951 180.456 527.951L198.268 527.14L193.672 423.486L174.831 348.41L121.698 351.906Z" fill="#553333"/>
<path d="M200.015 526.5C201.145 529.602 200.834 532.676 200.015 535.758L179.402 536.334C178.526 533.366 178.266 530.357 178.548 527.309L200.015 526.5Z" fill="#834F4F"/>
<path d="M204.676 191.639C207.362 194.994 212.747 229.184 213.592 263.892C213.614 264.694 213.631 265.49 213.653 266.288C213.74 269.961 213.818 273.652 213.892 277.343C213.966 280.985 214.031 284.619 214.092 288.228C214.187 294.132 214.275 299.945 214.345 305.544C214.354 306.18 214.358 306.812 214.366 307.443C214.432 312.903 214.484 318.138 214.523 323.026C214.527 323.666 214.531 324.299 214.535 324.925C214.592 332.263 214.628 338.761 214.632 343.977V343.981C214.636 344.712 214.636 345.406 214.636 346.086C214.636 349.733 214.628 352.626 214.601 354.579C205.973 356.906 197.349 358.591 188.725 359.625C188.499 359.649 188.268 359.681 188.038 359.706C187.65 359.755 187.272 359.799 186.889 359.841C186.794 359.851 186.701 359.86 186.602 359.868C185.105 360.033 183.616 360.177 182.117 360.299C174.702 360.91 167.288 361.045 159.873 360.7C159.221 360.671 158.577 360.636 157.924 360.595C157.345 360.565 156.758 360.53 156.17 360.487C155.909 360.473 155.645 360.457 155.379 360.434C154.882 360.4 154.395 360.361 153.899 360.326C143.004 359.442 132.108 357.533 121.218 354.579C121.161 350.282 121.11 341.528 121.091 330.239C121.091 329.619 121.087 328.991 121.091 328.354C121.079 315.9 121.127 300.616 121.275 284.877C121.287 283.631 121.3 282.389 121.319 281.139C121.331 279.695 121.344 278.244 121.361 276.789C121.365 276.545 121.365 276.297 121.37 276.052C121.38 275.713 121.384 275.373 121.387 275.028C121.391 274.344 121.401 273.656 121.414 272.976C121.426 271.979 121.439 270.985 121.458 269.996C121.466 269.242 121.479 268.487 121.488 267.735C121.509 266.236 121.536 264.736 121.557 263.246C122.084 231.999 123.136 203.284 125.143 195.976C125.329 195.3 125.525 194.808 125.721 194.517C125.934 194.189 126.2 193.862 126.495 193.522C126.87 193.096 127.305 192.656 127.792 192.211C131.134 189.13 136.93 185.553 142.808 182.158C143.49 181.761 144.183 181.37 144.862 180.977C144.966 180.922 160.834 175.561 160.935 175.5L177.535 176.664C177.535 176.664 200.729 186.709 204.676 191.639Z" fill="#D40000"/>
<path d="M137.736 236.698C137.736 235.871 136.685 235.51 136.187 236.169C129.517 244.969 125.492 254.561 123.112 262.145C122.503 264.092 121.977 265.978 121.52 267.774C121.511 268.527 121.499 269.282 121.49 270.036C121.472 271.024 121.459 272.018 121.446 273.015C121.433 273.695 121.423 274.384 121.419 275.068C121.416 275.412 121.412 275.752 121.402 276.092C121.398 276.336 121.398 276.584 121.394 276.829C122.02 273.03 123.061 268.07 124.769 262.614C127.102 255.194 131.047 245.811 137.562 237.216C137.674 237.066 137.736 236.884 137.736 236.698Z" fill="#B92323"/>
<path d="M141.12 327.398H141.123C159.049 327.32 174.348 319.15 184.027 312.313C194.493 304.917 200.837 297.422 200.9 297.347C201.207 296.982 201.16 296.437 200.795 296.13C200.43 295.824 199.887 295.871 199.581 296.235C199.519 296.309 193.29 303.661 182.993 310.927C173.526 317.611 158.575 325.594 141.116 325.67C140.64 325.671 140.254 326.061 140.257 326.537C140.259 327.014 140.646 327.398 141.12 327.398Z" fill="#B92323"/>
<path d="M159.825 333.484C175.38 333.484 190.89 324.608 191.595 324.2C192.008 323.961 192.148 323.433 191.91 323.019C191.671 322.607 191.143 322.466 190.731 322.703C190.548 322.809 172.298 333.247 156.117 331.571C155.635 331.517 155.218 331.867 155.169 332.341C155.12 332.816 155.465 333.24 155.938 333.29C157.229 333.422 158.527 333.484 159.825 333.484Z" fill="#B92323"/>
<path d="M155.405 204.013C170.395 199.851 182.972 187.148 183.543 186.567C183.877 186.225 183.871 185.678 183.532 185.345C183.192 185.011 182.646 185.016 182.312 185.355C182.164 185.506 167.361 200.447 151.319 203.161C150.842 203.236 150.534 203.686 150.613 204.155C150.691 204.626 151.137 204.943 151.606 204.863C152.886 204.647 154.154 204.36 155.405 204.013Z" fill="#B92323"/>
<path d="M142.843 133.949C142.843 149.127 152.174 159.586 167.329 159.586C182.483 159.586 193.044 148.34 193.044 133.164C193.044 117.986 184.071 106.488 168.916 106.488C150.741 106.488 142.843 118.773 142.843 133.949Z" fill="#383355"/>
<path d="M143.113 137.948C143.113 137.948 137.815 129.928 140.619 123.745C143.518 117.346 142.046 118.747 142.768 113.941C143.489 109.135 146.986 107.155 151.171 106.463C155.358 105.768 152.489 100.944 158.292 99.2116C164.094 97.4778 168.744 103.545 172.475 100.826C176.206 98.1079 185.371 96.7709 187.946 100.826C190.519 104.881 192.81 104.855 195.554 104.724C198.856 104.567 203.285 109.784 200.296 114.587C197.308 119.391 192.275 117.484 192.969 120.791C193.667 124.099 197.922 129.928 192.217 137.334C190.488 139.576 143.113 137.948 143.113 137.948Z" fill="#383355"/>
<path d="M146.18 140.457C146.18 140.457 141.969 134.834 138.838 139.484C135.707 144.132 140.133 157.863 147.799 154.512L146.18 140.457Z" fill="#F47B68"/>
<path d="M146.154 150.299C145.871 150.299 145.611 150.111 145.53 149.825C144.343 145.585 139.957 143.867 139.913 143.85C139.579 143.722 139.412 143.348 139.538 143.013C139.663 142.678 140.038 142.51 140.372 142.635C140.575 142.713 145.41 144.592 146.779 149.474C146.874 149.819 146.674 150.176 146.33 150.273C146.272 150.29 146.212 150.299 146.154 150.299Z" fill="#CC544D"/>
<path d="M141.816 148.127C141.697 148.127 141.576 148.094 141.467 148.023C141.166 147.83 141.078 147.429 141.274 147.127C141.305 147.077 142.082 145.891 143.704 145.164C144.029 145.018 144.414 145.164 144.56 145.491C144.706 145.819 144.56 146.203 144.234 146.349C142.978 146.911 142.369 147.821 142.363 147.83C142.238 148.022 142.029 148.127 141.816 148.127Z" fill="#CC544D"/>
<path d="M189.642 140.457C189.642 140.457 193.853 134.834 196.983 139.484C200.115 144.132 195.688 157.863 188.023 154.512L189.642 140.457Z" fill="#F47B68"/>
<path d="M189.737 150.299C190.019 150.299 190.278 150.111 190.36 149.825C191.546 145.585 195.933 143.867 195.977 143.85C196.31 143.722 196.479 143.348 196.352 143.013C196.226 142.678 195.852 142.51 195.517 142.635C195.313 142.713 190.48 144.592 189.112 149.474C189.015 149.819 189.216 150.176 189.561 150.273C189.619 150.29 189.679 150.299 189.737 150.299Z" fill="#CC544D"/>
<path d="M194.169 148.127C194.29 148.127 194.412 148.094 194.52 148.023C194.819 147.83 194.907 147.429 194.713 147.127C194.682 147.077 193.906 145.891 192.281 145.164C191.958 145.018 191.573 145.164 191.426 145.491C191.28 145.819 191.426 146.203 191.753 146.349C193.009 146.911 193.619 147.821 193.624 147.83C193.747 148.022 193.956 148.127 194.169 148.127Z" fill="#CC544D"/>
<path d="M178.301 166.207V180.655C178.301 180.655 176.05 184.022 171.531 184.558C165.209 185.307 158.359 178.617 158.359 178.617V167.167L178.301 166.207Z" fill="#F79B8A"/>
<path d="M178.301 166.207V172.266C174.61 176.368 168.057 177.391 158.359 175.957V167.167L178.301 166.207Z" fill="#F47B68"/>
<path d="M144.03 140.214C144.085 141.005 144.151 141.806 144.23 142.614C144.435 144.649 144.709 146.737 145.08 148.818C145.094 148.893 145.104 148.962 145.118 149.027C146.949 159.097 151.065 168.995 159.935 172.17C180.032 179.355 187.207 162.1 190.079 152.038C190.396 150.922 190.682 149.679 190.934 148.353C190.942 148.302 190.952 148.245 190.967 148.185C191.245 146.696 191.486 145.109 191.691 143.476C191.844 142.265 191.975 141.038 192.091 139.799C192.383 136.794 192.574 133.778 192.699 131.102C192.992 124.987 189.335 119.362 183.615 117.164C175.372 113.991 162.858 111.478 150.999 118.213C146.618 120.697 143.872 125.304 143.774 130.344C143.723 133.127 143.764 136.542 144.03 140.214Z" fill="#F79B8A"/>
<path d="M167.572 156.109C178.116 154.663 180.736 157.361 181.228 160.489C178.371 163.5 175.179 165.235 172.246 165.896C168.627 166.72 161.299 166.646 155.95 162.424C155.412 159.991 154.802 152.889 167.572 156.109ZM144.06 140.191C144.115 140.982 144.18 141.782 144.26 142.59C144.464 144.626 144.738 146.713 145.109 148.794C145.123 148.87 145.133 148.938 145.147 149.003C146.978 159.073 151.094 168.971 159.965 172.146C180.062 179.332 187.237 162.076 190.108 152.014C190.425 150.898 190.712 149.655 190.963 148.329C190.972 148.278 190.982 148.221 190.996 148.161C191.274 146.672 191.516 145.085 191.72 143.452C191.874 142.242 192.004 141.014 192.121 139.775L189.11 140.562C188.249 145.118 186.958 151.754 185.277 154.849C182.641 148.407 167.991 153.727 167.991 153.727C167.991 153.727 154.927 149.079 150.505 153.7C148.4 148.343 146.531 140.562 146.531 140.562L144.06 140.191Z" fill="#383355"/>
<path d="M161.103 141.273C161.103 142.731 160.353 143.911 159.427 143.911C158.502 143.911 157.751 142.731 157.751 141.273C157.751 139.815 158.502 138.633 159.427 138.633C160.353 138.633 161.103 139.815 161.103 141.273Z" fill="#383355"/>
<path d="M180.574 141.273C180.574 142.731 179.824 143.911 178.898 143.911C177.973 143.911 177.222 142.731 177.222 141.273C177.222 139.815 177.973 138.633 178.898 138.633C179.824 138.633 180.574 139.815 180.574 141.273Z" fill="#383355"/>
<path d="M183.538 132.204C183.538 132.204 178.252 130.112 174.18 131.873L174.588 134.14C174.588 134.14 180.563 133.634 183.572 134.856C183.842 133.984 183.882 133.102 183.538 132.204Z" fill="#383355"/>
<path d="M152.825 132.204C152.825 132.204 158.112 130.112 162.184 131.873L161.776 134.14C161.776 134.14 155.801 133.634 152.791 134.856C152.522 133.984 152.482 133.102 152.825 132.204Z" fill="#383355"/>
<path d="M168.526 152.69C167.441 152.822 166.313 152.532 166.138 152.484C165.793 152.39 165.59 152.034 165.684 151.687C165.778 151.343 166.134 151.138 166.479 151.232C167.089 151.397 168.527 151.596 169.088 151.161C169.195 151.077 169.338 150.918 169.33 150.522C169.289 148.245 167.753 140.784 167.738 140.708C167.665 140.357 167.891 140.014 168.24 139.942C168.593 139.868 168.934 140.095 169.006 140.445C169.071 140.757 170.582 148.102 170.626 150.5C170.642 151.4 170.232 151.913 169.884 152.185C169.502 152.482 169.017 152.63 168.526 152.69Z" fill="#F47B68"/>
<path d="M159.728 156.609C160.258 159.278 162.016 164.185 167.944 164.185C173.887 164.185 175.554 159.7 176.126 156.609H159.728Z" fill="white"/>
<path d="M192.016 140.586H189.08C189.405 137.635 188.333 134.067 187.449 131.691C185.444 126.302 189.713 123.923 186.259 121.225C182.807 118.52 174.213 119.679 168.236 119.486C162.224 119.291 152.558 119.376 150.215 119.921C147.863 120.459 149.151 124.369 150.013 127.398C150.881 130.421 147.13 133.769 146.502 136.902C146.322 137.802 146.359 139.138 146.504 140.586H144.056C143.765 136.773 143.721 133.221 143.775 130.344C143.872 125.303 146.619 120.698 150.997 118.213C162.858 111.48 175.373 113.99 183.613 117.162C189.333 119.361 192.993 124.986 192.701 131.103C192.562 134.011 192.348 137.317 192.016 140.586Z" fill="#383355"/>
<path d="M223.237 153.105L310.941 225.662L206.057 352.813L118.351 280.258L223.237 153.105Z" fill="#F92E2E"/>
<path d="M223.234 153.105L228.857 157.758L232.681 267.877L123.974 284.906L118.351 280.255L227.247 263.388L223.234 153.105Z" fill="#B46B6B"/>
<path d="M206.133 266.449L209.15 349.102L206.112 352.783L203.876 350.935L200.801 266.645L206.133 266.449Z" fill="#B46B6B"/>
<path d="M309.096 224.021L311.035 225.626L307.723 229.641L226.107 242.278L225.293 236.997L309.096 224.021Z" fill="#B96565"/>
<path d="M118.351 280.258L227.256 263.391L223.237 153.105L118.351 280.258Z" fill="#F25353"/>
<path d="M204.632 312.305H207.659C210.363 312.305 212.418 310.712 213.632 308.291C214.168 307.221 214.896 305.264 215.401 304.591C216.815 302.703 220.675 299.531 222.121 299.434C223.567 299.339 223.3 302.033 222.277 303.213C221.256 304.394 219.644 305.897 218.781 307.567C217.916 309.235 225.855 312.619 229.078 313.407C232.3 314.193 237.958 312.463 238.509 315.138C239.059 317.815 234.815 318.209 234.815 318.209C234.815 318.209 236.058 320.618 232.536 322.616C232.536 322.616 233.165 324.978 230.886 326.238C230.886 326.238 231.144 329.229 228.5 330.015C225.855 330.803 217.602 333.2 201.41 323.36L204.632 312.305Z" fill="#F79B8A"/>
<path d="M149.008 243.491C155.121 266.626 161.117 276.854 161.117 276.854C161.117 276.854 167.977 287.349 182.072 297.28C191.863 304.178 207.595 312.331 207.595 312.331C204.881 315.867 202.965 322.849 204.013 324.938C171.306 324.938 142.702 293.908 142.702 293.908C119.818 254.024 118.325 221.543 118.7 209.709C118.832 205.543 120.043 201.462 122.334 197.982C123.517 196.184 124.997 194.523 126.734 193.705C126.734 193.705 136.545 197.366 139.954 208.894C143.363 220.42 149.008 243.491 149.008 243.491Z" fill="#B92323"/>
<path d="M294.697 245.498C294.697 245.498 287.421 242.922 284.08 244.316C280.736 245.71 290.001 250.735 290.001 250.735C290.001 250.735 278.768 244.748 276.829 247.161C274.889 249.574 285.633 255.702 285.633 255.702C285.633 255.702 277.407 252.806 275.737 254.507C274.065 256.208 281.735 261.01 281.735 261.01C281.735 261.01 274.983 259.377 273.574 260.525C272.165 261.674 278.15 266.49 281.951 267.764C285.748 269.039 286.362 263.682 286.362 263.682C286.362 263.682 289.935 260.53 289.46 258.343C289.46 258.343 293.168 255.84 293.429 253.279C293.429 253.279 298.661 248.665 294.697 245.498Z" fill="#F79B8A"/>
</g>
<defs>
<clipPath id="clip0">
<rect width="623.092" height="624" fill="white"/>
</clipPath>
</defs>
</svg>
