<svg width="630" height="630" viewBox="0 0 630 630" fill="none" xmlns="http://www.w3.org/2000/svg">
    <path d="M418.14 423.595L173.769 460.827C157.644 463.283 142.442 452.101 139.986 435.976L121.972 317.739C119.516 301.614 130.698 286.41 146.82 283.954L391.194 246.725C407.316 244.268 422.52 255.451 424.977 271.575L442.99 389.813C445.447 405.937 434.262 421.139 418.14 423.595Z" fill="#F15D5F" />
    <path d="M251.938 364.065L312.504 354.836L251.938 364.065Z" fill="#FCBA78" />
    <path d="M252.282 366.741L312.85 357.514L312.045 352.222L251.477 361.451" fill="#D07A33" />
    <path d="M127.354 297.511L242.53 174.655C249.198 167.539 259.861 165.899 268.357 170.678L411.148 250.967L127.354 297.511Z" fill="#F15D5F" />
    <path d="M386.151 344.89L178.477 376.529C163.117 378.868 148.638 368.218 146.3 352.861L129.214 240.711C126.873 225.355 137.526 210.873 152.882 208.534L360.557 176.895C375.916 174.554 390.395 185.206 392.734 200.563L409.822 312.713C412.161 328.069 401.508 342.551 386.151 344.89Z" fill="white" />
    <path d="M346.332 310.14C273.444 285.046 201.296 257.792 130.287 227.791C128.973 231.831 128.526 236.217 129.208 240.683L146.294 352.833C148.632 368.189 163.111 378.839 178.471 376.5L386.146 344.861C395.19 343.483 402.575 337.88 406.661 330.382C386.504 323.781 366.39 317.046 346.332 310.14Z" fill="#EEEDED" />
    <path d="M136.121 303.618L251.934 364.068L158.084 447.782" fill="#EF4641" />
    <path d="M134.89 305.901L247.27 364.559L156.31 445.696L159.872 449.688L256.612 363.397L137.365 301.157L134.89 305.901Z" fill="#E41E25" />
    <path d="M405.096 262.551L312.539 354.747L427.06 406.715" fill="#EF4641" />
    <path d="M403.225 260.706L307.925 355.631L425.972 409.201L428.182 404.326L317.189 353.959L407.003 264.497L403.228 260.706H403.225Z" fill="#E41E25" />
    <path d="M349.653 218.111L175.627 244.624C172.513 245.097 169.577 242.938 169.101 239.823C168.627 236.709 170.787 233.77 173.901 233.297L347.927 206.785C351.042 206.308 353.98 208.47 354.451 211.585C354.927 214.7 352.768 217.638 349.653 218.111Z" fill="#491417" />
    <path d="M353.496 243.03L179.472 269.543C176.358 270.016 173.422 267.857 172.946 264.742V264.74C172.472 261.625 174.632 258.689 177.746 258.213L351.773 231.701C354.887 231.227 357.825 233.387 358.296 236.504C358.773 239.619 356.613 242.554 353.496 243.03Z" fill="#491417" />
    <path d="M357.498 269.175L183.474 295.69C180.357 296.164 177.421 294.004 176.945 290.887C176.471 287.772 178.633 284.834 181.748 284.361L355.772 257.848C358.886 257.375 361.824 259.534 362.298 262.649C362.774 265.764 360.612 268.702 357.498 269.175Z" fill="#491417" />
    <path d="M361.343 294.095L187.319 320.607C184.202 321.081 181.267 318.921 180.79 315.807C180.317 312.692 182.479 309.754 185.593 309.28L359.617 282.765C362.731 282.292 365.67 284.451 366.143 287.566C366.617 290.683 364.457 293.621 361.343 294.095Z" fill="#491417" />
    <path d="M251.938 364.065L312.504 354.836L251.938 364.065Z" fill="#FCBA78" />
    <path d="M252.282 366.741L312.85 357.514L312.045 352.222L251.477 361.451" fill="#E41E25" />
    <path d="M58.0128 268.358C55.5457 268.358 53.5254 266.34 53.5254 263.87V231.816C53.5254 229.349 55.5457 227.329 58.0128 227.329C60.4799 227.329 62.5002 229.349 62.5002 231.816V263.87C62.5002 266.34 60.4799 268.358 58.0128 268.358Z" fill="white" />
    <path d="M78.558 247.815C78.558 250.282 76.5378 252.303 74.0706 252.303H42.0167C39.5496 252.303 37.5293 250.282 37.5293 247.815C37.5293 245.345 39.5496 243.325 42.0167 243.325H74.0706C76.5378 243.325 78.558 245.345 78.558 247.815Z" fill="white" />
    <path d="M510.685 418.265C508.378 418.265 506.492 416.376 506.492 414.07V384.103C506.492 381.796 508.378 379.907 510.685 379.907C512.994 379.907 514.883 381.796 514.883 384.103V414.07C514.883 416.376 512.994 418.265 510.685 418.265Z" fill="white" />
    <path d="M529.777 399.02C529.777 401.329 527.888 403.215 525.581 403.215H495.614C493.305 403.215 491.418 401.329 491.418 399.02C491.418 396.713 493.305 394.827 495.614 394.827H525.581C527.888 394.827 529.777 396.713 529.777 399.02Z" fill="white" />
    <path d="M552.959 189.031C510.595 189.031 476.25 220.18 476.25 258.603C476.25 269.175 478.865 279.191 483.515 288.163L460.195 319.253L502.779 311.199C516.235 321.766 533.765 328.175 552.959 328.175C595.323 328.175 629.667 297.025 629.667 258.603C629.667 220.18 595.323 189.031 552.959 189.031Z" fill="white" />
    <path d="M71.8908 335.079L4.65758 324.172C1.64726 323.683 -0.415786 320.82 0.0712176 317.812C0.560897 314.802 3.42137 312.739 6.43169 313.226L73.6676 324.135C76.6779 324.625 78.741 327.485 78.2513 330.495C77.7643 333.506 74.9012 335.569 71.8908 335.079Z" fill="white" />
    <path d="M79.7773 369.573L14.0853 387.576C11.1419 388.379 8.07804 386.634 7.27261 383.694C6.46451 380.753 8.21183 377.686 11.1526 376.881L76.8445 358.878C79.7853 358.073 82.8518 359.82 83.6572 362.761C84.4627 365.699 82.7154 368.765 79.7773 369.573Z" fill="white" />
    <path d="M93.3199 400.747L43.2923 446.969C41.0527 449.04 37.5259 448.901 35.4575 446.661C33.3864 444.422 33.5282 440.895 35.7679 438.826L85.7954 392.601C88.0351 390.533 91.5592 390.669 93.6303 392.909C95.6988 395.151 95.5596 398.675 93.3199 400.747Z" fill="white" />
    <path d="M592.693 253.469C592.693 241.495 582.985 231.79 571.01 231.79C563.909 231.79 557.623 235.223 553.668 240.499C549.713 235.223 543.428 231.79 536.326 231.79C524.352 231.79 514.646 241.492 514.644 253.464C514.641 268.973 537.188 283.101 547.993 292.97C550.401 295.17 554.078 295.215 556.539 293.072C568.353 282.802 592.693 271.429 592.693 253.469Z" fill="#DE2A23" />
</svg>
