<svg width="542" height="611" viewBox="0 0 542 611" fill="none" xmlns="http://www.w3.org/2000/svg">
    <path d="M0 301.235C0 190.778 89.543 101.235 200 101.235H222.66C388.346 101.235 522.66 235.549 522.66 401.235V534.36C522.66 561.974 500.275 584.36 472.66 584.36H50C22.3858 584.36 0 561.974 0 534.36V301.235Z" fill="#E62B1E"/>
    <circle cx="149.814" cy="102.814" r="90.3143" fill="white" stroke="#020202" stroke-width="25"/>
    <circle cx="438.814" cy="507.814" r="90.3143" fill="white" stroke="black" stroke-width="25"/>
    <path d="M50.4082 384.899H61.2593V416.309C61.2593 419.822 61.6753 422.387 62.5073 424.005C63.8016 426.871 66.6213 428.304 70.9663 428.304C75.2882 428.304 78.0964 426.871 79.3906 424.005C80.2227 422.387 80.6387 419.822 80.6387 416.309V384.899H91.4897V416.309C91.4897 421.74 90.6462 425.969 88.959 428.997C85.8158 434.544 79.8182 437.317 70.9663 437.317C62.1144 437.317 56.1053 434.544 52.939 428.997C51.2518 425.969 50.4082 421.74 50.4082 416.309V384.899ZM121.859 397.311C125.765 397.311 128.954 398.339 131.427 400.396C133.923 402.43 135.171 405.816 135.171 410.554V436H125.048V413.015C125.048 411.028 124.783 409.502 124.251 408.439C123.28 406.498 121.431 405.527 118.704 405.527C115.353 405.527 113.053 406.948 111.805 409.791C111.158 411.293 110.834 413.212 110.834 415.546V436H100.989V398.281H110.522V403.793C111.794 401.852 112.995 400.454 114.128 399.599C116.162 398.073 118.739 397.311 121.859 397.311ZM158.26 397.311C160.548 397.311 162.582 397.819 164.362 398.836C166.141 399.83 167.586 401.216 168.695 402.996V384.969H178.714V436H169.111V430.765C167.701 433.007 166.095 434.636 164.292 435.653C162.49 436.67 160.248 437.179 157.567 437.179C153.153 437.179 149.431 435.399 146.404 431.84C143.399 428.257 141.897 423.67 141.897 418.077C141.897 411.628 143.376 406.555 146.334 402.857C149.316 399.16 153.291 397.311 158.26 397.311ZM160.41 428.858C163.206 428.858 165.333 427.818 166.789 425.738C168.245 423.658 168.973 420.966 168.973 417.661C168.973 413.038 167.806 409.733 165.471 407.746C164.038 406.544 162.374 405.943 160.479 405.943C157.59 405.943 155.464 407.041 154.1 409.236C152.76 411.409 152.089 414.113 152.089 417.349C152.089 420.839 152.771 423.635 154.135 425.738C155.521 427.818 157.613 428.858 160.41 428.858ZM202.635 405.354C200.347 405.354 198.568 406.07 197.296 407.503C196.048 408.936 195.263 410.877 194.939 413.327H210.297C210.135 410.715 209.338 408.739 207.905 407.399C206.495 406.035 204.738 405.354 202.635 405.354ZM202.635 397.207C205.778 397.207 208.61 397.796 211.129 398.975C213.648 400.153 215.728 402.014 217.369 404.556C218.848 406.798 219.807 409.398 220.247 412.356C220.501 414.09 220.605 416.586 220.559 419.845H194.696C194.835 423.635 196.025 426.293 198.267 427.818C199.631 428.766 201.272 429.24 203.19 429.24C205.224 429.24 206.876 428.662 208.147 427.506C208.841 426.882 209.453 426.016 209.985 424.906H220.073C219.819 427.148 218.652 429.425 216.572 431.736C213.336 435.411 208.806 437.248 202.982 437.248C198.175 437.248 193.934 435.7 190.259 432.603C186.584 429.506 184.747 424.467 184.747 417.487C184.747 410.947 186.399 405.931 189.704 402.441C193.032 398.951 197.343 397.207 202.635 397.207ZM247.773 397.311C247.958 397.311 248.108 397.322 248.224 397.345C248.362 397.345 248.651 397.357 249.09 397.38V407.503C248.466 407.434 247.912 407.387 247.426 407.364C246.941 407.341 246.548 407.33 246.248 407.33C242.272 407.33 239.603 408.624 238.239 411.212C237.477 412.668 237.095 414.91 237.095 417.938V436H227.146V398.212H236.575V404.799C238.101 402.28 239.43 400.558 240.562 399.633C242.411 398.085 244.815 397.311 247.773 397.311Z" fill="white"/>
    <path d="M152.178 486.781C152.429 488.589 152.921 489.941 153.655 490.836C154.998 492.465 157.299 493.28 160.557 493.28C162.509 493.28 164.093 493.065 165.311 492.635C167.62 491.812 168.775 490.281 168.775 488.043C168.775 486.736 168.202 485.724 167.056 485.008C165.91 484.31 164.111 483.692 161.658 483.155L157.469 482.215C153.351 481.284 150.504 480.273 148.929 479.181C146.261 477.354 144.927 474.499 144.927 470.614C144.927 467.069 146.216 464.124 148.794 461.778C151.373 459.433 155.159 458.26 160.154 458.26C164.326 458.26 167.88 459.37 170.816 461.59C173.77 463.792 175.319 466.997 175.462 471.205H167.513C167.369 468.823 166.331 467.132 164.397 466.129C163.108 465.466 161.506 465.135 159.59 465.135C157.46 465.135 155.759 465.565 154.488 466.424C153.217 467.284 152.581 468.483 152.581 470.023C152.581 471.437 153.208 472.494 154.461 473.192C155.267 473.657 156.985 474.203 159.617 474.83L166.438 476.468C169.428 477.184 171.684 478.142 173.206 479.342C175.569 481.204 176.751 483.898 176.751 487.425C176.751 491.042 175.363 494.05 172.588 496.449C169.831 498.83 165.928 500.021 160.879 500.021C155.723 500.021 151.668 498.848 148.714 496.502C145.76 494.139 144.283 490.899 144.283 486.781H152.178ZM179.249 475.448V469.996H183.331V461.832H190.904V469.996H195.657V475.448H190.904V490.917C190.904 492.116 191.056 492.868 191.36 493.172C191.665 493.459 192.596 493.602 194.153 493.602C194.386 493.602 194.628 493.602 194.878 493.602C195.147 493.584 195.407 493.566 195.657 493.548V499.269L192.032 499.403C188.415 499.528 185.944 498.902 184.62 497.523C183.76 496.646 183.331 495.294 183.331 493.468V475.448H179.249ZM216.712 484.767C216.229 485.071 215.736 485.322 215.235 485.519C214.751 485.698 214.08 485.868 213.221 486.029L211.502 486.351C209.891 486.638 208.736 486.987 208.038 487.398C206.856 488.097 206.265 489.18 206.265 490.648C206.265 491.955 206.623 492.904 207.339 493.495C208.073 494.068 208.96 494.354 209.998 494.354C211.645 494.354 213.158 493.871 214.537 492.904C215.933 491.937 216.658 490.174 216.712 487.613V484.767ZM212.066 481.195C213.48 481.016 214.492 480.792 215.101 480.523C216.193 480.058 216.739 479.333 216.739 478.348C216.739 477.149 216.318 476.325 215.477 475.877C214.653 475.412 213.436 475.179 211.824 475.179C210.016 475.179 208.736 475.627 207.984 476.522C207.447 477.184 207.089 478.08 206.91 479.208H199.524C199.686 476.647 200.402 474.544 201.673 472.896C203.696 470.318 207.169 469.029 212.093 469.029C215.298 469.029 218.144 469.665 220.633 470.936C223.121 472.207 224.366 474.606 224.366 478.133V491.561C224.366 492.492 224.384 493.62 224.419 494.945C224.473 495.947 224.625 496.628 224.876 496.986C225.127 497.344 225.503 497.639 226.004 497.872V499H217.679C217.446 498.409 217.285 497.854 217.195 497.335C217.106 496.816 217.034 496.225 216.98 495.562C215.924 496.708 214.707 497.684 213.328 498.49C211.681 499.439 209.819 499.913 207.742 499.913C205.092 499.913 202.899 499.161 201.163 497.657C199.444 496.135 198.584 493.987 198.584 491.212C198.584 487.613 199.972 485.008 202.747 483.397C204.269 482.52 206.507 481.893 209.461 481.517L212.066 481.195ZM239.056 466.236H231.294V459.173H239.056V466.236ZM231.294 469.728H239.056V499H231.294V469.728ZM262.393 469.029C262.536 469.029 262.653 469.038 262.742 469.056C262.85 469.056 263.073 469.065 263.414 469.083V476.925C262.93 476.871 262.5 476.835 262.125 476.817C261.749 476.799 261.444 476.791 261.211 476.791C258.132 476.791 256.064 477.793 255.008 479.798C254.417 480.926 254.122 482.663 254.122 485.008V499H246.414V469.728H253.719V474.83C254.9 472.879 255.93 471.545 256.807 470.829C258.239 469.629 260.101 469.029 262.393 469.029ZM273.887 489.654C274.048 491.015 274.397 491.982 274.935 492.555C275.883 493.575 277.638 494.085 280.198 494.085C281.702 494.085 282.893 493.862 283.77 493.414C284.665 492.966 285.113 492.295 285.113 491.4C285.113 490.541 284.755 489.887 284.039 489.439C283.322 488.992 280.664 488.222 276.062 487.13C272.75 486.306 270.414 485.277 269.053 484.042C267.693 482.824 267.012 481.069 267.012 478.778C267.012 476.074 268.069 473.756 270.181 471.822C272.312 469.871 275.302 468.895 279.151 468.895C282.803 468.895 285.775 469.629 288.067 471.097C290.376 472.547 291.701 475.063 292.042 478.644H284.388C284.28 477.659 284.003 476.88 283.555 476.307C282.714 475.269 281.281 474.75 279.258 474.75C277.593 474.75 276.403 475.009 275.687 475.528C274.988 476.048 274.639 476.656 274.639 477.354C274.639 478.232 275.015 478.867 275.767 479.261C276.519 479.673 279.178 480.38 283.743 481.383C286.787 482.099 289.069 483.182 290.591 484.632C292.095 486.1 292.847 487.936 292.847 490.138C292.847 493.038 291.764 495.41 289.598 497.254C287.449 499.081 284.119 499.994 279.607 499.994C275.006 499.994 271.604 499.027 269.402 497.093C267.218 495.142 266.126 492.662 266.126 489.654H273.887Z" fill="white"/>
    <path d="M76.9561 461.014V467.386H66.1895V497H58.6211V467.386H47.8057V461.014H76.9561ZM95.4863 469.705C97.1302 469.705 98.6195 469.99 99.9541 470.56C101.305 471.129 102.412 472 103.274 473.172C104.007 474.165 104.454 475.19 104.617 476.248C104.78 477.29 104.861 478.999 104.861 481.375V497H97.7568V480.813C97.7568 479.381 97.5127 478.226 97.0244 477.347C96.3896 476.11 95.1852 475.491 93.4111 475.491C91.5719 475.491 90.1722 476.11 89.2119 477.347C88.2679 478.567 87.7959 480.317 87.7959 482.596V497H80.8623V461.136H87.7959V473.855C88.805 472.309 89.9688 471.235 91.2871 470.633C92.6217 470.014 94.0215 469.705 95.4863 469.705ZM121.878 475.418C120.267 475.418 119.013 475.923 118.118 476.932C117.239 477.941 116.686 479.308 116.458 481.033H127.273C127.16 479.194 126.598 477.802 125.589 476.858C124.596 475.898 123.359 475.418 121.878 475.418ZM121.878 469.681C124.091 469.681 126.085 470.096 127.859 470.926C129.633 471.756 131.098 473.066 132.254 474.856C133.296 476.435 133.971 478.266 134.28 480.35C134.459 481.57 134.533 483.328 134.5 485.623H116.287C116.385 488.292 117.223 490.164 118.802 491.238C119.762 491.906 120.918 492.239 122.269 492.239C123.701 492.239 124.865 491.832 125.76 491.019C126.248 490.579 126.679 489.969 127.054 489.188H134.158C133.979 490.766 133.157 492.369 131.692 493.997C129.414 496.585 126.224 497.879 122.122 497.879C118.737 497.879 115.75 496.788 113.162 494.607C110.574 492.426 109.28 488.878 109.28 483.963C109.28 479.357 110.444 475.825 112.771 473.367C115.115 470.91 118.151 469.681 121.878 469.681Z" fill="white"/>
    </svg>
