<svg xmlns="http://www.w3.org/2000/svg" viewBox="0 0 1440 320">

    <!-- <path fill="#e62b1e" fill-opacity="1" d="M0,160L12,144C24,128,48,96,72,112C96,128,120,192,144,213.3C168,235,192,213,216,218.7C240,224,264,256,288,240C312,224,336,160,360,138.7C384,117,408,139,432,122.7C456,107,480,53,504,42.7C528,32,552,64,576,101.3C600,139,624,181,648,181.3C672,181,696,139,720,128C744,117,768,139,792,128C816,117,840,75,864,53.3C888,32,912,32,936,58.7C960,85,984,139,1008,154.7C1032,171,1056,149,1080,117.3C1104,85,1128,43,1152,48C1176,53,1200,107,1224,138.7C1248,171,1272,181,1296,160C1320,139,1344,85,1368,74.7C1392,64,1416,96,1428,112L1440,128L1440,320L1428,320C1416,320,1392,320,1368,320C1344,320,1320,320,1296,320C1272,320,1248,320,1224,320C1200,320,1176,320,1152,320C1128,320,1104,320,1080,320C1056,320,1032,320,1008,320C984,320,960,320,936,320C912,320,888,320,864,320C840,320,816,320,792,320C768,320,744,320,720,320C696,320,672,320,648,320C624,320,600,320,576,320C552,320,528,320,504,320C480,320,456,320,432,320C408,320,384,320,360,320C336,320,312,320,288,320C264,320,240,320,216,320C192,320,168,320,144,320C120,320,96,320,72,320C48,320,24,320,12,320L0,320Z"></path> -->
    <path fill="#ffffff" fill-opacity="1" d="M0,160L12,144C24,128,48,96,72,112C96,128,120,192,144,213.3C168,235,192,213,216,218.7C240,224,264,256,288,240C312,224,336,160,360,138.7C384,117,408,139,432,122.7C456,107,480,53,504,42.7C528,32,552,64,576,101.3C600,139,624,181,648,181.3C672,181,696,139,720,128C744,117,768,139,792,128C816,117,840,75,864,53.3C888,32,912,32,936,58.7C960,85,984,139,1008,154.7C1032,171,1056,149,1080,117.3C1104,85,1128,43,1152,48C1176,53,1200,107,1224,138.7C1248,171,1272,181,1296,160C1320,139,1344,85,1368,74.7C1392,64,1416,96,1428,112L1440,128L1440,320L1428,320C1416,320,1392,320,1368,320C1344,320,1320,320,1296,320C1272,320,1248,320,1224,320C1200,320,1176,320,1152,320C1128,320,1104,320,1080,320C1056,320,1032,320,1008,320C984,320,960,320,936,320C912,320,888,320,864,320C840,320,816,320,792,320C768,320,744,320,720,320C696,320,672,320,648,320C624,320,600,320,576,320C552,320,528,320,504,320C480,320,456,320,432,320C408,320,384,320,360,320C336,320,312,320,288,320C264,320,240,320,216,320C192,320,168,320,144,320C120,320,96,320,72,320C48,320,24,320,12,320L0,320Z"></path>
</svg>