<?xml version="1.0" encoding="UTF-8" standalone="no"?>
<!DOCTYPE svg PUBLIC "-//W3C//DTD SVG 1.1//EN" "http://www.w3.org/Graphics/SVG/1.1/DTD/svg11.dtd">
<svg width="100%" height="100%" viewBox="0 0 981 458" version="1.1" xmlns="http://www.w3.org/2000/svg" xmlns:xlink="http://www.w3.org/1999/xlink" xml:space="preserve" xmlns:serif="http://www.serif.com/" style="fill-rule:evenodd;clip-rule:evenodd;stroke-linejoin:round;stroke-miterlimit:1.41421;">
    <g transform="matrix(4.16667,0,0,4.16667,-573.589,-471.999)">
        <path d="M293.545,209.122L202.22,223.036C196.194,223.954 190.513,219.775 189.595,213.749L182.863,169.562C181.945,163.536 186.124,157.854 192.149,156.936L283.475,143.023C289.5,142.105 295.182,146.284 296.1,152.31L302.832,196.497C303.75,202.523 299.57,208.204 293.545,209.122Z" style="fill:rgb(241,93,95);fill-rule:nonzero;"/>
    </g>
    <g transform="matrix(4.16667,0,0,4.16667,-573.589,-471.999)">
        <path d="M231.806,186.565L254.44,183.116" style="fill:rgb(252,186,120);fill-rule:nonzero;"/>
    </g>
    <g transform="matrix(4.16667,0,0,4.16667,-573.589,-471.999)">
        <path d="M231.956,187.553L254.591,184.105L254.29,182.127L231.655,185.576" style="fill:rgb(208,122,51);fill-rule:nonzero;"/>
    </g>
    <g transform="matrix(4.16667,0,0,4.16667,-573.589,-471.999)">
        <path d="M185.243,161.695L228.286,115.782C230.778,113.123 234.763,112.51 237.938,114.296L291.301,144.301L185.243,161.695Z" style="fill:rgb(241,93,95);fill-rule:nonzero;"/>
    </g>
    <g transform="matrix(4.16667,0,0,4.16667,-573.589,-471.999)">
        <path d="M281.998,179.384L204.387,191.208C198.647,192.082 193.236,188.102 192.362,182.363L185.977,140.451C185.102,134.712 189.083,129.3 194.822,128.426L272.433,116.602C278.173,115.727 283.584,119.708 284.458,125.447L290.844,167.359C291.718,173.098 287.737,178.51 281.998,179.384Z" style="fill:white;fill-rule:nonzero;"/>
    </g>
    <g transform="matrix(4.16667,0,0,4.16667,-573.589,-471.999)">
        <path d="M267.119,166.408C239.88,157.03 212.917,146.845 186.38,135.633C185.889,137.143 185.722,138.782 185.977,140.451L192.362,182.363C193.236,188.102 198.647,192.082 204.387,191.208L281.998,179.384C285.378,178.869 288.138,176.775 289.665,173.973C282.132,171.506 274.615,168.989 267.119,166.408Z" style="fill:rgb(238,237,237);fill-rule:nonzero;"/>
    </g>
    <g transform="matrix(4.16667,0,0,4.16667,-573.589,-471.999)">
        <path d="M188.528,163.973L231.809,186.564L196.736,217.849" style="fill:rgb(239,70,65);fill-rule:nonzero;"/>
    </g>
    <g transform="matrix(4.16667,0,0,4.16667,-573.589,-471.999)">
        <path d="M188.066,164.86L230.064,186.781L196.071,217.103L197.402,218.595L233.555,186.347L188.991,163.087L188.066,164.86Z" style="fill:rgb(228,30,37);fill-rule:nonzero;"/>
    </g>
    <g transform="matrix(4.16667,0,0,4.16667,-573.589,-471.999)">
        <path d="M289.033,148.661L254.443,183.116L297.241,202.537" style="fill:rgb(239,70,65);fill-rule:nonzero;"/>
    </g>
    <g transform="matrix(4.16667,0,0,4.16667,-573.589,-471.999)">
        <path d="M288.327,147.953L252.712,183.428L296.828,203.448L297.654,201.626L256.174,182.803L289.739,149.37L288.328,147.953L288.327,147.953Z" style="fill:rgb(228,30,37);fill-rule:nonzero;"/>
    </g>
    <g transform="matrix(4.16667,0,0,4.16667,-573.589,-471.999)">
        <path d="M268.354,132.055L203.318,141.963C202.154,142.14 201.057,141.333 200.879,140.169C200.702,139.005 201.509,137.907 202.673,137.73L267.709,127.822C268.873,127.644 269.971,128.452 270.147,129.616C270.325,130.78 269.518,131.878 268.354,132.055Z" style="fill:rgb(73,20,23);fill-rule:nonzero;"/>
    </g>
    <g transform="matrix(4.16667,0,0,4.16667,-573.589,-471.999)">
        <path d="M269.772,141.369L204.737,151.277C203.573,151.454 202.476,150.647 202.298,149.483L202.298,149.482C202.121,148.318 202.928,147.221 204.092,147.043L269.128,137.135C270.292,136.958 271.39,137.765 271.566,138.93C271.744,140.094 270.937,141.191 269.772,141.369Z" style="fill:rgb(73,20,23);fill-rule:nonzero;"/>
    </g>
    <g transform="matrix(4.16667,0,0,4.16667,-573.589,-471.999)">
        <path d="M271.256,151.105L206.221,161.014C205.056,161.191 203.959,160.384 203.781,159.219C203.604,158.055 204.412,156.957 205.576,156.78L270.611,146.872C271.775,146.695 272.873,147.502 273.05,148.666C273.228,149.83 272.42,150.928 271.256,151.105Z" style="fill:rgb(73,20,23);fill-rule:nonzero;"/>
    </g>
    <g transform="matrix(4.16667,0,0,4.16667,-573.589,-471.999)">
        <path d="M272.675,160.419L207.64,170.327C206.475,170.504 205.378,169.697 205.2,168.533C205.023,167.369 205.831,166.271 206.995,166.094L272.03,156.185C273.194,156.008 274.292,156.815 274.469,157.979C274.646,159.144 273.839,160.242 272.675,160.419Z" style="fill:rgb(73,20,23);fill-rule:nonzero;"/>
    </g>
    <g transform="matrix(4.16667,0,0,4.16667,-573.589,-471.999)">
        <path d="M231.806,186.565L254.44,183.116" style="fill:rgb(252,186,120);fill-rule:nonzero;"/>
    </g>
    <g transform="matrix(4.16667,0,0,4.16667,-573.589,-471.999)">
        <path d="M231.956,187.553L254.591,184.105L254.29,182.127L231.655,185.576" style="fill:rgb(228,30,37);fill-rule:nonzero;"/>
    </g>
    <g transform="matrix(4.16667,0,0,4.16667,-573.589,-471.999)">
        <path d="M159.339,150.821C158.417,150.821 157.662,150.067 157.662,149.144L157.662,137.165C157.662,136.243 158.417,135.488 159.339,135.488C160.261,135.488 161.016,136.243 161.016,137.165L161.016,149.144C161.016,150.067 160.261,150.821 159.339,150.821Z" style="fill:white;fill-rule:nonzero;"/>
    </g>
    <g transform="matrix(4.16667,0,0,4.16667,-573.589,-471.999)">
        <path d="M167.005,143.155C167.005,144.077 166.25,144.832 165.328,144.832L153.349,144.832C152.427,144.832 151.672,144.077 151.672,143.155C151.672,142.232 152.427,141.477 153.349,141.477L165.328,141.477C166.25,141.477 167.005,142.232 167.005,143.155Z" style="fill:white;fill-rule:nonzero;"/>
    </g>
    <g transform="matrix(4.16667,0,0,4.16667,-573.589,-471.999)">
        <path d="M328.49,206.833C327.628,206.833 326.923,206.127 326.923,205.265L326.923,194.066C326.923,193.204 327.628,192.498 328.49,192.498C329.353,192.498 330.059,193.204 330.059,194.066L330.059,205.265C330.059,206.127 329.353,206.833 328.49,206.833Z" style="fill:white;fill-rule:nonzero;"/>
    </g>
    <g transform="matrix(4.16667,0,0,4.16667,-573.589,-471.999)">
        <path d="M335.658,199.665C335.658,200.528 334.952,201.233 334.09,201.233L322.891,201.233C322.028,201.233 321.323,200.528 321.323,199.665C321.323,198.803 322.028,198.098 322.891,198.098L334.09,198.098C334.952,198.098 335.658,198.803 335.658,199.665Z" style="fill:white;fill-rule:nonzero;"/>
    </g>
    <g transform="matrix(4.16667,0,0,4.16667,-573.589,-471.999)">
        <path d="M344.328,121.165C328.496,121.165 315.661,132.806 315.661,147.165C315.661,151.116 316.638,154.859 318.376,158.212L309.661,169.831L325.575,166.821C330.604,170.77 337.155,173.165 344.328,173.165C360.16,173.165 372.995,161.524 372.995,147.165C372.995,132.806 360.16,121.165 344.328,121.165Z" style="fill:white;fill-rule:nonzero;"/>
    </g>
    <g transform="matrix(4.16667,0,0,4.16667,-573.589,-471.999)">
        <path d="M164.528,175.731L139.402,171.655C138.277,171.472 137.506,170.402 137.688,169.278C137.871,168.153 138.94,167.382 140.065,167.564L165.192,171.641C166.317,171.824 167.088,172.893 166.905,174.018C166.723,175.143 165.653,175.914 164.528,175.731Z" style="fill:white;fill-rule:nonzero;"/>
    </g>
    <g transform="matrix(4.16667,0,0,4.16667,-573.589,-471.999)">
        <path d="M167.488,188.634L142.938,195.362C141.838,195.662 140.693,195.01 140.392,193.911C140.09,192.812 140.743,191.666 141.842,191.365L166.392,184.637C167.491,184.336 168.637,184.989 168.938,186.088C169.239,187.186 168.586,188.332 167.488,188.634Z" style="fill:white;fill-rule:nonzero;"/>
    </g>
    <g transform="matrix(4.16667,0,0,4.16667,-573.589,-471.999)">
        <path d="M172.523,200.283L153.827,217.557C152.99,218.331 151.672,218.279 150.899,217.442C150.125,216.605 150.178,215.287 151.015,214.514L169.711,197.239C170.548,196.466 171.865,196.517 172.639,197.354C173.412,198.192 173.36,199.509 172.523,200.283Z" style="fill:white;fill-rule:nonzero;"/>
    </g>
    <g transform="matrix(4.16667,0,0,4.16667,-573.589,-471.999)">
        <path d="M359.168,145.269C359.168,140.794 355.54,137.167 351.065,137.167C348.411,137.167 346.062,138.45 344.584,140.422C343.106,138.45 340.757,137.167 338.103,137.167C333.628,137.167 330.001,140.793 330,145.267C329.999,151.063 338.425,156.343 342.463,160.031C343.363,160.853 344.737,160.87 345.657,160.069C350.072,156.231 359.168,151.981 359.168,145.269Z" style="fill:rgb(222,42,35);fill-rule:nonzero;"/>
    </g>
</svg>
